<svg xmlns="http://www.w3.org/2000/svg" width="1206" height="655" viewBox="0 0 1206 655" role="img" aria-label="0분 · SP02-counter · 왕복·순환형 · A 성공 · B 성공 · C 성공"><style>text{font-family:"Apple SD Gothic Neo","Noto Sans KR",sans-serif}</style><rect width="1206" height="655" rx="18" fill="#fff"/><text x="22" y="40" font-size="25" font-weight="800" fill="#111827">0분 · SP02-counter · 왕복·순환형</text><text x="22" y="76" font-size="17" font-weight="750" fill="#111827">A 성공 · B 성공 · C 성공</text><defs><clipPath id="map-clip"><rect x="12" y="52" width="366" height="408"/></clipPath><g id="roads" fill="none" stroke="#d7dce2" stroke-width="0.75"><path d="M349.2,300.9 L334.2,305.3"/><path d="M349.2,300.9 L369.2,295.6"/><path d="M349.2,300.9 L326.4,214.7"/><path d="M349.2,300.9 L371.9,378.4"/><path d="M317.9,157.5 L235.4,121.6"/><path d="M82.6,498.7 L186.1,386.6"/><path d="M302.0,493.3 L265.9,409.3"/><path d="M12.0,464.0 L14.7,454.5"/><path d="M355.3,441.7 L340.3,387.6"/><path d="M367.6,443.9 L350.6,384.6"/><path d="M343.8,445.2 L328.6,391.0"/><path d="M265.9,409.3 L307.5,397.2"/><path d="M265.9,409.3 L242.8,368.0"/><path d="M307.5,397.2 L285.9,318.3"/><path d="M307.5,397.2 L328.6,391.0"/><path d="M328.6,391.0 L306.7,312.7"/><path d="M328.6,391.0 L340.3,387.6"/><path d="M340.3,387.6 L318.2,309.6"/><path d="M340.3,387.6 L350.6,384.6"/><path d="M350.6,384.6 L355.7,383.1"/><path d="M355.7,383.1 L334.2,305.3"/><path d="M355.7,383.1 L371.9,378.4"/><path d="M242.8,368.0 L240.9,364.4"/><path d="M242.8,368.0 L186.1,386.6"/><path d="M186.1,386.6 L156.6,384.7"/><path d="M186.1,386.6 L180.7,352.3"/><path d="M43.9,345.2 L22.1,305.3"/><path d="M285.9,318.3 L261.5,229.0"/><path d="M285.9,318.3 L306.7,312.7"/><path d="M306.7,312.7 L318.2,309.6"/><path d="M318.2,309.6 L334.2,305.3"/><path d="M22.1,305.3 L98.4,300.0"/><path d="M22.1,305.3 L-9.6,280.8"/><path d="M98.4,300.0 L75.2,276.1"/><path d="M98.4,300.0 L156.6,384.7"/><path d="M75.2,276.1 L100.5,265.5"/><path d="M75.2,276.1 L24.9,278.5"/><path d="M150.2,248.9 L127.2,256.0"/><path d="M150.2,248.9 L221.5,237.7"/><path d="M150.2,248.9 L240.9,364.4"/><path d="M150.2,248.9 L102.0,154.8"/><path d="M261.5,229.0 L282.4,224.2"/><path d="M261.5,229.0 L221.5,237.7"/><path d="M326.4,214.7 L318.2,140.7"/><path d="M326.4,214.7 L282.4,224.2"/><path d="M326.4,214.7 L339.2,210.0"/><path d="M326.4,214.7 L353.9,148.8"/><path d="M100.7,151.2 L102.0,154.8"/><path d="M100.7,151.2 L98.7,148.3"/><path d="M100.7,151.2 L91.1,167.2"/><path d="M235.4,121.6 L190.0,78.7"/><path d="M235.4,121.6 L165.8,-14.2"/><path d="M75.0,116.8 L59.8,106.6"/><path d="M75.0,116.8 L85.9,111.8"/><path d="M75.0,116.8 L98.7,148.3"/><path d="M59.8,106.6 L57.8,110.5"/><path d="M59.8,106.6 L52.8,81.1"/><path d="M160.3,63.8 L190.0,78.7"/><path d="M160.3,63.8 L104.3,17.6"/><path d="M160.3,63.8 L85.9,111.8"/><path d="M160.3,63.8 L101.2,17.2"/><path d="M323.5,29.4 L319.0,116.7"/><path d="M390.7,444.9 L371.9,378.4"/><path d="M383.4,292.0 L369.2,295.6"/><path d="M383.4,292.0 L367.1,250.4"/><path d="M339.2,210.0 L349.8,205.2"/><path d="M339.2,210.0 L367.1,250.4"/><path d="M384.3,157.1 L372.5,149.7"/><path d="M372.5,149.7 L362.7,120.3"/><path d="M372.5,149.7 L353.9,148.8"/><path d="M353.9,148.8 L343.2,138.0"/><path d="M318.2,140.7 L319.0,116.7"/><path d="M318.2,140.7 L343.2,138.0"/><path d="M343.2,138.0 L336.7,118.9"/><path d="M336.7,118.9 L362.7,120.3"/><path d="M336.7,118.9 L319.0,116.7"/><path d="M336.7,118.9 L345.0,29.1"/><path d="M362.7,120.3 L366.2,120.4"/><path d="M391.8,114.9 L366.2,120.4"/><path d="M355.0,90.1 L355.4,82.6"/><path d="M355.4,82.6 L359.6,29.3"/><path d="M355.4,82.6 L381.3,25.3"/><path d="M368.0,55.5 L369.2,28.5"/><path d="M14.7,454.5 L-1.3,411.8"/><path d="M14.7,454.5 L-14.7,453.1"/><path d="M109.0,391.0 L156.6,384.7"/><path d="M-6.7,94.5 L52.8,81.1"/><path d="M52.8,81.1 L47.3,22.7"/><path d="M180.7,352.3 L201.1,337.1"/><path d="M180.7,352.3 L155.6,354.3"/><path d="M24.9,278.5 L39.9,251.8"/><path d="M24.9,278.5 L-1.7,279.7"/><path d="M39.9,251.8 L61.3,217.3"/><path d="M39.9,251.8 L17.3,240.2"/><path d="M17.3,240.2 L1.9,215.1"/><path d="M17.3,240.2 L-1.7,279.7"/><path d="M1.9,215.1 L13.7,192.2"/><path d="M32.2,157.7 L49.9,124.3"/><path d="M32.2,157.7 L13.7,192.2"/><path d="M32.2,157.7 L60.1,172.2"/><path d="M60.1,172.2 L63.2,171.7"/><path d="M60.1,172.2 L81.1,183.9"/><path d="M60.1,172.2 L77.3,143.6"/><path d="M60.1,172.2 L42.4,207.1"/><path d="M49.9,124.3 L57.8,110.5"/><path d="M49.9,124.3 L-17.7,225.8"/><path d="M77.2,190.3 L61.3,217.3"/><path d="M77.2,190.3 L81.1,183.9"/><path d="M77.2,190.3 L89.4,197.8"/><path d="M89.4,197.8 L76.0,220.5"/><path d="M89.4,197.8 L91.1,167.2"/><path d="M100.5,265.5 L127.2,256.0"/><path d="M100.5,265.5 L107.1,244.6"/><path d="M107.1,244.6 L96.6,238.3"/><path d="M107.1,244.6 L127.2,256.0"/><path d="M96.6,238.3 L61.3,217.3"/><path d="M96.6,238.3 L75.3,258.9"/><path d="M282.4,224.2 L102.0,154.8"/><path d="M221.5,237.7 L209.2,267.9"/><path d="M371.9,378.4 L389.7,373.5"/><path d="M389.7,373.5 L369.2,295.6"/><path d="M367.1,250.4 L369.2,295.6"/><path d="M349.8,205.2 L395.1,185.0"/><path d="M89.0,165.9 L91.1,167.2"/><path d="M13.7,192.2 L42.4,207.1"/><path d="M61.3,217.3 L42.4,207.1"/><path d="M81.1,183.9 L91.1,167.2"/><path d="M63.6,141.9 L70.2,140.2"/><path d="M77.3,143.6 L70.2,140.2"/><path d="M77.3,143.6 L98.7,148.3"/><path d="M70.2,140.2 L57.8,110.5"/><path d="M206.3,85.9 L167.2,32.2"/><path d="M240.9,364.4 L266.3,349.5"/><path d="M266.3,349.5 L266.3,349.5"/><path d="M380.3,99.4 L366.2,120.4"/><path d="M85.9,111.8 L149.1,129.8"/><path d="M183.9,95.3 L190.0,78.7"/></g></defs><g transform="translate(0,105)"><rect x="0" y="0" width="390" height="520" rx="14" fill="#fff" stroke="#d8dee9"/><text x="18" y="28" font-size="18" font-weight="700" fill="#111827">A 거리 기준</text><text x="372" y="28" text-anchor="end" font-size="12" fill="#64748b">유효 · 평가 불필요</text><g clip-path="url(#map-clip)"><use href="#roads"/><polygon points="364.9,773.7 328.4,680.0 243.9,666.8 195.9,747.2 232.4,840.8 316.9,854.1" fill="rgb(49,130,189)" fill-opacity="0.274" stroke="none"/><polygon points="785.3,224.0 748.8,130.4 664.2,117.1 616.3,197.5 652.8,291.2 737.3,304.5" fill="rgb(49,130,189)" fill-opacity="0.275" stroke="none"/><polygon points="773.8,398.1 737.3,304.5 652.8,291.2 604.8,371.6 641.3,465.3 725.8,478.5" fill="rgb(49,130,189)" fill-opacity="0.275" stroke="none"/><polygon points="629.9,639.4 593.3,545.7 508.8,532.4 460.8,612.8 497.4,706.5 581.9,719.8" fill="rgb(49,130,189)" fill-opacity="0.277" stroke="none"/><polygon points="111.4,733.9 74.9,640.3 -9.6,627.0 -57.6,707.4 -21.1,801.1 63.4,814.3" fill="rgb(49,130,189)" fill-opacity="0.278" stroke="none"/><polygon points="-130.7,520.1 -167.2,426.5 -251.7,413.2 -299.6,493.6 -263.1,587.3 -178.6,600.5" fill="rgb(49,130,189)" fill-opacity="0.279" stroke="none"/><polygon points="301.1,-203.6 264.5,-297.3 180.0,-310.5 132.0,-230.1 168.6,-136.4 253.1,-123.2" fill="rgb(49,130,189)" fill-opacity="0.280" stroke="none"/><polygon points="-96.4,-2.1 -132.9,-95.7 -217.4,-108.9 -265.4,-28.5 -228.8,65.1 -144.3,78.4" fill="rgb(49,130,189)" fill-opacity="0.282" stroke="none"/><polygon points="497.4,706.5 460.8,612.8 376.3,599.6 328.4,680.0 364.9,773.7 449.4,786.9" fill="rgb(49,130,189)" fill-opacity="0.287" stroke="none"/><polygon points="-9.6,627.0 -46.2,533.4 -130.7,520.1 -178.6,600.5 -142.1,694.2 -57.6,707.4" fill="rgb(49,130,189)" fill-opacity="0.293" stroke="none"/><polygon points="168.6,-136.4 132.0,-230.1 47.5,-243.3 -0.4,-162.9 36.1,-69.2 120.6,-56.0" fill="rgb(49,130,189)" fill-opacity="0.307" stroke="none"/><polygon points="36.1,-69.2 -0.4,-162.9 -85.0,-176.1 -132.9,-95.7 -96.4,-2.1 -11.9,11.2" fill="rgb(49,130,189)" fill-opacity="0.308" stroke="none"/><polygon points="-119.2,346.1 -155.8,252.4 -240.3,239.2 -288.2,319.6 -251.7,413.2 -167.2,426.5" fill="rgb(49,130,189)" fill-opacity="0.318" stroke="none"/><polygon points="-107.8,172.0 -144.3,78.4 -228.8,65.1 -276.8,145.5 -240.3,239.2 -155.8,252.4" fill="rgb(49,130,189)" fill-opacity="0.319" stroke="none"/><polygon points="664.2,117.1 627.7,23.5 543.2,10.2 495.2,90.6 531.7,184.3 616.3,197.5" fill="rgb(49,130,189)" fill-opacity="0.326" stroke="none"/><polygon points="422.1,-96.7 385.6,-190.4 301.1,-203.6 253.1,-123.2 289.6,-29.5 374.1,-16.3" fill="rgb(49,130,189)" fill-opacity="0.330" stroke="none"/><polygon points="641.3,465.3 604.8,371.6 520.3,358.4 472.3,438.8 508.8,532.4 593.3,545.7" fill="rgb(49,130,189)" fill-opacity="0.333" stroke="none"/><polygon points="243.9,666.8 207.3,573.1 122.8,559.8 74.9,640.3 111.4,733.9 195.9,747.2" fill="rgb(49,130,189)" fill-opacity="0.336" stroke="none"/><polygon points="543.2,10.2 506.7,-83.5 422.1,-96.7 374.1,-16.3 410.7,77.4 495.2,90.6" fill="rgb(49,130,189)" fill-opacity="0.350" stroke="none"/><polygon points="652.8,291.2 616.3,197.5 531.7,184.3 483.7,264.7 520.3,358.4 604.8,371.6" fill="rgb(49,130,189)" fill-opacity="0.357" stroke="none"/><polygon points="1.8,452.9 -34.7,359.3 -119.2,346.1 -167.2,426.5 -130.7,520.1 -46.2,533.4" fill="rgb(49,130,189)" fill-opacity="0.372" stroke="none"/><polygon points="508.8,532.4 472.3,438.8 387.8,425.5 339.8,505.9 376.3,599.6 460.8,612.8" fill="rgb(49,130,189)" fill-opacity="0.378" stroke="none"/><polygon points="376.3,599.6 339.8,505.9 255.3,492.7 207.3,573.1 243.9,666.8 328.4,680.0" fill="rgb(49,130,189)" fill-opacity="0.379" stroke="none"/><polygon points="122.8,559.8 86.3,466.2 1.8,452.9 -46.2,533.4 -9.6,627.0 74.9,640.3" fill="rgb(49,130,189)" fill-opacity="0.381" stroke="none"/><polygon points="24.7,104.8 -11.9,11.2 -96.4,-2.1 -144.3,78.4 -107.8,172.0 -23.3,185.2" fill="rgb(49,130,189)" fill-opacity="0.385" stroke="none"/><polygon points="289.6,-29.5 253.1,-123.2 168.6,-136.4 120.6,-56.0 157.1,37.6 241.7,50.9" fill="rgb(49,130,189)" fill-opacity="0.393" stroke="none"/><polygon points="13.2,278.9 -23.3,185.2 -107.8,172.0 -155.8,252.4 -119.2,346.1 -34.7,359.3" fill="rgb(49,130,189)" fill-opacity="0.419" stroke="none"/><polygon points="157.1,37.6 120.6,-56.0 36.1,-69.2 -11.9,11.2 24.7,104.8 109.2,118.1" fill="rgb(49,130,189)" fill-opacity="0.420" stroke="none"/><polygon points="531.7,184.3 495.2,90.6 410.7,77.4 362.7,157.8 399.2,251.5 483.7,264.7" fill="rgb(49,130,189)" fill-opacity="0.440" stroke="none"/><polygon points="520.3,358.4 483.7,264.7 399.2,251.5 351.3,331.9 387.8,425.5 472.3,438.8" fill="rgb(49,130,189)" fill-opacity="0.457" stroke="none"/><polygon points="410.7,77.4 374.1,-16.3 289.6,-29.5 241.7,50.9 278.2,144.5 362.7,157.8" fill="rgb(49,130,189)" fill-opacity="0.461" stroke="none"/><polygon points="255.3,492.7 218.8,399.0 134.3,385.8 86.3,466.2 122.8,559.8 207.3,573.1" fill="rgb(49,130,189)" fill-opacity="0.481" stroke="none"/><polygon points="134.3,385.8 97.7,292.1 13.2,278.9 -34.7,359.3 1.8,452.9 86.3,466.2" fill="rgb(49,130,189)" fill-opacity="0.507" stroke="none"/><polygon points="387.8,425.5 351.3,331.9 266.7,318.6 218.8,399.0 255.3,492.7 339.8,505.9" fill="rgb(49,130,189)" fill-opacity="0.528" stroke="none"/><polygon points="145.7,211.7 109.2,118.1 24.7,104.8 -23.3,185.2 13.2,278.9 97.7,292.1" fill="rgb(49,130,189)" fill-opacity="0.538" stroke="none"/><polygon points="278.2,144.5 241.7,50.9 157.1,37.6 109.2,118.1 145.7,211.7 230.2,225.0" fill="rgb(49,130,189)" fill-opacity="0.570" stroke="none"/><polygon points="399.2,251.5 362.7,157.8 278.2,144.5 230.2,225.0 266.7,318.6 351.3,331.9" fill="rgb(49,130,189)" fill-opacity="0.606" stroke="none"/><polygon points="266.7,318.6 230.2,225.0 145.7,211.7 97.7,292.1 134.3,385.8 218.8,399.0" fill="rgb(49,130,189)" fill-opacity="0.700" stroke="none"/><polygon points="24.7,104.8 -11.9,11.2 -96.4,-2.1 -144.3,78.4 -107.8,172.0 -23.3,185.2" fill="none" stroke="#111827" stroke-width="1.35" stroke-dasharray="4 3" stroke-linejoin="round"/><polygon points="266.7,318.6 230.2,225.0 145.7,211.7 97.7,292.1 134.3,385.8 218.8,399.0" fill="none" stroke="#111827" stroke-width="1.35" stroke-dasharray="4 3" stroke-linejoin="round"/><polygon points="289.6,-29.5 253.1,-123.2 168.6,-136.4 120.6,-56.0 157.1,37.6 241.7,50.9" fill="none" stroke="#111827" stroke-width="1.35" stroke-dasharray="4 3" stroke-linejoin="round"/><polygon points="531.7,184.3 495.2,90.6 410.7,77.4 362.7,157.8 399.2,251.5 483.7,264.7" fill="none" stroke="#111827" stroke-width="1.35" stroke-dasharray="4 3" stroke-linejoin="round"/><polygon points="255.3,492.7 218.8,399.0 134.3,385.8 86.3,466.2 122.8,559.8 207.3,573.1" fill="none" stroke="#111827" stroke-width="1.35" stroke-dasharray="4 3" stroke-linejoin="round"/><polygon points="13.2,278.9 -23.3,185.2 -107.8,172.0 -155.8,252.4 -119.2,346.1 -34.7,359.3" fill="none" stroke="#111827" stroke-width="1.35" stroke-dasharray="4 3" stroke-linejoin="round"/><polygon points="243.9,666.8 207.3,573.1 122.8,559.8 74.9,640.3 111.4,733.9 195.9,747.2" fill="none" stroke="#111827" stroke-width="1.35" stroke-dasharray="4 3" stroke-linejoin="round"/><polygon points="157.1,37.6 120.6,-56.0 36.1,-69.2 -11.9,11.2 24.7,104.8 109.2,118.1" fill="none" stroke="#111827" stroke-width="1.35" stroke-dasharray="4 3" stroke-linejoin="round"/><polygon points="376.3,599.6 339.8,505.9 255.3,492.7 207.3,573.1 243.9,666.8 328.4,680.0" fill="none" stroke="#111827" stroke-width="1.35" stroke-dasharray="4 3" stroke-linejoin="round"/><polygon points="122.8,559.8 86.3,466.2 1.8,452.9 -46.2,533.4 -9.6,627.0 74.9,640.3" fill="none" stroke="#111827" stroke-width="1.35" stroke-dasharray="4 3" stroke-linejoin="round"/><polygon points="387.8,425.5 351.3,331.9 266.7,318.6 218.8,399.0 255.3,492.7 339.8,505.9" fill="none" stroke="#111827" stroke-width="1.35" stroke-dasharray="4 3" stroke-linejoin="round"/><polygon points="410.7,77.4 374.1,-16.3 289.6,-29.5 241.7,50.9 278.2,144.5 362.7,157.8" fill="none" stroke="#111827" stroke-width="1.35" stroke-dasharray="4 3" stroke-linejoin="round"/><polygon points="508.8,532.4 472.3,438.8 387.8,425.5 339.8,505.9 376.3,599.6 460.8,612.8" fill="none" stroke="#111827" stroke-width="1.35" stroke-dasharray="4 3" stroke-linejoin="round"/><polygon points="278.2,144.5 241.7,50.9 157.1,37.6 109.2,118.1 145.7,211.7 230.2,225.0" fill="none" stroke="#111827" stroke-width="1.35" stroke-dasharray="4 3" stroke-linejoin="round"/><polygon points="520.3,358.4 483.7,264.7 399.2,251.5 351.3,331.9 387.8,425.5 472.3,438.8" fill="none" stroke="#111827" stroke-width="1.35" stroke-dasharray="4 3" stroke-linejoin="round"/><polygon points="399.2,251.5 362.7,157.8 278.2,144.5 230.2,225.0 266.7,318.6 351.3,331.9" fill="none" stroke="#111827" stroke-width="1.35" stroke-dasharray="4 3" stroke-linejoin="round"/><polygon points="1.8,452.9 -34.7,359.3 -119.2,346.1 -167.2,426.5 -130.7,520.1 -46.2,533.4" fill="none" stroke="#111827" stroke-width="1.35" stroke-dasharray="4 3" stroke-linejoin="round"/><polygon points="134.3,385.8 97.7,292.1 13.2,278.9 -34.7,359.3 1.8,452.9 86.3,466.2" fill="none" stroke="#111827" stroke-width="1.35" stroke-dasharray="4 3" stroke-linejoin="round"/><polygon points="145.7,211.7 109.2,118.1 24.7,104.8 -23.3,185.2 13.2,278.9 97.7,292.1" fill="none" stroke="#111827" stroke-width="1.35" stroke-dasharray="4 3" stroke-linejoin="round"/><polygon points="543.2,10.2 506.7,-83.5 422.1,-96.7 374.1,-16.3 410.7,77.4 495.2,90.6" fill="none" stroke="#111827" stroke-width="2.15" stroke-linejoin="round"/><polygon points="773.8,398.1 737.3,304.5 652.8,291.2 604.8,371.6 641.3,465.3 725.8,478.5" fill="none" stroke="#111827" stroke-width="2.15" stroke-linejoin="round"/><polygon points="664.2,117.1 627.7,23.5 543.2,10.2 495.2,90.6 531.7,184.3 616.3,197.5" fill="none" stroke="#111827" stroke-width="2.15" stroke-linejoin="round"/><polygon points="168.6,-136.4 132.0,-230.1 47.5,-243.3 -0.4,-162.9 36.1,-69.2 120.6,-56.0" fill="none" stroke="#111827" stroke-width="2.15" stroke-linejoin="round"/><polygon points="-9.6,627.0 -46.2,533.4 -130.7,520.1 -178.6,600.5 -142.1,694.2 -57.6,707.4" fill="none" stroke="#111827" stroke-width="2.15" stroke-linejoin="round"/><polygon points="-130.7,520.1 -167.2,426.5 -251.7,413.2 -299.6,493.6 -263.1,587.3 -178.6,600.5" fill="none" stroke="#111827" stroke-width="2.15" stroke-linejoin="round"/><polygon points="36.1,-69.2 -0.4,-162.9 -85.0,-176.1 -132.9,-95.7 -96.4,-2.1 -11.9,11.2" fill="none" stroke="#111827" stroke-width="2.15" stroke-linejoin="round"/><polygon points="364.9,773.7 328.4,680.0 243.9,666.8 195.9,747.2 232.4,840.8 316.9,854.1" fill="none" stroke="#111827" stroke-width="2.15" stroke-linejoin="round"/><polygon points="422.1,-96.7 385.6,-190.4 301.1,-203.6 253.1,-123.2 289.6,-29.5 374.1,-16.3" fill="none" stroke="#111827" stroke-width="2.15" stroke-linejoin="round"/><polygon points="785.3,224.0 748.8,130.4 664.2,117.1 616.3,197.5 652.8,291.2 737.3,304.5" fill="none" stroke="#111827" stroke-width="2.15" stroke-linejoin="round"/><polygon points="-107.8,172.0 -144.3,78.4 -228.8,65.1 -276.8,145.5 -240.3,239.2 -155.8,252.4" fill="none" stroke="#111827" stroke-width="2.15" stroke-linejoin="round"/><polygon points="111.4,733.9 74.9,640.3 -9.6,627.0 -57.6,707.4 -21.1,801.1 63.4,814.3" fill="none" stroke="#111827" stroke-width="2.15" stroke-linejoin="round"/><polygon points="629.9,639.4 593.3,545.7 508.8,532.4 460.8,612.8 497.4,706.5 581.9,719.8" fill="none" stroke="#111827" stroke-width="2.15" stroke-linejoin="round"/><polygon points="497.4,706.5 460.8,612.8 376.3,599.6 328.4,680.0 364.9,773.7 449.4,786.9" fill="none" stroke="#111827" stroke-width="2.15" stroke-linejoin="round"/><polygon points="-96.4,-2.1 -132.9,-95.7 -217.4,-108.9 -265.4,-28.5 -228.8,65.1 -144.3,78.4" fill="none" stroke="#111827" stroke-width="2.15" stroke-linejoin="round"/><polygon points="301.1,-203.6 264.5,-297.3 180.0,-310.5 132.0,-230.1 168.6,-136.4 253.1,-123.2" fill="none" stroke="#111827" stroke-width="2.15" stroke-linejoin="round"/><polygon points="652.8,291.2 616.3,197.5 531.7,184.3 483.7,264.7 520.3,358.4 604.8,371.6" fill="none" stroke="#111827" stroke-width="2.15" stroke-linejoin="round"/><polygon points="641.3,465.3 604.8,371.6 520.3,358.4 472.3,438.8 508.8,532.4 593.3,545.7" fill="none" stroke="#111827" stroke-width="2.15" stroke-linejoin="round"/><polygon points="-119.2,346.1 -155.8,252.4 -240.3,239.2 -288.2,319.6 -251.7,413.2 -167.2,426.5" fill="none" stroke="#111827" stroke-width="2.15" stroke-linejoin="round"/><polyline points="209.2,267.9 180.8,244.1" fill="none" stroke="#dc2626" stroke-width="3" stroke-linecap="round" stroke-linejoin="round"/><circle cx="180.8" cy="244.1" r="2.1" fill="#dc2626"/><circle cx="209.2" cy="267.9" r="6" fill="#2563eb" stroke="white" stroke-width="2"/><path d="M180.8,237.1 L187.8,244.1 L180.8,251.1 L173.8,244.1 Z" fill="#dc2626" stroke="white" stroke-width="2"/></g><text x="18" y="484" font-size="10.5" fill="#475569">● 시작 · ━ 정답 이동 · ◆ 현재 실제 위치</text><text x="18" y="503" font-size="10.5" fill="#475569">검정 점선 D1 · 검정 실선 알림 후보 셀</text></g><g transform="translate(408,105)"><rect x="0" y="0" width="390" height="520" rx="14" fill="#fff" stroke="#d8dee9"/><text x="18" y="28" font-size="18" font-weight="700" fill="#111827">B EXAONE 비개인화</text><text x="372" y="28" text-anchor="end" font-size="12" fill="#64748b">유효 · 평가 불필요</text><g clip-path="url(#map-clip)"><use href="#roads"/><polygon points="-637.6,440.7 -674.1,347.1 -758.6,333.8 -806.5,414.3 -770.0,507.9 -685.5,521.1" fill="rgb(230,85,13)" fill-opacity="0.117" stroke="none"/><polygon points="641.3,465.3 604.8,371.6 520.3,358.4 472.3,438.8 508.8,532.4 593.3,545.7" fill="rgb(230,85,13)" fill-opacity="0.117" stroke="none"/><polygon points="134.3,385.8 97.7,292.1 13.2,278.9 -34.7,359.3 1.8,452.9 86.3,466.2" fill="rgb(230,85,13)" fill-opacity="0.117" stroke="none"/><polygon points="-142.1,694.2 -178.6,600.5 -263.1,587.3 -311.1,667.7 -274.5,761.3 -190.0,774.6" fill="rgb(230,85,13)" fill-opacity="0.117" stroke="none"/><polygon points="342.0,1121.8 305.5,1028.1 221.0,1014.9 173.0,1095.3 209.5,1188.9 294.0,1202.2" fill="rgb(230,85,13)" fill-opacity="0.117" stroke="none"/><polygon points="-62.1,-524.3 -98.6,-617.9 -183.2,-631.1 -231.1,-550.7 -194.6,-457.1 -110.1,-443.8" fill="rgb(230,85,13)" fill-opacity="0.117" stroke="none"/><polygon points="1004.4,786.1 967.9,692.4 883.4,679.1 835.4,759.6 871.9,853.2 956.4,866.5" fill="rgb(230,85,13)" fill-opacity="0.117" stroke="none"/><polygon points="-21.1,801.1 -57.6,707.4 -142.1,694.2 -190.0,774.6 -153.5,868.2 -69.0,881.5" fill="rgb(230,85,13)" fill-opacity="0.117" stroke="none"/><polygon points="831.2,-472.3 794.6,-566.0 710.1,-579.2 662.1,-498.8 698.6,-405.1 783.2,-391.9" fill="rgb(230,85,13)" fill-opacity="0.117" stroke="none"/><polygon points="940.8,-191.3 904.2,-285.0 819.7,-298.2 771.7,-217.8 808.2,-124.1 892.8,-110.9" fill="rgb(230,85,13)" fill-opacity="0.117" stroke="none"/><polygon points="191.5,-484.6 154.9,-578.2 70.4,-591.5 22.4,-511.0 59.0,-417.4 143.5,-404.1" fill="rgb(230,85,13)" fill-opacity="0.133" stroke="none"/><polygon points="687.2,-231.1 650.6,-324.7 566.1,-338.0 518.1,-257.5 554.6,-163.9 639.2,-150.6" fill="rgb(230,85,13)" fill-opacity="0.133" stroke="none"/><polygon points="-73.5,-350.2 -110.1,-443.8 -194.6,-457.1 -242.5,-376.6 -206.0,-283.0 -121.5,-269.8" fill="rgb(230,85,13)" fill-opacity="0.137" stroke="none"/><polygon points="1027.4,437.9 990.9,344.2 906.3,331.0 858.4,411.4 894.9,505.1 979.4,518.3" fill="rgb(230,85,13)" fill-opacity="0.137" stroke="none"/><polygon points="1038.9,263.8 1002.4,170.1 917.8,156.9 869.8,237.3 906.3,331.0 990.9,344.2" fill="rgb(230,85,13)" fill-opacity="0.137" stroke="none"/><polygon points="-43.9,1149.2 -80.4,1055.5 -164.9,1042.3 -212.9,1122.7 -176.4,1216.3 -91.9,1229.6" fill="rgb(230,85,13)" fill-opacity="0.137" stroke="none"/><polygon points="243.9,666.8 207.3,573.1 122.8,559.8 74.9,640.3 111.4,733.9 195.9,747.2" fill="rgb(230,85,13)" fill-opacity="0.137" stroke="none"/><polygon points="-459.5,-322.7 -496.1,-416.3 -580.6,-429.5 -628.5,-349.1 -592.0,-255.5 -507.5,-242.3" fill="rgb(230,85,13)" fill-opacity="0.137" stroke="none"/><polygon points="929.3,-17.2 892.8,-110.9 808.2,-124.1 760.2,-43.7 796.8,50.0 881.3,63.2" fill="rgb(230,85,13)" fill-opacity="0.137" stroke="none"/><polygon points="433.6,-270.8 397.0,-364.4 312.5,-377.7 264.5,-297.3 301.1,-203.6 385.6,-190.4" fill="rgb(230,85,13)" fill-opacity="0.145" stroke="none"/><polygon points="819.7,-298.2 783.2,-391.9 698.6,-405.1 650.6,-324.7 687.2,-231.1 771.7,-217.8" fill="rgb(230,85,13)" fill-opacity="0.148" stroke="none"/><polygon points="566.1,-338.0 529.6,-431.6 445.0,-444.9 397.0,-364.4 433.6,-270.8 518.1,-257.5" fill="rgb(230,85,13)" fill-opacity="0.148" stroke="none"/><polygon points="-251.7,413.2 -288.2,319.6 -372.7,306.4 -420.7,386.8 -384.1,480.4 -299.6,493.6" fill="rgb(230,85,13)" fill-opacity="0.148" stroke="none"/><polygon points="-327.1,-389.9 -363.6,-483.5 -448.1,-496.7 -496.1,-416.3 -459.5,-322.7 -375.0,-309.4" fill="rgb(230,85,13)" fill-opacity="0.148" stroke="none"/><polygon points="-240.3,239.2 -276.8,145.5 -361.3,132.3 -409.3,212.7 -372.7,306.4 -288.2,319.6" fill="rgb(230,85,13)" fill-opacity="0.155" stroke="none"/><polygon points="-130.7,520.1 -167.2,426.5 -251.7,413.2 -299.6,493.6 -263.1,587.3 -178.6,600.5" fill="rgb(230,85,13)" fill-opacity="0.158" stroke="none"/><polygon points="698.6,-405.1 662.1,-498.8 577.6,-512.0 529.6,-431.6 566.1,-338.0 650.6,-324.7" fill="rgb(230,85,13)" fill-opacity="0.158" stroke="none"/><polygon points="894.9,505.1 858.4,411.4 773.8,398.1 725.8,478.5 762.4,572.2 846.9,585.5" fill="rgb(230,85,13)" fill-opacity="0.161" stroke="none"/><polygon points="-107.8,172.0 -144.3,78.4 -228.8,65.1 -276.8,145.5 -240.3,239.2 -155.8,252.4" fill="rgb(230,85,13)" fill-opacity="0.177" stroke="none"/><polygon points="-217.4,-108.9 -254.0,-202.6 -338.5,-215.8 -386.4,-135.4 -349.9,-41.8 -265.4,-28.5" fill="rgb(230,85,13)" fill-opacity="0.177" stroke="none"/><polygon points="808.2,-124.1 771.7,-217.8 687.2,-231.1 639.2,-150.6 675.7,-57.0 760.2,-43.7" fill="rgb(230,85,13)" fill-opacity="0.177" stroke="none"/><polygon points="796.8,50.0 760.2,-43.7 675.7,-57.0 627.7,23.5 664.2,117.1 748.8,130.4" fill="rgb(230,85,13)" fill-opacity="0.179" stroke="none"/><polygon points="47.5,-243.3 11.0,-337.0 -73.5,-350.2 -121.5,-269.8 -85.0,-176.1 -0.4,-162.9" fill="rgb(230,85,13)" fill-opacity="0.179" stroke="none"/><polygon points="180.0,-310.5 143.5,-404.1 59.0,-417.4 11.0,-337.0 47.5,-243.3 132.0,-230.1" fill="rgb(230,85,13)" fill-opacity="0.184" stroke="none"/><polygon points="629.9,639.4 593.3,545.7 508.8,532.4 460.8,612.8 497.4,706.5 581.9,719.8" fill="rgb(230,85,13)" fill-opacity="0.186" stroke="none"/><polygon points="906.3,331.0 869.8,237.3 785.3,224.0 737.3,304.5 773.8,398.1 858.4,411.4" fill="rgb(230,85,13)" fill-opacity="0.186" stroke="none"/><polygon points="289.6,-29.5 253.1,-123.2 168.6,-136.4 120.6,-56.0 157.1,37.6 241.7,50.9" fill="rgb(230,85,13)" fill-opacity="0.190" stroke="none"/><polygon points="554.6,-163.9 518.1,-257.5 433.6,-270.8 385.6,-190.4 422.1,-96.7 506.7,-83.5" fill="rgb(230,85,13)" fill-opacity="0.192" stroke="none"/><polygon points="59.0,-417.4 22.4,-511.0 -62.1,-524.3 -110.1,-443.8 -73.5,-350.2 11.0,-337.0" fill="rgb(230,85,13)" fill-opacity="0.199" stroke="none"/><polygon points="762.4,572.2 725.8,478.5 641.3,465.3 593.3,545.7 629.9,639.4 714.4,652.6" fill="rgb(230,85,13)" fill-opacity="0.200" stroke="none"/><polygon points="485.9,880.6 449.4,786.9 364.9,773.7 316.9,854.1 353.4,947.7 437.9,961.0" fill="rgb(230,85,13)" fill-opacity="0.200" stroke="none"/><polygon points="-85.0,-176.1 -121.5,-269.8 -206.0,-283.0 -254.0,-202.6 -217.4,-108.9 -132.9,-95.7" fill="rgb(230,85,13)" fill-opacity="0.200" stroke="none"/><polygon points="1.8,452.9 -34.7,359.3 -119.2,346.1 -167.2,426.5 -130.7,520.1 -46.2,533.4" fill="rgb(230,85,13)" fill-opacity="0.204" stroke="none"/><polygon points="883.4,679.1 846.9,585.5 762.4,572.2 714.4,652.6 750.9,746.3 835.4,759.6" fill="rgb(230,85,13)" fill-opacity="0.204" stroke="none"/><polygon points="543.2,10.2 506.7,-83.5 422.1,-96.7 374.1,-16.3 410.7,77.4 495.2,90.6" fill="rgb(230,85,13)" fill-opacity="0.206" stroke="none"/><polygon points="675.7,-57.0 639.2,-150.6 554.6,-163.9 506.7,-83.5 543.2,10.2 627.7,23.5" fill="rgb(230,85,13)" fill-opacity="0.206" stroke="none"/><polygon points="-9.6,627.0 -46.2,533.4 -130.7,520.1 -178.6,600.5 -142.1,694.2 -57.6,707.4" fill="rgb(230,85,13)" fill-opacity="0.210" stroke="none"/><polygon points="-206.0,-283.0 -242.5,-376.6 -327.1,-389.9 -375.0,-309.4 -338.5,-215.8 -254.0,-202.6" fill="rgb(230,85,13)" fill-opacity="0.213" stroke="none"/><polygon points="111.4,733.9 74.9,640.3 -9.6,627.0 -57.6,707.4 -21.1,801.1 63.4,814.3" fill="rgb(230,85,13)" fill-opacity="0.217" stroke="none"/><polygon points="785.3,224.0 748.8,130.4 664.2,117.1 616.3,197.5 652.8,291.2 737.3,304.5" fill="rgb(230,85,13)" fill-opacity="0.217" stroke="none"/><polygon points="353.4,947.7 316.9,854.1 232.4,840.8 184.4,921.2 221.0,1014.9 305.5,1028.1" fill="rgb(230,85,13)" fill-opacity="0.217" stroke="none"/><polygon points="364.9,773.7 328.4,680.0 243.9,666.8 195.9,747.2 232.4,840.8 316.9,854.1" fill="rgb(230,85,13)" fill-opacity="0.224" stroke="none"/><polygon points="-119.2,346.1 -155.8,252.4 -240.3,239.2 -288.2,319.6 -251.7,413.2 -167.2,426.5" fill="rgb(230,85,13)" fill-opacity="0.227" stroke="none"/><polygon points="36.1,-69.2 -0.4,-162.9 -85.0,-176.1 -132.9,-95.7 -96.4,-2.1 -11.9,11.2" fill="rgb(230,85,13)" fill-opacity="0.240" stroke="none"/><polygon points="24.7,104.8 -11.9,11.2 -96.4,-2.1 -144.3,78.4 -107.8,172.0 -23.3,185.2" fill="rgb(230,85,13)" fill-opacity="0.253" stroke="none"/><polygon points="301.1,-203.6 264.5,-297.3 180.0,-310.5 132.0,-230.1 168.6,-136.4 253.1,-123.2" fill="rgb(230,85,13)" fill-opacity="0.258" stroke="none"/><polygon points="-96.4,-2.1 -132.9,-95.7 -217.4,-108.9 -265.4,-28.5 -228.8,65.1 -144.3,78.4" fill="rgb(230,85,13)" fill-opacity="0.275" stroke="none"/><polygon points="773.8,398.1 737.3,304.5 652.8,291.2 604.8,371.6 641.3,465.3 725.8,478.5" fill="rgb(230,85,13)" fill-opacity="0.276" stroke="none"/><polygon points="422.1,-96.7 385.6,-190.4 301.1,-203.6 253.1,-123.2 289.6,-29.5 374.1,-16.3" fill="rgb(230,85,13)" fill-opacity="0.277" stroke="none"/><polygon points="652.8,291.2 616.3,197.5 531.7,184.3 483.7,264.7 520.3,358.4 604.8,371.6" fill="rgb(230,85,13)" fill-opacity="0.281" stroke="none"/><polygon points="520.3,358.4 483.7,264.7 399.2,251.5 351.3,331.9 387.8,425.5 472.3,438.8" fill="rgb(230,85,13)" fill-opacity="0.282" stroke="none"/><polygon points="376.3,599.6 339.8,505.9 255.3,492.7 207.3,573.1 243.9,666.8 328.4,680.0" fill="rgb(230,85,13)" fill-opacity="0.283" stroke="none"/><polygon points="13.2,278.9 -23.3,185.2 -107.8,172.0 -155.8,252.4 -119.2,346.1 -34.7,359.3" fill="rgb(230,85,13)" fill-opacity="0.289" stroke="none"/><polygon points="531.7,184.3 495.2,90.6 410.7,77.4 362.7,157.8 399.2,251.5 483.7,264.7" fill="rgb(230,85,13)" fill-opacity="0.299" stroke="none"/><polygon points="157.1,37.6 120.6,-56.0 36.1,-69.2 -11.9,11.2 24.7,104.8 109.2,118.1" fill="rgb(230,85,13)" fill-opacity="0.308" stroke="none"/><polygon points="122.8,559.8 86.3,466.2 1.8,452.9 -46.2,533.4 -9.6,627.0 74.9,640.3" fill="rgb(230,85,13)" fill-opacity="0.335" stroke="none"/><polygon points="497.4,706.5 460.8,612.8 376.3,599.6 328.4,680.0 364.9,773.7 449.4,786.9" fill="rgb(230,85,13)" fill-opacity="0.336" stroke="none"/><polygon points="664.2,117.1 627.7,23.5 543.2,10.2 495.2,90.6 531.7,184.3 616.3,197.5" fill="rgb(230,85,13)" fill-opacity="0.360" stroke="none"/><polygon points="508.8,532.4 472.3,438.8 387.8,425.5 339.8,505.9 376.3,599.6 460.8,612.8" fill="rgb(230,85,13)" fill-opacity="0.381" stroke="none"/><polygon points="410.7,77.4 374.1,-16.3 289.6,-29.5 241.7,50.9 278.2,144.5 362.7,157.8" fill="rgb(230,85,13)" fill-opacity="0.387" stroke="none"/><polygon points="387.8,425.5 351.3,331.9 266.7,318.6 218.8,399.0 255.3,492.7 339.8,505.9" fill="rgb(230,85,13)" fill-opacity="0.500" stroke="none"/><polygon points="145.7,211.7 109.2,118.1 24.7,104.8 -23.3,185.2 13.2,278.9 97.7,292.1" fill="rgb(230,85,13)" fill-opacity="0.510" stroke="none"/><polygon points="266.7,318.6 230.2,225.0 145.7,211.7 97.7,292.1 134.3,385.8 218.8,399.0" fill="rgb(230,85,13)" fill-opacity="0.613" stroke="none"/><polygon points="399.2,251.5 362.7,157.8 278.2,144.5 230.2,225.0 266.7,318.6 351.3,331.9" fill="rgb(230,85,13)" fill-opacity="0.700" stroke="none"/><polygon points="24.7,104.8 -11.9,11.2 -96.4,-2.1 -144.3,78.4 -107.8,172.0 -23.3,185.2" fill="none" stroke="#111827" stroke-width="1.35" stroke-dasharray="4 3" stroke-linejoin="round"/><polygon points="266.7,318.6 230.2,225.0 145.7,211.7 97.7,292.1 134.3,385.8 218.8,399.0" fill="none" stroke="#111827" stroke-width="1.35" stroke-dasharray="4 3" stroke-linejoin="round"/><polygon points="289.6,-29.5 253.1,-123.2 168.6,-136.4 120.6,-56.0 157.1,37.6 241.7,50.9" fill="none" stroke="#111827" stroke-width="1.35" stroke-dasharray="4 3" stroke-linejoin="round"/><polygon points="531.7,184.3 495.2,90.6 410.7,77.4 362.7,157.8 399.2,251.5 483.7,264.7" fill="none" stroke="#111827" stroke-width="1.35" stroke-dasharray="4 3" stroke-linejoin="round"/><polygon points="255.3,492.7 218.8,399.0 134.3,385.8 86.3,466.2 122.8,559.8 207.3,573.1" fill="none" stroke="#111827" stroke-width="1.35" stroke-dasharray="4 3" stroke-linejoin="round"/><polygon points="13.2,278.9 -23.3,185.2 -107.8,172.0 -155.8,252.4 -119.2,346.1 -34.7,359.3" fill="none" stroke="#111827" stroke-width="1.35" stroke-dasharray="4 3" stroke-linejoin="round"/><polygon points="243.9,666.8 207.3,573.1 122.8,559.8 74.9,640.3 111.4,733.9 195.9,747.2" fill="none" stroke="#111827" stroke-width="1.35" stroke-dasharray="4 3" stroke-linejoin="round"/><polygon points="157.1,37.6 120.6,-56.0 36.1,-69.2 -11.9,11.2 24.7,104.8 109.2,118.1" fill="none" stroke="#111827" stroke-width="1.35" stroke-dasharray="4 3" stroke-linejoin="round"/><polygon points="376.3,599.6 339.8,505.9 255.3,492.7 207.3,573.1 243.9,666.8 328.4,680.0" fill="none" stroke="#111827" stroke-width="1.35" stroke-dasharray="4 3" stroke-linejoin="round"/><polygon points="122.8,559.8 86.3,466.2 1.8,452.9 -46.2,533.4 -9.6,627.0 74.9,640.3" fill="none" stroke="#111827" stroke-width="1.35" stroke-dasharray="4 3" stroke-linejoin="round"/><polygon points="387.8,425.5 351.3,331.9 266.7,318.6 218.8,399.0 255.3,492.7 339.8,505.9" fill="none" stroke="#111827" stroke-width="1.35" stroke-dasharray="4 3" stroke-linejoin="round"/><polygon points="410.7,77.4 374.1,-16.3 289.6,-29.5 241.7,50.9 278.2,144.5 362.7,157.8" fill="none" stroke="#111827" stroke-width="1.35" stroke-dasharray="4 3" stroke-linejoin="round"/><polygon points="508.8,532.4 472.3,438.8 387.8,425.5 339.8,505.9 376.3,599.6 460.8,612.8" fill="none" stroke="#111827" stroke-width="1.35" stroke-dasharray="4 3" stroke-linejoin="round"/><polygon points="278.2,144.5 241.7,50.9 157.1,37.6 109.2,118.1 145.7,211.7 230.2,225.0" fill="none" stroke="#111827" stroke-width="1.35" stroke-dasharray="4 3" stroke-linejoin="round"/><polygon points="520.3,358.4 483.7,264.7 399.2,251.5 351.3,331.9 387.8,425.5 472.3,438.8" fill="none" stroke="#111827" stroke-width="1.35" stroke-dasharray="4 3" stroke-linejoin="round"/><polygon points="399.2,251.5 362.7,157.8 278.2,144.5 230.2,225.0 266.7,318.6 351.3,331.9" fill="none" stroke="#111827" stroke-width="1.35" stroke-dasharray="4 3" stroke-linejoin="round"/><polygon points="1.8,452.9 -34.7,359.3 -119.2,346.1 -167.2,426.5 -130.7,520.1 -46.2,533.4" fill="none" stroke="#111827" stroke-width="1.35" stroke-dasharray="4 3" stroke-linejoin="round"/><polygon points="134.3,385.8 97.7,292.1 13.2,278.9 -34.7,359.3 1.8,452.9 86.3,466.2" fill="none" stroke="#111827" stroke-width="1.35" stroke-dasharray="4 3" stroke-linejoin="round"/><polygon points="145.7,211.7 109.2,118.1 24.7,104.8 -23.3,185.2 13.2,278.9 97.7,292.1" fill="none" stroke="#111827" stroke-width="1.35" stroke-dasharray="4 3" stroke-linejoin="round"/><polygon points="543.2,10.2 506.7,-83.5 422.1,-96.7 374.1,-16.3 410.7,77.4 495.2,90.6" fill="none" stroke="#111827" stroke-width="2.15" stroke-linejoin="round"/><polygon points="675.7,-57.0 639.2,-150.6 554.6,-163.9 506.7,-83.5 543.2,10.2 627.7,23.5" fill="none" stroke="#111827" stroke-width="2.15" stroke-linejoin="round"/><polygon points="773.8,398.1 737.3,304.5 652.8,291.2 604.8,371.6 641.3,465.3 725.8,478.5" fill="none" stroke="#111827" stroke-width="2.15" stroke-linejoin="round"/><polygon points="664.2,117.1 627.7,23.5 543.2,10.2 495.2,90.6 531.7,184.3 616.3,197.5" fill="none" stroke="#111827" stroke-width="2.15" stroke-linejoin="round"/><polygon points="-9.6,627.0 -46.2,533.4 -130.7,520.1 -178.6,600.5 -142.1,694.2 -57.6,707.4" fill="none" stroke="#111827" stroke-width="2.15" stroke-linejoin="round"/><polygon points="36.1,-69.2 -0.4,-162.9 -85.0,-176.1 -132.9,-95.7 -96.4,-2.1 -11.9,11.2" fill="none" stroke="#111827" stroke-width="2.15" stroke-linejoin="round"/><polygon points="762.4,572.2 725.8,478.5 641.3,465.3 593.3,545.7 629.9,639.4 714.4,652.6" fill="none" stroke="#111827" stroke-width="2.15" stroke-linejoin="round"/><polygon points="353.4,947.7 316.9,854.1 232.4,840.8 184.4,921.2 221.0,1014.9 305.5,1028.1" fill="none" stroke="#111827" stroke-width="2.15" stroke-linejoin="round"/><polygon points="364.9,773.7 328.4,680.0 243.9,666.8 195.9,747.2 232.4,840.8 316.9,854.1" fill="none" stroke="#111827" stroke-width="2.15" stroke-linejoin="round"/><polygon points="422.1,-96.7 385.6,-190.4 301.1,-203.6 253.1,-123.2 289.6,-29.5 374.1,-16.3" fill="none" stroke="#111827" stroke-width="2.15" stroke-linejoin="round"/><polygon points="785.3,224.0 748.8,130.4 664.2,117.1 616.3,197.5 652.8,291.2 737.3,304.5" fill="none" stroke="#111827" stroke-width="2.15" stroke-linejoin="round"/><polygon points="111.4,733.9 74.9,640.3 -9.6,627.0 -57.6,707.4 -21.1,801.1 63.4,814.3" fill="none" stroke="#111827" stroke-width="2.15" stroke-linejoin="round"/><polygon points="497.4,706.5 460.8,612.8 376.3,599.6 328.4,680.0 364.9,773.7 449.4,786.9" fill="none" stroke="#111827" stroke-width="2.15" stroke-linejoin="round"/><polygon points="-96.4,-2.1 -132.9,-95.7 -217.4,-108.9 -265.4,-28.5 -228.8,65.1 -144.3,78.4" fill="none" stroke="#111827" stroke-width="2.15" stroke-linejoin="round"/><polygon points="883.4,679.1 846.9,585.5 762.4,572.2 714.4,652.6 750.9,746.3 835.4,759.6" fill="none" stroke="#111827" stroke-width="2.15" stroke-linejoin="round"/><polygon points="301.1,-203.6 264.5,-297.3 180.0,-310.5 132.0,-230.1 168.6,-136.4 253.1,-123.2" fill="none" stroke="#111827" stroke-width="2.15" stroke-linejoin="round"/><polygon points="-206.0,-283.0 -242.5,-376.6 -327.1,-389.9 -375.0,-309.4 -338.5,-215.8 -254.0,-202.6" fill="none" stroke="#111827" stroke-width="2.15" stroke-linejoin="round"/><polygon points="652.8,291.2 616.3,197.5 531.7,184.3 483.7,264.7 520.3,358.4 604.8,371.6" fill="none" stroke="#111827" stroke-width="2.15" stroke-linejoin="round"/><polygon points="-119.2,346.1 -155.8,252.4 -240.3,239.2 -288.2,319.6 -251.7,413.2 -167.2,426.5" fill="none" stroke="#111827" stroke-width="2.15" stroke-linejoin="round"/><polyline points="209.2,267.9 180.8,244.1" fill="none" stroke="#dc2626" stroke-width="3" stroke-linecap="round" stroke-linejoin="round"/><circle cx="180.8" cy="244.1" r="2.1" fill="#dc2626"/><circle cx="209.2" cy="267.9" r="6" fill="#2563eb" stroke="white" stroke-width="2"/><path d="M180.8,237.1 L187.8,244.1 L180.8,251.1 L173.8,244.1 Z" fill="#dc2626" stroke="white" stroke-width="2"/></g><text x="18" y="484" font-size="10.5" fill="#475569">● 시작 · ━ 정답 이동 · ◆ 현재 실제 위치</text><text x="18" y="503" font-size="10.5" fill="#475569">검정 점선 D1 · 검정 실선 알림 후보 셀</text></g><g transform="translate(816,105)"><rect x="0" y="0" width="390" height="520" rx="14" fill="#fff" stroke="#d8dee9"/><text x="18" y="28" font-size="18" font-weight="700" fill="#111827">C EXAONE 개인화</text><text x="372" y="28" text-anchor="end" font-size="12" fill="#64748b">유효 · 평가 불필요</text><g clip-path="url(#map-clip)"><use href="#roads"/><polygon points="-73.5,-350.2 -110.1,-443.8 -194.6,-457.1 -242.5,-376.6 -206.0,-283.0 -121.5,-269.8" fill="rgb(35,139,69)" fill-opacity="0.108" stroke="none"/><polygon points="543.2,10.2 506.7,-83.5 422.1,-96.7 374.1,-16.3 410.7,77.4 495.2,90.6" fill="rgb(35,139,69)" fill-opacity="0.108" stroke="none"/><polygon points="474.5,1054.7 437.9,961.0 353.4,947.7 305.5,1028.1 342.0,1121.8 426.5,1135.1" fill="rgb(35,139,69)" fill-opacity="0.108" stroke="none"/><polygon points="1.8,452.9 -34.7,359.3 -119.2,346.1 -167.2,426.5 -130.7,520.1 -46.2,533.4" fill="rgb(35,139,69)" fill-opacity="0.108" stroke="none"/><polygon points="894.9,505.1 858.4,411.4 773.8,398.1 725.8,478.5 762.4,572.2 846.9,585.5" fill="rgb(35,139,69)" fill-opacity="0.108" stroke="none"/><polygon points="168.6,-136.4 132.0,-230.1 47.5,-243.3 -0.4,-162.9 36.1,-69.2 120.6,-56.0" fill="rgb(35,139,69)" fill-opacity="0.108" stroke="none"/><polygon points="917.8,156.9 881.3,63.2 796.8,50.0 748.8,130.4 785.3,224.0 869.8,237.3" fill="rgb(35,139,69)" fill-opacity="0.108" stroke="none"/><polygon points="-85.0,-176.1 -121.5,-269.8 -206.0,-283.0 -254.0,-202.6 -217.4,-108.9 -132.9,-95.7" fill="rgb(35,139,69)" fill-opacity="0.108" stroke="none"/><polygon points="312.5,-377.7 276.0,-471.3 191.5,-484.6 143.5,-404.1 180.0,-310.5 264.5,-297.3" fill="rgb(35,139,69)" fill-opacity="0.119" stroke="none"/><polygon points="750.9,746.3 714.4,652.6 629.9,639.4 581.9,719.8 618.4,813.4 702.9,826.7" fill="rgb(35,139,69)" fill-opacity="0.123" stroke="none"/><polygon points="618.4,813.4 581.9,719.8 497.4,706.5 449.4,786.9 485.9,880.6 570.4,893.8" fill="rgb(35,139,69)" fill-opacity="0.123" stroke="none"/><polygon points="232.4,840.8 195.9,747.2 111.4,733.9 63.4,814.3 100.0,908.0 184.4,921.2" fill="rgb(35,139,69)" fill-opacity="0.123" stroke="none"/><polygon points="785.3,224.0 748.8,130.4 664.2,117.1 616.3,197.5 652.8,291.2 737.3,304.5" fill="rgb(35,139,69)" fill-opacity="0.123" stroke="none"/><polygon points="289.6,-29.5 253.1,-123.2 168.6,-136.4 120.6,-56.0 157.1,37.6 241.7,50.9" fill="rgb(35,139,69)" fill-opacity="0.123" stroke="none"/><polygon points="808.2,-124.1 771.7,-217.8 687.2,-231.1 639.2,-150.6 675.7,-57.0 760.2,-43.7" fill="rgb(35,139,69)" fill-opacity="0.123" stroke="none"/><polygon points="134.3,385.8 97.7,292.1 13.2,278.9 -34.7,359.3 1.8,452.9 86.3,466.2" fill="rgb(35,139,69)" fill-opacity="0.131" stroke="none"/><polygon points="675.7,-57.0 639.2,-150.6 554.6,-163.9 506.7,-83.5 543.2,10.2 627.7,23.5" fill="rgb(35,139,69)" fill-opacity="0.131" stroke="none"/><polygon points="-119.2,346.1 -155.8,252.4 -240.3,239.2 -288.2,319.6 -251.7,413.2 -167.2,426.5" fill="rgb(35,139,69)" fill-opacity="0.138" stroke="none"/><polygon points="554.6,-163.9 518.1,-257.5 433.6,-270.8 385.6,-190.4 422.1,-96.7 506.7,-83.5" fill="rgb(35,139,69)" fill-opacity="0.138" stroke="none"/><polygon points="301.1,-203.6 264.5,-297.3 180.0,-310.5 132.0,-230.1 168.6,-136.4 253.1,-123.2" fill="rgb(35,139,69)" fill-opacity="0.140" stroke="none"/><polygon points="773.8,398.1 737.3,304.5 652.8,291.2 604.8,371.6 641.3,465.3 725.8,478.5" fill="rgb(35,139,69)" fill-opacity="0.144" stroke="none"/><polygon points="36.1,-69.2 -0.4,-162.9 -85.0,-176.1 -132.9,-95.7 -96.4,-2.1 -11.9,11.2" fill="rgb(35,139,69)" fill-opacity="0.144" stroke="none"/><polygon points="-9.6,627.0 -46.2,533.4 -130.7,520.1 -178.6,600.5 -142.1,694.2 -57.6,707.4" fill="rgb(35,139,69)" fill-opacity="0.146" stroke="none"/><polygon points="47.5,-243.3 11.0,-337.0 -73.5,-350.2 -121.5,-269.8 -85.0,-176.1 -0.4,-162.9" fill="rgb(35,139,69)" fill-opacity="0.146" stroke="none"/><polygon points="24.7,104.8 -11.9,11.2 -96.4,-2.1 -144.3,78.4 -107.8,172.0 -23.3,185.2" fill="rgb(35,139,69)" fill-opacity="0.146" stroke="none"/><polygon points="422.1,-96.7 385.6,-190.4 301.1,-203.6 253.1,-123.2 289.6,-29.5 374.1,-16.3" fill="rgb(35,139,69)" fill-opacity="0.152" stroke="none"/><polygon points="-96.4,-2.1 -132.9,-95.7 -217.4,-108.9 -265.4,-28.5 -228.8,65.1 -144.3,78.4" fill="rgb(35,139,69)" fill-opacity="0.154" stroke="none"/><polygon points="652.8,291.2 616.3,197.5 531.7,184.3 483.7,264.7 520.3,358.4 604.8,371.6" fill="rgb(35,139,69)" fill-opacity="0.164" stroke="none"/><polygon points="353.4,947.7 316.9,854.1 232.4,840.8 184.4,921.2 221.0,1014.9 305.5,1028.1" fill="rgb(35,139,69)" fill-opacity="0.167" stroke="none"/><polygon points="883.4,679.1 846.9,585.5 762.4,572.2 714.4,652.6 750.9,746.3 835.4,759.6" fill="rgb(35,139,69)" fill-opacity="0.169" stroke="none"/><polygon points="664.2,117.1 627.7,23.5 543.2,10.2 495.2,90.6 531.7,184.3 616.3,197.5" fill="rgb(35,139,69)" fill-opacity="0.174" stroke="none"/><polygon points="13.2,278.9 -23.3,185.2 -107.8,172.0 -155.8,252.4 -119.2,346.1 -34.7,359.3" fill="rgb(35,139,69)" fill-opacity="0.175" stroke="none"/><polygon points="520.3,358.4 483.7,264.7 399.2,251.5 351.3,331.9 387.8,425.5 472.3,438.8" fill="rgb(35,139,69)" fill-opacity="0.178" stroke="none"/><polygon points="629.9,639.4 593.3,545.7 508.8,532.4 460.8,612.8 497.4,706.5 581.9,719.8" fill="rgb(35,139,69)" fill-opacity="0.184" stroke="none"/><polygon points="485.9,880.6 449.4,786.9 364.9,773.7 316.9,854.1 353.4,947.7 437.9,961.0" fill="rgb(35,139,69)" fill-opacity="0.190" stroke="none"/><polygon points="111.4,733.9 74.9,640.3 -9.6,627.0 -57.6,707.4 -21.1,801.1 63.4,814.3" fill="rgb(35,139,69)" fill-opacity="0.194" stroke="none"/><polygon points="531.7,184.3 495.2,90.6 410.7,77.4 362.7,157.8 399.2,251.5 483.7,264.7" fill="rgb(35,139,69)" fill-opacity="0.204" stroke="none"/><polygon points="157.1,37.6 120.6,-56.0 36.1,-69.2 -11.9,11.2 24.7,104.8 109.2,118.1" fill="rgb(35,139,69)" fill-opacity="0.209" stroke="none"/><polygon points="122.8,559.8 86.3,466.2 1.8,452.9 -46.2,533.4 -9.6,627.0 74.9,640.3" fill="rgb(35,139,69)" fill-opacity="0.227" stroke="none"/><polygon points="410.7,77.4 374.1,-16.3 289.6,-29.5 241.7,50.9 278.2,144.5 362.7,157.8" fill="rgb(35,139,69)" fill-opacity="0.249" stroke="none"/><polygon points="145.7,211.7 109.2,118.1 24.7,104.8 -23.3,185.2 13.2,278.9 97.7,292.1" fill="rgb(35,139,69)" fill-opacity="0.273" stroke="none"/><polygon points="508.8,532.4 472.3,438.8 387.8,425.5 339.8,505.9 376.3,599.6 460.8,612.8" fill="rgb(35,139,69)" fill-opacity="0.290" stroke="none"/><polygon points="376.3,599.6 339.8,505.9 255.3,492.7 207.3,573.1 243.9,666.8 328.4,680.0" fill="rgb(35,139,69)" fill-opacity="0.318" stroke="none"/><polygon points="364.9,773.7 328.4,680.0 243.9,666.8 195.9,747.2 232.4,840.8 316.9,854.1" fill="rgb(35,139,69)" fill-opacity="0.322" stroke="none"/><polygon points="399.2,251.5 362.7,157.8 278.2,144.5 230.2,225.0 266.7,318.6 351.3,331.9" fill="rgb(35,139,69)" fill-opacity="0.439" stroke="none"/><polygon points="497.4,706.5 460.8,612.8 376.3,599.6 328.4,680.0 364.9,773.7 449.4,786.9" fill="rgb(35,139,69)" fill-opacity="0.488" stroke="none"/><polygon points="387.8,425.5 351.3,331.9 266.7,318.6 218.8,399.0 255.3,492.7 339.8,505.9" fill="rgb(35,139,69)" fill-opacity="0.506" stroke="none"/><polygon points="266.7,318.6 230.2,225.0 145.7,211.7 97.7,292.1 134.3,385.8 218.8,399.0" fill="rgb(35,139,69)" fill-opacity="0.700" stroke="none"/><polygon points="24.7,104.8 -11.9,11.2 -96.4,-2.1 -144.3,78.4 -107.8,172.0 -23.3,185.2" fill="none" stroke="#111827" stroke-width="1.35" stroke-dasharray="4 3" stroke-linejoin="round"/><polygon points="266.7,318.6 230.2,225.0 145.7,211.7 97.7,292.1 134.3,385.8 218.8,399.0" fill="none" stroke="#111827" stroke-width="1.35" stroke-dasharray="4 3" stroke-linejoin="round"/><polygon points="289.6,-29.5 253.1,-123.2 168.6,-136.4 120.6,-56.0 157.1,37.6 241.7,50.9" fill="none" stroke="#111827" stroke-width="1.35" stroke-dasharray="4 3" stroke-linejoin="round"/><polygon points="531.7,184.3 495.2,90.6 410.7,77.4 362.7,157.8 399.2,251.5 483.7,264.7" fill="none" stroke="#111827" stroke-width="1.35" stroke-dasharray="4 3" stroke-linejoin="round"/><polygon points="255.3,492.7 218.8,399.0 134.3,385.8 86.3,466.2 122.8,559.8 207.3,573.1" fill="none" stroke="#111827" stroke-width="1.35" stroke-dasharray="4 3" stroke-linejoin="round"/><polygon points="13.2,278.9 -23.3,185.2 -107.8,172.0 -155.8,252.4 -119.2,346.1 -34.7,359.3" fill="none" stroke="#111827" stroke-width="1.35" stroke-dasharray="4 3" stroke-linejoin="round"/><polygon points="243.9,666.8 207.3,573.1 122.8,559.8 74.9,640.3 111.4,733.9 195.9,747.2" fill="none" stroke="#111827" stroke-width="1.35" stroke-dasharray="4 3" stroke-linejoin="round"/><polygon points="157.1,37.6 120.6,-56.0 36.1,-69.2 -11.9,11.2 24.7,104.8 109.2,118.1" fill="none" stroke="#111827" stroke-width="1.35" stroke-dasharray="4 3" stroke-linejoin="round"/><polygon points="376.3,599.6 339.8,505.9 255.3,492.7 207.3,573.1 243.9,666.8 328.4,680.0" fill="none" stroke="#111827" stroke-width="1.35" stroke-dasharray="4 3" stroke-linejoin="round"/><polygon points="122.8,559.8 86.3,466.2 1.8,452.9 -46.2,533.4 -9.6,627.0 74.9,640.3" fill="none" stroke="#111827" stroke-width="1.35" stroke-dasharray="4 3" stroke-linejoin="round"/><polygon points="387.8,425.5 351.3,331.9 266.7,318.6 218.8,399.0 255.3,492.7 339.8,505.9" fill="none" stroke="#111827" stroke-width="1.35" stroke-dasharray="4 3" stroke-linejoin="round"/><polygon points="410.7,77.4 374.1,-16.3 289.6,-29.5 241.7,50.9 278.2,144.5 362.7,157.8" fill="none" stroke="#111827" stroke-width="1.35" stroke-dasharray="4 3" stroke-linejoin="round"/><polygon points="508.8,532.4 472.3,438.8 387.8,425.5 339.8,505.9 376.3,599.6 460.8,612.8" fill="none" stroke="#111827" stroke-width="1.35" stroke-dasharray="4 3" stroke-linejoin="round"/><polygon points="278.2,144.5 241.7,50.9 157.1,37.6 109.2,118.1 145.7,211.7 230.2,225.0" fill="none" stroke="#111827" stroke-width="1.35" stroke-dasharray="4 3" stroke-linejoin="round"/><polygon points="520.3,358.4 483.7,264.7 399.2,251.5 351.3,331.9 387.8,425.5 472.3,438.8" fill="none" stroke="#111827" stroke-width="1.35" stroke-dasharray="4 3" stroke-linejoin="round"/><polygon points="399.2,251.5 362.7,157.8 278.2,144.5 230.2,225.0 266.7,318.6 351.3,331.9" fill="none" stroke="#111827" stroke-width="1.35" stroke-dasharray="4 3" stroke-linejoin="round"/><polygon points="1.8,452.9 -34.7,359.3 -119.2,346.1 -167.2,426.5 -130.7,520.1 -46.2,533.4" fill="none" stroke="#111827" stroke-width="1.35" stroke-dasharray="4 3" stroke-linejoin="round"/><polygon points="134.3,385.8 97.7,292.1 13.2,278.9 -34.7,359.3 1.8,452.9 86.3,466.2" fill="none" stroke="#111827" stroke-width="1.35" stroke-dasharray="4 3" stroke-linejoin="round"/><polygon points="145.7,211.7 109.2,118.1 24.7,104.8 -23.3,185.2 13.2,278.9 97.7,292.1" fill="none" stroke="#111827" stroke-width="1.35" stroke-dasharray="4 3" stroke-linejoin="round"/><polygon points="675.7,-57.0 639.2,-150.6 554.6,-163.9 506.7,-83.5 543.2,10.2 627.7,23.5" fill="none" stroke="#111827" stroke-width="2.15" stroke-linejoin="round"/><polygon points="485.9,880.6 449.4,786.9 364.9,773.7 316.9,854.1 353.4,947.7 437.9,961.0" fill="none" stroke="#111827" stroke-width="2.15" stroke-linejoin="round"/><polygon points="773.8,398.1 737.3,304.5 652.8,291.2 604.8,371.6 641.3,465.3 725.8,478.5" fill="none" stroke="#111827" stroke-width="2.15" stroke-linejoin="round"/><polygon points="664.2,117.1 627.7,23.5 543.2,10.2 495.2,90.6 531.7,184.3 616.3,197.5" fill="none" stroke="#111827" stroke-width="2.15" stroke-linejoin="round"/><polygon points="-9.6,627.0 -46.2,533.4 -130.7,520.1 -178.6,600.5 -142.1,694.2 -57.6,707.4" fill="none" stroke="#111827" stroke-width="2.15" stroke-linejoin="round"/><polygon points="36.1,-69.2 -0.4,-162.9 -85.0,-176.1 -132.9,-95.7 -96.4,-2.1 -11.9,11.2" fill="none" stroke="#111827" stroke-width="2.15" stroke-linejoin="round"/><polygon points="353.4,947.7 316.9,854.1 232.4,840.8 184.4,921.2 221.0,1014.9 305.5,1028.1" fill="none" stroke="#111827" stroke-width="2.15" stroke-linejoin="round"/><polygon points="364.9,773.7 328.4,680.0 243.9,666.8 195.9,747.2 232.4,840.8 316.9,854.1" fill="none" stroke="#111827" stroke-width="2.15" stroke-linejoin="round"/><polygon points="422.1,-96.7 385.6,-190.4 301.1,-203.6 253.1,-123.2 289.6,-29.5 374.1,-16.3" fill="none" stroke="#111827" stroke-width="2.15" stroke-linejoin="round"/><polygon points="111.4,733.9 74.9,640.3 -9.6,627.0 -57.6,707.4 -21.1,801.1 63.4,814.3" fill="none" stroke="#111827" stroke-width="2.15" stroke-linejoin="round"/><polygon points="629.9,639.4 593.3,545.7 508.8,532.4 460.8,612.8 497.4,706.5 581.9,719.8" fill="none" stroke="#111827" stroke-width="2.15" stroke-linejoin="round"/><polygon points="497.4,706.5 460.8,612.8 376.3,599.6 328.4,680.0 364.9,773.7 449.4,786.9" fill="none" stroke="#111827" stroke-width="2.15" stroke-linejoin="round"/><polygon points="-96.4,-2.1 -132.9,-95.7 -217.4,-108.9 -265.4,-28.5 -228.8,65.1 -144.3,78.4" fill="none" stroke="#111827" stroke-width="2.15" stroke-linejoin="round"/><polygon points="554.6,-163.9 518.1,-257.5 433.6,-270.8 385.6,-190.4 422.1,-96.7 506.7,-83.5" fill="none" stroke="#111827" stroke-width="2.15" stroke-linejoin="round"/><polygon points="883.4,679.1 846.9,585.5 762.4,572.2 714.4,652.6 750.9,746.3 835.4,759.6" fill="none" stroke="#111827" stroke-width="2.15" stroke-linejoin="round"/><polygon points="301.1,-203.6 264.5,-297.3 180.0,-310.5 132.0,-230.1 168.6,-136.4 253.1,-123.2" fill="none" stroke="#111827" stroke-width="2.15" stroke-linejoin="round"/><polygon points="652.8,291.2 616.3,197.5 531.7,184.3 483.7,264.7 520.3,358.4 604.8,371.6" fill="none" stroke="#111827" stroke-width="2.15" stroke-linejoin="round"/><polygon points="-119.2,346.1 -155.8,252.4 -240.3,239.2 -288.2,319.6 -251.7,413.2 -167.2,426.5" fill="none" stroke="#111827" stroke-width="2.15" stroke-linejoin="round"/><polygon points="47.5,-243.3 11.0,-337.0 -73.5,-350.2 -121.5,-269.8 -85.0,-176.1 -0.4,-162.9" fill="none" stroke="#111827" stroke-width="2.15" stroke-linejoin="round"/><polyline points="209.2,267.9 180.8,244.1" fill="none" stroke="#dc2626" stroke-width="3" stroke-linecap="round" stroke-linejoin="round"/><circle cx="180.8" cy="244.1" r="2.1" fill="#dc2626"/><circle cx="209.2" cy="267.9" r="6" fill="#2563eb" stroke="white" stroke-width="2"/><path d="M180.8,237.1 L187.8,244.1 L180.8,251.1 L173.8,244.1 Z" fill="#dc2626" stroke="white" stroke-width="2"/></g><text x="18" y="484" font-size="10.5" fill="#475569">● 시작 · ━ 정답 이동 · ◆ 현재 실제 위치</text><text x="18" y="503" font-size="10.5" fill="#475569">검정 점선 D1 · 검정 실선 알림 후보 셀</text></g><text x="0" y="648" font-size="13" font-weight="600" fill="#334155">SP02-counter | counter | kakao | 길음1동주민센터</text></svg>