<svg xmlns="http://www.w3.org/2000/svg" width="1206" height="655" viewBox="0 0 1206 655" role="img" aria-label="45분 · SP02-consistent · 왕복·순환형 · A 성공 · B 성공 · C 성공"><style>text{font-family:"Apple SD Gothic Neo","Noto Sans KR",sans-serif}</style><rect width="1206" height="655" rx="18" fill="#fff"/><text x="22" y="40" font-size="25" font-weight="800" fill="#111827">45분 · SP02-consistent · 왕복·순환형</text><text x="22" y="76" font-size="17" font-weight="750" fill="#111827">A 성공 · B 성공 · C 성공</text><defs><clipPath id="map-clip"><rect x="12" y="52" width="366" height="408"/></clipPath><g id="roads" fill="none" stroke="#d7dce2" stroke-width="0.75"><path d="M291.8,263.3 L276.8,267.7"/><path d="M291.8,263.3 L311.8,258.0"/><path d="M291.8,263.3 L269.0,177.1"/><path d="M291.8,263.3 L314.5,340.9"/><path d="M260.5,120.0 L178.0,84.0"/><path d="M266.1,521.4 L244.6,455.8"/><path d="M25.2,461.2 L128.7,349.1"/><path d="M244.6,455.8 L265.0,449.0"/><path d="M244.6,455.8 L208.5,371.7"/><path d="M297.9,404.1 L282.9,350.1"/><path d="M310.2,406.4 L293.2,347.1"/><path d="M286.4,407.6 L271.2,353.5"/><path d="M208.5,371.7 L250.1,359.6"/><path d="M208.5,371.7 L185.4,330.4"/><path d="M250.1,359.6 L228.5,280.7"/><path d="M250.1,359.6 L271.2,353.5"/><path d="M271.2,353.5 L249.3,275.1"/><path d="M271.2,353.5 L282.9,350.1"/><path d="M282.9,350.1 L260.8,272.0"/><path d="M282.9,350.1 L293.2,347.1"/><path d="M293.2,347.1 L298.3,345.6"/><path d="M298.3,345.6 L276.8,267.7"/><path d="M298.3,345.6 L314.5,340.9"/><path d="M185.4,330.4 L183.5,326.8"/><path d="M185.4,330.4 L128.7,349.1"/><path d="M128.7,349.1 L99.2,347.1"/><path d="M128.7,349.1 L123.3,314.8"/><path d="M228.5,280.7 L204.1,191.5"/><path d="M228.5,280.7 L249.3,275.1"/><path d="M249.3,275.1 L260.8,272.0"/><path d="M260.8,272.0 L276.8,267.7"/><path d="M-35.3,267.7 L41.0,262.5"/><path d="M41.0,262.5 L17.8,238.6"/><path d="M41.0,262.5 L99.2,347.1"/><path d="M17.8,238.6 L43.1,227.9"/><path d="M17.8,238.6 L-32.5,241.0"/><path d="M92.8,211.4 L69.8,218.5"/><path d="M92.8,211.4 L164.1,200.1"/><path d="M92.8,211.4 L183.5,326.8"/><path d="M92.8,211.4 L44.6,117.3"/><path d="M204.1,191.5 L225.0,186.6"/><path d="M204.1,191.5 L164.1,200.1"/><path d="M269.0,177.1 L260.8,103.1"/><path d="M269.0,177.1 L225.0,186.6"/><path d="M269.0,177.1 L281.8,172.4"/><path d="M269.0,177.1 L296.5,111.3"/><path d="M43.3,113.7 L44.6,117.3"/><path d="M43.3,113.7 L41.3,110.7"/><path d="M43.3,113.7 L33.7,129.6"/><path d="M178.0,84.0 L132.6,41.1"/><path d="M178.0,84.0 L108.4,-51.7"/><path d="M17.6,79.2 L2.4,69.1"/><path d="M17.6,79.2 L28.5,74.3"/><path d="M17.6,79.2 L41.3,110.7"/><path d="M102.9,26.2 L28.5,74.3"/><path d="M266.1,-8.2 L261.6,79.2"/><path d="M354.3,485.1 L346.1,455.1"/><path d="M346.1,455.1 L333.4,407.3"/><path d="M346.1,455.1 L378.9,445.9"/><path d="M378.9,445.9 L365.6,398.5"/><path d="M333.4,407.3 L350.8,402.6"/><path d="M333.4,407.3 L314.5,340.9"/><path d="M326.0,254.5 L311.8,258.0"/><path d="M326.0,254.5 L347.1,331.9"/><path d="M326.0,254.5 L309.7,212.8"/><path d="M281.8,172.4 L292.4,167.7"/><path d="M281.8,172.4 L309.7,212.8"/><path d="M354.4,140.1 L339.3,146.8"/><path d="M354.4,140.1 L393.7,128.6"/><path d="M354.4,140.1 L340.6,128.2"/><path d="M326.9,119.5 L315.1,112.1"/><path d="M326.9,119.5 L334.4,77.4"/><path d="M326.9,119.5 L340.6,128.2"/><path d="M315.1,112.1 L305.3,82.7"/><path d="M315.1,112.1 L296.5,111.3"/><path d="M296.5,111.3 L285.8,100.4"/><path d="M260.8,103.1 L261.6,79.2"/><path d="M260.8,103.1 L285.8,100.4"/><path d="M285.8,100.4 L279.3,81.4"/><path d="M279.3,81.4 L305.3,82.7"/><path d="M279.3,81.4 L261.6,79.2"/><path d="M279.3,81.4 L287.6,-8.5"/><path d="M305.3,82.7 L308.8,82.8"/><path d="M334.4,77.4 L363.6,69.2"/><path d="M334.4,77.4 L308.8,82.8"/><path d="M384.2,64.8 L368.7,67.9"/><path d="M297.6,52.5 L298.0,45.0"/><path d="M51.6,353.4 L99.2,347.1"/><path d="M355.1,361.7 L499.6,256.4"/><path d="M355.1,361.7 L365.6,398.5"/><path d="M355.1,361.7 L347.1,331.9"/><path d="M123.3,314.8 L143.7,299.6"/><path d="M123.3,314.8 L98.2,316.7"/><path d="M2.7,134.6 L23.7,146.3"/><path d="M2.7,134.6 L19.9,106.1"/><path d="M19.8,152.7 L3.9,179.7"/><path d="M19.8,152.7 L23.7,146.3"/><path d="M19.8,152.7 L32.0,160.2"/><path d="M32.0,160.2 L18.6,183.0"/><path d="M32.0,160.2 L33.7,129.6"/><path d="M43.1,227.9 L69.8,218.5"/><path d="M43.1,227.9 L49.7,207.0"/><path d="M49.7,207.0 L39.2,200.7"/><path d="M49.7,207.0 L69.8,218.5"/><path d="M39.2,200.7 L3.9,179.7"/><path d="M39.2,200.7 L17.9,221.3"/><path d="M225.0,186.6 L44.6,117.3"/><path d="M164.1,200.1 L151.8,230.3"/><path d="M314.5,340.9 L332.3,335.9"/><path d="M347.1,331.9 L332.3,335.9"/><path d="M347.1,331.9 L383.5,298.9"/><path d="M363.1,222.2 L356.0,224.1"/><path d="M363.1,222.2 L378.2,218.6"/><path d="M363.1,222.2 L344.7,162.3"/><path d="M363.1,222.2 L383.5,298.9"/><path d="M344.7,162.3 L339.3,146.8"/><path d="M344.7,162.3 L361.3,162.5"/><path d="M339.3,146.8 L337.7,147.5"/><path d="M383.5,298.9 L368.1,276.1"/><path d="M356.0,224.1 L356.0,224.1"/><path d="M361.3,162.5 L361.3,162.5"/><path d="M332.3,335.9 L350.8,402.6"/><path d="M332.3,335.9 L311.8,258.0"/><path d="M309.7,212.8 L311.8,258.0"/><path d="M335.0,582.2 L265.0,449.0"/><path d="M335.0,582.2 L308.6,448.7"/><path d="M265.0,449.0 L308.6,448.7"/><path d="M308.6,448.7 L311.7,429.1"/><path d="M292.4,167.7 L337.7,147.5"/><path d="M31.6,128.3 L33.7,129.6"/><path d="M23.7,146.3 L33.7,129.6"/><path d="M6.2,104.4 L12.8,102.6"/><path d="M19.9,106.1 L12.8,102.6"/><path d="M19.9,106.1 L41.3,110.7"/><path d="M12.8,102.6 L0.4,72.9"/><path d="M350.8,402.6 L365.6,398.5"/><path d="M183.5,326.8 L208.9,311.9"/><path d="M208.9,311.9 L208.9,311.9"/><path d="M363.0,108.1 L340.6,128.2"/><path d="M370.2,101.7 L363.6,69.2"/><path d="M363.6,69.2 L368.7,67.9"/><path d="M357.0,37.8 L368.7,67.9"/><path d="M322.9,61.9 L308.8,82.8"/><path d="M28.5,74.3 L91.7,92.2"/><path d="M126.5,57.8 L132.6,41.1"/><path d="M474.8,239.2 L368.2,333.2"/></g></defs><g transform="translate(0,105)"><rect x="0" y="0" width="390" height="520" rx="14" fill="#fff" stroke="#d8dee9"/><text x="18" y="28" font-size="18" font-weight="700" fill="#111827">A 거리 기준</text><text x="372" y="28" text-anchor="end" font-size="12" fill="#64748b">유효 · 평가 불필요</text><g clip-path="url(#map-clip)"><use href="#roads"/><polygon points="307.5,736.1 271.0,642.4 186.5,629.2 138.5,709.6 175.0,803.3 259.5,816.5" fill="rgb(49,130,189)" fill-opacity="0.274" stroke="none"/><polygon points="727.9,186.5 691.4,92.8 606.8,79.6 558.9,160.0 595.4,253.6 679.9,266.9" fill="rgb(49,130,189)" fill-opacity="0.275" stroke="none"/><polygon points="716.4,360.6 679.9,266.9 595.4,253.6 547.4,334.1 583.9,427.7 668.4,441.0" fill="rgb(49,130,189)" fill-opacity="0.275" stroke="none"/><polygon points="572.5,601.8 535.9,508.1 451.4,494.9 403.4,575.3 440.0,668.9 524.5,682.2" fill="rgb(49,130,189)" fill-opacity="0.277" stroke="none"/><polygon points="54.0,696.3 17.5,602.7 -67.0,589.4 -115.0,669.8 -78.5,763.5 6.0,776.7" fill="rgb(49,130,189)" fill-opacity="0.278" stroke="none"/><polygon points="-188.1,482.6 -224.6,388.9 -309.1,375.7 -357.0,456.1 -320.5,549.7 -236.0,563.0" fill="rgb(49,130,189)" fill-opacity="0.279" stroke="none"/><polygon points="243.7,-241.2 207.1,-334.8 122.6,-348.1 74.6,-267.6 111.2,-174.0 195.7,-160.7" fill="rgb(49,130,189)" fill-opacity="0.280" stroke="none"/><polygon points="-153.8,-39.6 -190.3,-133.3 -274.8,-146.5 -322.8,-66.1 -286.2,27.6 -201.7,40.8" fill="rgb(49,130,189)" fill-opacity="0.282" stroke="none"/><polygon points="440.0,668.9 403.4,575.3 318.9,562.0 271.0,642.4 307.5,736.1 392.0,749.4" fill="rgb(49,130,189)" fill-opacity="0.287" stroke="none"/><polygon points="-67.0,589.4 -103.6,495.8 -188.1,482.6 -236.0,563.0 -199.5,656.6 -115.0,669.8" fill="rgb(49,130,189)" fill-opacity="0.293" stroke="none"/><polygon points="111.2,-174.0 74.6,-267.6 -9.9,-280.9 -57.8,-200.5 -21.3,-106.8 63.2,-93.6" fill="rgb(49,130,189)" fill-opacity="0.307" stroke="none"/><polygon points="-21.3,-106.8 -57.8,-200.5 -142.4,-213.7 -190.3,-133.3 -153.8,-39.6 -69.3,-26.4" fill="rgb(49,130,189)" fill-opacity="0.308" stroke="none"/><polygon points="-176.6,308.5 -213.2,214.8 -297.7,201.6 -345.6,282.0 -309.1,375.7 -224.6,388.9" fill="rgb(49,130,189)" fill-opacity="0.318" stroke="none"/><polygon points="-165.2,134.4 -201.7,40.8 -286.2,27.6 -334.2,108.0 -297.7,201.6 -213.2,214.8" fill="rgb(49,130,189)" fill-opacity="0.319" stroke="none"/><polygon points="606.8,79.6 570.3,-14.1 485.8,-27.4 437.8,53.1 474.3,146.7 558.9,160.0" fill="rgb(49,130,189)" fill-opacity="0.326" stroke="none"/><polygon points="364.7,-134.3 328.2,-227.9 243.7,-241.2 195.7,-160.7 232.2,-67.1 316.8,-53.9" fill="rgb(49,130,189)" fill-opacity="0.330" stroke="none"/><polygon points="583.9,427.7 547.4,334.1 462.9,320.8 414.9,401.2 451.4,494.9 535.9,508.1" fill="rgb(49,130,189)" fill-opacity="0.333" stroke="none"/><polygon points="186.5,629.2 149.9,535.5 65.4,522.3 17.5,602.7 54.0,696.3 138.5,709.6" fill="rgb(49,130,189)" fill-opacity="0.336" stroke="none"/><polygon points="485.8,-27.4 449.3,-121.0 364.7,-134.3 316.8,-53.9 353.3,39.8 437.8,53.1" fill="rgb(49,130,189)" fill-opacity="0.350" stroke="none"/><polygon points="595.4,253.6 558.9,160.0 474.3,146.7 426.3,227.1 462.9,320.8 547.4,334.1" fill="rgb(49,130,189)" fill-opacity="0.357" stroke="none"/><polygon points="-55.6,415.4 -92.1,321.7 -176.6,308.5 -224.6,388.9 -188.1,482.6 -103.6,495.8" fill="rgb(49,130,189)" fill-opacity="0.372" stroke="none"/><polygon points="451.4,494.9 414.9,401.2 330.4,388.0 282.4,468.4 318.9,562.0 403.4,575.3" fill="rgb(49,130,189)" fill-opacity="0.378" stroke="none"/><polygon points="318.9,562.0 282.4,468.4 197.9,455.1 149.9,535.5 186.5,629.2 271.0,642.4" fill="rgb(49,130,189)" fill-opacity="0.379" stroke="none"/><polygon points="65.4,522.3 28.9,428.6 -55.6,415.4 -103.6,495.8 -67.0,589.4 17.5,602.7" fill="rgb(49,130,189)" fill-opacity="0.381" stroke="none"/><polygon points="-32.7,67.3 -69.3,-26.4 -153.8,-39.6 -201.7,40.8 -165.2,134.4 -80.7,147.7" fill="rgb(49,130,189)" fill-opacity="0.385" stroke="none"/><polygon points="232.2,-67.1 195.7,-160.7 111.2,-174.0 63.2,-93.6 99.7,0.1 184.3,13.3" fill="rgb(49,130,189)" fill-opacity="0.393" stroke="none"/><polygon points="-44.2,241.3 -80.7,147.7 -165.2,134.4 -213.2,214.8 -176.6,308.5 -92.1,321.7" fill="rgb(49,130,189)" fill-opacity="0.419" stroke="none"/><polygon points="99.7,0.1 63.2,-93.6 -21.3,-106.8 -69.3,-26.4 -32.7,67.3 51.8,80.5" fill="rgb(49,130,189)" fill-opacity="0.420" stroke="none"/><polygon points="474.3,146.7 437.8,53.1 353.3,39.8 305.3,120.2 341.8,213.9 426.3,227.1" fill="rgb(49,130,189)" fill-opacity="0.440" stroke="none"/><polygon points="462.9,320.8 426.3,227.1 341.8,213.9 293.9,294.3 330.4,388.0 414.9,401.2" fill="rgb(49,130,189)" fill-opacity="0.457" stroke="none"/><polygon points="353.3,39.8 316.8,-53.9 232.2,-67.1 184.3,13.3 220.8,107.0 305.3,120.2" fill="rgb(49,130,189)" fill-opacity="0.461" stroke="none"/><polygon points="197.9,455.1 161.4,361.5 76.9,348.2 28.9,428.6 65.4,522.3 149.9,535.5" fill="rgb(49,130,189)" fill-opacity="0.481" stroke="none"/><polygon points="76.9,348.2 40.3,254.6 -44.2,241.3 -92.1,321.7 -55.6,415.4 28.9,428.6" fill="rgb(49,130,189)" fill-opacity="0.507" stroke="none"/><polygon points="330.4,388.0 293.9,294.3 209.3,281.1 161.4,361.5 197.9,455.1 282.4,468.4" fill="rgb(49,130,189)" fill-opacity="0.528" stroke="none"/><polygon points="88.3,174.2 51.8,80.5 -32.7,67.3 -80.7,147.7 -44.2,241.3 40.3,254.6" fill="rgb(49,130,189)" fill-opacity="0.538" stroke="none"/><polygon points="220.8,107.0 184.3,13.3 99.7,0.1 51.8,80.5 88.3,174.2 172.8,187.4" fill="rgb(49,130,189)" fill-opacity="0.570" stroke="none"/><polygon points="341.8,213.9 305.3,120.2 220.8,107.0 172.8,187.4 209.3,281.1 293.9,294.3" fill="rgb(49,130,189)" fill-opacity="0.606" stroke="none"/><polygon points="209.3,281.1 172.8,187.4 88.3,174.2 40.3,254.6 76.9,348.2 161.4,361.5" fill="rgb(49,130,189)" fill-opacity="0.700" stroke="none"/><polygon points="-32.7,67.3 -69.3,-26.4 -153.8,-39.6 -201.7,40.8 -165.2,134.4 -80.7,147.7" fill="none" stroke="#111827" stroke-width="1.35" stroke-dasharray="4 3" stroke-linejoin="round"/><polygon points="209.3,281.1 172.8,187.4 88.3,174.2 40.3,254.6 76.9,348.2 161.4,361.5" fill="none" stroke="#111827" stroke-width="1.35" stroke-dasharray="4 3" stroke-linejoin="round"/><polygon points="232.2,-67.1 195.7,-160.7 111.2,-174.0 63.2,-93.6 99.7,0.1 184.3,13.3" fill="none" stroke="#111827" stroke-width="1.35" stroke-dasharray="4 3" stroke-linejoin="round"/><polygon points="474.3,146.7 437.8,53.1 353.3,39.8 305.3,120.2 341.8,213.9 426.3,227.1" fill="none" stroke="#111827" stroke-width="1.35" stroke-dasharray="4 3" stroke-linejoin="round"/><polygon points="197.9,455.1 161.4,361.5 76.9,348.2 28.9,428.6 65.4,522.3 149.9,535.5" fill="none" stroke="#111827" stroke-width="1.35" stroke-dasharray="4 3" stroke-linejoin="round"/><polygon points="-44.2,241.3 -80.7,147.7 -165.2,134.4 -213.2,214.8 -176.6,308.5 -92.1,321.7" fill="none" stroke="#111827" stroke-width="1.35" stroke-dasharray="4 3" stroke-linejoin="round"/><polygon points="186.5,629.2 149.9,535.5 65.4,522.3 17.5,602.7 54.0,696.3 138.5,709.6" fill="none" stroke="#111827" stroke-width="1.35" stroke-dasharray="4 3" stroke-linejoin="round"/><polygon points="99.7,0.1 63.2,-93.6 -21.3,-106.8 -69.3,-26.4 -32.7,67.3 51.8,80.5" fill="none" stroke="#111827" stroke-width="1.35" stroke-dasharray="4 3" stroke-linejoin="round"/><polygon points="318.9,562.0 282.4,468.4 197.9,455.1 149.9,535.5 186.5,629.2 271.0,642.4" fill="none" stroke="#111827" stroke-width="1.35" stroke-dasharray="4 3" stroke-linejoin="round"/><polygon points="65.4,522.3 28.9,428.6 -55.6,415.4 -103.6,495.8 -67.0,589.4 17.5,602.7" fill="none" stroke="#111827" stroke-width="1.35" stroke-dasharray="4 3" stroke-linejoin="round"/><polygon points="330.4,388.0 293.9,294.3 209.3,281.1 161.4,361.5 197.9,455.1 282.4,468.4" fill="none" stroke="#111827" stroke-width="1.35" stroke-dasharray="4 3" stroke-linejoin="round"/><polygon points="353.3,39.8 316.8,-53.9 232.2,-67.1 184.3,13.3 220.8,107.0 305.3,120.2" fill="none" stroke="#111827" stroke-width="1.35" stroke-dasharray="4 3" stroke-linejoin="round"/><polygon points="451.4,494.9 414.9,401.2 330.4,388.0 282.4,468.4 318.9,562.0 403.4,575.3" fill="none" stroke="#111827" stroke-width="1.35" stroke-dasharray="4 3" stroke-linejoin="round"/><polygon points="220.8,107.0 184.3,13.3 99.7,0.1 51.8,80.5 88.3,174.2 172.8,187.4" fill="none" stroke="#111827" stroke-width="1.35" stroke-dasharray="4 3" stroke-linejoin="round"/><polygon points="462.9,320.8 426.3,227.1 341.8,213.9 293.9,294.3 330.4,388.0 414.9,401.2" fill="none" stroke="#111827" stroke-width="1.35" stroke-dasharray="4 3" stroke-linejoin="round"/><polygon points="341.8,213.9 305.3,120.2 220.8,107.0 172.8,187.4 209.3,281.1 293.9,294.3" fill="none" stroke="#111827" stroke-width="1.35" stroke-dasharray="4 3" stroke-linejoin="round"/><polygon points="-55.6,415.4 -92.1,321.7 -176.6,308.5 -224.6,388.9 -188.1,482.6 -103.6,495.8" fill="none" stroke="#111827" stroke-width="1.35" stroke-dasharray="4 3" stroke-linejoin="round"/><polygon points="76.9,348.2 40.3,254.6 -44.2,241.3 -92.1,321.7 -55.6,415.4 28.9,428.6" fill="none" stroke="#111827" stroke-width="1.35" stroke-dasharray="4 3" stroke-linejoin="round"/><polygon points="88.3,174.2 51.8,80.5 -32.7,67.3 -80.7,147.7 -44.2,241.3 40.3,254.6" fill="none" stroke="#111827" stroke-width="1.35" stroke-dasharray="4 3" stroke-linejoin="round"/><polygon points="485.8,-27.4 449.3,-121.0 364.7,-134.3 316.8,-53.9 353.3,39.8 437.8,53.1" fill="none" stroke="#111827" stroke-width="2.15" stroke-linejoin="round"/><polygon points="716.4,360.6 679.9,266.9 595.4,253.6 547.4,334.1 583.9,427.7 668.4,441.0" fill="none" stroke="#111827" stroke-width="2.15" stroke-linejoin="round"/><polygon points="606.8,79.6 570.3,-14.1 485.8,-27.4 437.8,53.1 474.3,146.7 558.9,160.0" fill="none" stroke="#111827" stroke-width="2.15" stroke-linejoin="round"/><polygon points="111.2,-174.0 74.6,-267.6 -9.9,-280.9 -57.8,-200.5 -21.3,-106.8 63.2,-93.6" fill="none" stroke="#111827" stroke-width="2.15" stroke-linejoin="round"/><polygon points="-67.0,589.4 -103.6,495.8 -188.1,482.6 -236.0,563.0 -199.5,656.6 -115.0,669.8" fill="none" stroke="#111827" stroke-width="2.15" stroke-linejoin="round"/><polygon points="-188.1,482.6 -224.6,388.9 -309.1,375.7 -357.0,456.1 -320.5,549.7 -236.0,563.0" fill="none" stroke="#111827" stroke-width="2.15" stroke-linejoin="round"/><polygon points="-21.3,-106.8 -57.8,-200.5 -142.4,-213.7 -190.3,-133.3 -153.8,-39.6 -69.3,-26.4" fill="none" stroke="#111827" stroke-width="2.15" stroke-linejoin="round"/><polygon points="307.5,736.1 271.0,642.4 186.5,629.2 138.5,709.6 175.0,803.3 259.5,816.5" fill="none" stroke="#111827" stroke-width="2.15" stroke-linejoin="round"/><polygon points="364.7,-134.3 328.2,-227.9 243.7,-241.2 195.7,-160.7 232.2,-67.1 316.8,-53.9" fill="none" stroke="#111827" stroke-width="2.15" stroke-linejoin="round"/><polygon points="727.9,186.5 691.4,92.8 606.8,79.6 558.9,160.0 595.4,253.6 679.9,266.9" fill="none" stroke="#111827" stroke-width="2.15" stroke-linejoin="round"/><polygon points="-165.2,134.4 -201.7,40.8 -286.2,27.6 -334.2,108.0 -297.7,201.6 -213.2,214.8" fill="none" stroke="#111827" stroke-width="2.15" stroke-linejoin="round"/><polygon points="54.0,696.3 17.5,602.7 -67.0,589.4 -115.0,669.8 -78.5,763.5 6.0,776.7" fill="none" stroke="#111827" stroke-width="2.15" stroke-linejoin="round"/><polygon points="572.5,601.8 535.9,508.1 451.4,494.9 403.4,575.3 440.0,668.9 524.5,682.2" fill="none" stroke="#111827" stroke-width="2.15" stroke-linejoin="round"/><polygon points="440.0,668.9 403.4,575.3 318.9,562.0 271.0,642.4 307.5,736.1 392.0,749.4" fill="none" stroke="#111827" stroke-width="2.15" stroke-linejoin="round"/><polygon points="-153.8,-39.6 -190.3,-133.3 -274.8,-146.5 -322.8,-66.1 -286.2,27.6 -201.7,40.8" fill="none" stroke="#111827" stroke-width="2.15" stroke-linejoin="round"/><polygon points="243.7,-241.2 207.1,-334.8 122.6,-348.1 74.6,-267.6 111.2,-174.0 195.7,-160.7" fill="none" stroke="#111827" stroke-width="2.15" stroke-linejoin="round"/><polygon points="595.4,253.6 558.9,160.0 474.3,146.7 426.3,227.1 462.9,320.8 547.4,334.1" fill="none" stroke="#111827" stroke-width="2.15" stroke-linejoin="round"/><polygon points="583.9,427.7 547.4,334.1 462.9,320.8 414.9,401.2 451.4,494.9 535.9,508.1" fill="none" stroke="#111827" stroke-width="2.15" stroke-linejoin="round"/><polygon points="-176.6,308.5 -213.2,214.8 -297.7,201.6 -345.6,282.0 -309.1,375.7 -224.6,388.9" fill="none" stroke="#111827" stroke-width="2.15" stroke-linejoin="round"/><polyline points="151.8,230.3 205.3,195.9 208.9,209.2 212.6,222.6 216.3,236.0 219.9,249.3 223.6,262.7 227.2,276.0 230.9,289.4 234.6,302.8 238.2,316.1" fill="none" stroke="#dc2626" stroke-width="3" stroke-linecap="round" stroke-linejoin="round"/><circle cx="205.3" cy="195.9" r="2.1" fill="#dc2626"/><circle cx="208.9" cy="209.2" r="2.1" fill="#dc2626"/><circle cx="212.6" cy="222.6" r="2.1" fill="#dc2626"/><circle cx="216.3" cy="236.0" r="2.1" fill="#dc2626"/><circle cx="219.9" cy="249.3" r="2.1" fill="#dc2626"/><circle cx="223.6" cy="262.7" r="2.1" fill="#dc2626"/><circle cx="227.2" cy="276.0" r="2.1" fill="#dc2626"/><circle cx="230.9" cy="289.4" r="2.1" fill="#dc2626"/><circle cx="234.6" cy="302.8" r="2.1" fill="#dc2626"/><circle cx="238.2" cy="316.1" r="2.1" fill="#dc2626"/><circle cx="151.8" cy="230.3" r="6" fill="#2563eb" stroke="white" stroke-width="2"/><path d="M238.2,309.1 L245.2,316.1 L238.2,323.1 L231.2,316.1 Z" fill="#dc2626" stroke="white" stroke-width="2"/></g><text x="18" y="484" font-size="10.5" fill="#475569">● 시작 · ━ 정답 이동 · ◆ 현재 실제 위치</text><text x="18" y="503" font-size="10.5" fill="#475569">검정 점선 D1 · 검정 실선 알림 후보 셀</text></g><g transform="translate(408,105)"><rect x="0" y="0" width="390" height="520" rx="14" fill="#fff" stroke="#d8dee9"/><text x="18" y="28" font-size="18" font-weight="700" fill="#111827">B EXAONE 비개인화</text><text x="372" y="28" text-anchor="end" font-size="12" fill="#64748b">유효 · 평가 불필요</text><g clip-path="url(#map-clip)"><use href="#roads"/><polygon points="19.7,1218.5 -16.8,1124.9 -101.3,1111.6 -149.3,1192.0 -112.7,1285.7 -28.3,1298.9" fill="rgb(230,85,13)" fill-opacity="0.122" stroke="none"/><polygon points="1079.6,681.4 1043.1,587.7 958.5,574.4 910.5,654.8 947.1,748.5 1031.6,761.8" fill="rgb(230,85,13)" fill-opacity="0.122" stroke="none"/><polygon points="-729.2,925.3 -765.7,831.6 -850.2,818.4 -898.1,898.8 -861.6,992.4 -777.1,1005.7" fill="rgb(230,85,13)" fill-opacity="0.122" stroke="none"/><polygon points="958.5,574.4 922.0,480.8 837.5,467.5 789.5,547.9 826.0,641.6 910.5,654.8" fill="rgb(230,85,13)" fill-opacity="0.122" stroke="none"/><polygon points="-85.2,-1084.0 -121.7,-1177.7 -206.3,-1190.9 -254.3,-1110.5 -217.7,-1016.8 -133.2,-1003.6" fill="rgb(230,85,13)" fill-opacity="0.122" stroke="none"/><polygon points="1.6,-454.9 -35.0,-548.6 -119.5,-561.8 -167.5,-481.4 -130.9,-387.8 -46.4,-374.5" fill="rgb(230,85,13)" fill-opacity="0.122" stroke="none"/><polygon points="266.6,-589.3 230.0,-683.0 145.5,-696.2 97.5,-615.8 134.1,-522.1 218.6,-508.9" fill="rgb(230,85,13)" fill-opacity="0.122" stroke="none"/><polygon points="-948.4,363.5 -985.0,269.8 -1069.4,256.6 -1117.4,337.0 -1080.8,430.6 -996.3,443.9" fill="rgb(230,85,13)" fill-opacity="0.122" stroke="none"/><polygon points="111.2,-174.0 74.6,-267.6 -9.9,-280.9 -57.8,-200.5 -21.3,-106.8 63.2,-93.6" fill="rgb(230,85,13)" fill-opacity="0.122" stroke="none"/><polygon points="-309.1,375.7 -345.6,282.0 -430.1,268.8 -478.1,349.2 -441.5,442.8 -357.0,456.1" fill="rgb(230,85,13)" fill-opacity="0.122" stroke="none"/><polygon points="-240.6,-668.7 -277.1,-762.3 -361.6,-775.6 -409.6,-695.1 -373.0,-601.5 -288.5,-588.3" fill="rgb(230,85,13)" fill-opacity="0.122" stroke="none"/><polygon points="-516.9,-360.2 -553.5,-453.9 -638.0,-467.1 -685.9,-386.7 -649.4,-293.0 -564.9,-279.8" fill="rgb(230,85,13)" fill-opacity="0.122" stroke="none"/><polygon points="-1110.8,-1068.5 -1147.3,-1162.1 -1231.8,-1175.3 -1279.8,-1094.9 -1243.2,-1001.3 -1158.7,-988.1" fill="rgb(230,85,13)" fill-opacity="0.122" stroke="none"/><polygon points="561.0,775.9 524.5,682.2 440.0,668.9 392.0,749.4 428.5,843.0 513.0,856.3" fill="rgb(230,85,13)" fill-opacity="0.122" stroke="none"/><polygon points="543.1,-897.8 506.6,-991.5 422.0,-1004.7 374.0,-924.3 410.6,-830.6 495.1,-817.4" fill="rgb(230,85,13)" fill-opacity="0.122" stroke="none"/><polygon points="-482.7,-882.4 -519.2,-976.0 -603.7,-989.3 -651.7,-908.8 -615.2,-815.2 -530.6,-802.0" fill="rgb(230,85,13)" fill-opacity="0.122" stroke="none"/><polygon points="278.0,-763.4 241.5,-857.1 157.0,-870.3 109.0,-789.9 145.5,-696.2 230.0,-683.0" fill="rgb(230,85,13)" fill-opacity="0.122" stroke="none"/><polygon points="-233.8,1178.8 -270.3,1085.1 -354.8,1071.9 -402.7,1152.3 -366.2,1245.9 -281.7,1259.1" fill="rgb(230,85,13)" fill-opacity="0.122" stroke="none"/><polygon points="399.1,-656.5 362.6,-750.2 278.0,-763.4 230.0,-683.0 266.6,-589.3 351.1,-576.1" fill="rgb(230,85,13)" fill-opacity="0.122" stroke="none"/><polygon points="168.4,-1044.4 131.9,-1138.0 47.3,-1151.3 -0.7,-1070.8 35.9,-977.2 120.4,-963.9" fill="rgb(230,85,13)" fill-opacity="0.122" stroke="none"/><polygon points="417.1,1017.1 380.5,923.4 296.0,910.2 248.1,990.6 284.6,1084.2 369.1,1097.5" fill="rgb(230,85,13)" fill-opacity="0.122" stroke="none"/><polygon points="-89.9,937.6 -126.4,843.9 -210.9,830.7 -258.9,911.1 -222.3,1004.7 -137.8,1018.0" fill="rgb(230,85,13)" fill-opacity="0.122" stroke="none"/><polygon points="140.7,1325.4 104.2,1231.8 19.7,1218.5 -28.3,1298.9 8.3,1392.6 92.7,1405.8" fill="rgb(230,85,13)" fill-opacity="0.122" stroke="none"/><polygon points="-418.7,94.7 -455.2,1.1 -539.7,-12.1 -587.7,68.3 -551.1,161.9 -466.7,175.1" fill="rgb(230,85,13)" fill-opacity="0.122" stroke="none"/><polygon points="-430.1,268.8 -466.7,175.1 -551.1,161.9 -599.1,242.3 -562.6,336.0 -478.1,349.2" fill="rgb(230,85,13)" fill-opacity="0.122" stroke="none"/><polygon points="-384.5,-427.4 -421.0,-521.1 -505.5,-534.3 -553.5,-453.9 -516.9,-360.2 -432.4,-347.0" fill="rgb(230,85,13)" fill-opacity="0.139" stroke="none"/><polygon points="387.6,-482.4 351.1,-576.1 266.6,-589.3 218.6,-508.9 255.1,-415.2 339.7,-402.0" fill="rgb(230,85,13)" fill-opacity="0.139" stroke="none"/><polygon points="-331.9,723.8 -368.5,630.1 -452.9,616.9 -500.9,697.3 -464.4,790.9 -379.9,804.2" fill="rgb(230,85,13)" fill-opacity="0.139" stroke="none"/><polygon points="682.0,882.8 645.5,789.1 561.0,775.9 513.0,856.3 549.5,949.9 634.1,963.2" fill="rgb(230,85,13)" fill-opacity="0.144" stroke="none"/><polygon points="508.7,-375.5 472.2,-469.2 387.6,-482.4 339.7,-402.0 376.2,-308.3 460.7,-295.1" fill="rgb(230,85,13)" fill-opacity="0.144" stroke="none"/><polygon points="-55.6,415.4 -92.1,321.7 -176.6,308.5 -224.6,388.9 -188.1,482.6 -103.6,495.8" fill="rgb(230,85,13)" fill-opacity="0.144" stroke="none"/><polygon points="1212.1,614.2 1175.6,520.6 1091.1,507.3 1043.1,587.7 1079.6,681.4 1164.1,694.7" fill="rgb(230,85,13)" fill-opacity="0.144" stroke="none"/><polygon points="-649.4,-293.0 -685.9,-386.7 -770.4,-399.9 -818.4,-319.5 -781.8,-225.8 -697.3,-212.6" fill="rgb(230,85,13)" fill-opacity="0.144" stroke="none"/><polygon points="-320.5,549.7 -357.0,456.1 -441.5,442.8 -489.5,523.2 -452.9,616.9 -368.5,630.1" fill="rgb(230,85,13)" fill-opacity="0.144" stroke="none"/><polygon points="583.9,427.7 547.4,334.1 462.9,320.8 414.9,401.2 451.4,494.9 535.9,508.1" fill="rgb(230,85,13)" fill-opacity="0.144" stroke="none"/><polygon points="76.9,348.2 40.3,254.6 -44.2,241.3 -92.1,321.7 -55.6,415.4 28.9,428.6" fill="rgb(230,85,13)" fill-opacity="0.144" stroke="none"/><polygon points="152.1,1151.4 115.6,1057.7 31.1,1044.5 -16.8,1124.9 19.7,1218.5 104.2,1231.8" fill="rgb(230,85,13)" fill-opacity="0.144" stroke="none"/><polygon points="-441.5,442.8 -478.1,349.2 -562.6,336.0 -610.5,416.4 -574.0,510.0 -489.5,523.2" fill="rgb(230,85,13)" fill-opacity="0.144" stroke="none"/><polygon points="163.6,977.3 127.0,883.7 42.6,870.4 -5.4,950.8 31.1,1044.5 115.6,1057.7" fill="rgb(230,85,13)" fill-opacity="0.144" stroke="none"/><polygon points="1015.9,-296.0 979.4,-389.7 894.9,-403.0 846.9,-322.5 883.4,-228.9 967.9,-215.6" fill="rgb(230,85,13)" fill-opacity="0.144" stroke="none"/><polygon points="871.9,-54.8 835.4,-148.4 750.8,-161.7 702.8,-81.3 739.4,12.4 823.9,25.6" fill="rgb(230,85,13)" fill-opacity="0.144" stroke="none"/><polygon points="-297.7,201.6 -334.2,108.0 -418.7,94.7 -466.7,175.1 -430.1,268.8 -345.6,282.0" fill="rgb(230,85,13)" fill-opacity="0.144" stroke="none"/><polygon points="773.8,-509.9 737.3,-603.6 652.7,-616.8 604.7,-536.4 641.2,-442.7 725.8,-429.5" fill="rgb(230,85,13)" fill-opacity="0.144" stroke="none"/><polygon points="883.4,-228.9 846.9,-322.5 762.3,-335.8 714.3,-255.4 750.8,-161.7 835.4,-148.4" fill="rgb(230,85,13)" fill-opacity="0.144" stroke="none"/><polygon points="947.1,748.5 910.5,654.8 826.0,641.6 778.0,722.0 814.5,815.7 899.1,828.9" fill="rgb(230,85,13)" fill-opacity="0.152" stroke="none"/><polygon points="-119.5,-561.8 -156.0,-655.5 -240.6,-668.7 -288.5,-588.3 -252.0,-494.6 -167.5,-481.4" fill="rgb(230,85,13)" fill-opacity="0.152" stroke="none"/><polygon points="-130.9,-387.8 -167.5,-481.4 -252.0,-494.6 -299.9,-414.2 -263.4,-320.6 -178.9,-307.3" fill="rgb(230,85,13)" fill-opacity="0.152" stroke="none"/><polygon points="-199.5,656.6 -236.0,563.0 -320.5,549.7 -368.5,630.1 -331.9,723.8 -247.4,737.0" fill="rgb(230,85,13)" fill-opacity="0.156" stroke="none"/><polygon points="981.5,226.3 945.0,132.6 860.4,119.3 812.4,199.7 849.0,293.4 933.5,306.7" fill="rgb(230,85,13)" fill-opacity="0.156" stroke="none"/><polygon points="134.1,-522.1 97.5,-615.8 13.0,-629.0 -35.0,-548.6 1.6,-454.9 86.1,-441.7" fill="rgb(230,85,13)" fill-opacity="0.156" stroke="none"/><polygon points="705.0,534.6 668.4,441.0 583.9,427.7 535.9,508.1 572.5,601.8 657.0,615.1" fill="rgb(230,85,13)" fill-opacity="0.156" stroke="none"/><polygon points="428.5,843.0 392.0,749.4 307.5,736.1 259.5,816.5 296.0,910.2 380.5,923.4" fill="rgb(230,85,13)" fill-opacity="0.156" stroke="none"/><polygon points="-252.0,-494.6 -288.5,-588.3 -373.0,-601.5 -421.0,-521.1 -384.5,-427.4 -299.9,-414.2" fill="rgb(230,85,13)" fill-opacity="0.156" stroke="none"/><polygon points="849.0,293.4 812.4,199.7 727.9,186.5 679.9,266.9 716.4,360.6 801.0,373.8" fill="rgb(230,85,13)" fill-opacity="0.163" stroke="none"/><polygon points="-165.2,134.4 -201.7,40.8 -286.2,27.6 -334.2,108.0 -297.7,201.6 -213.2,214.8" fill="rgb(230,85,13)" fill-opacity="0.167" stroke="none"/><polygon points="-695.0,403.1 -731.5,309.5 -816.0,296.3 -863.9,376.7 -827.4,470.3 -742.9,483.5" fill="rgb(230,85,13)" fill-opacity="0.167" stroke="none"/><polygon points="-505.5,-534.3 -542.1,-627.9 -626.6,-641.1 -674.5,-560.7 -638.0,-467.1 -553.5,-453.9" fill="rgb(230,85,13)" fill-opacity="0.167" stroke="none"/><polygon points="1160.0,-537.3 1123.5,-631.0 1038.9,-644.2 990.9,-563.8 1027.4,-470.1 1112.0,-456.9" fill="rgb(230,85,13)" fill-opacity="0.170" stroke="none"/><polygon points="186.5,629.2 149.9,535.5 65.4,522.3 17.5,602.7 54.0,696.3 138.5,709.6" fill="rgb(230,85,13)" fill-opacity="0.170" stroke="none"/><polygon points="-222.3,1004.7 -258.9,911.1 -343.3,897.8 -391.3,978.2 -354.8,1071.9 -270.3,1085.1" fill="rgb(230,85,13)" fill-opacity="0.170" stroke="none"/><polygon points="-176.6,308.5 -213.2,214.8 -297.7,201.6 -345.6,282.0 -309.1,375.7 -224.6,388.9" fill="rgb(230,85,13)" fill-opacity="0.170" stroke="none"/><polygon points="641.2,-442.7 604.7,-536.4 520.2,-549.6 472.2,-469.2 508.7,-375.5 593.2,-362.3" fill="rgb(230,85,13)" fill-opacity="0.176" stroke="none"/><polygon points="826.0,641.6 789.5,547.9 705.0,534.6 657.0,615.1 693.5,708.7 778.0,722.0" fill="rgb(230,85,13)" fill-opacity="0.176" stroke="none"/><polygon points="-274.8,-146.5 -311.4,-240.1 -395.9,-253.4 -443.8,-173.0 -407.3,-79.3 -322.8,-66.1" fill="rgb(230,85,13)" fill-opacity="0.176" stroke="none"/><polygon points="122.6,-348.1 86.1,-441.7 1.6,-454.9 -46.4,-374.5 -9.9,-280.9 74.6,-267.6" fill="rgb(230,85,13)" fill-opacity="0.179" stroke="none"/><polygon points="376.2,-308.3 339.7,-402.0 255.1,-415.2 207.1,-334.8 243.7,-241.2 328.2,-227.9" fill="rgb(230,85,13)" fill-opacity="0.179" stroke="none"/><polygon points="860.4,119.3 823.9,25.6 739.4,12.4 691.4,92.8 727.9,186.5 812.4,199.7" fill="rgb(230,85,13)" fill-opacity="0.188" stroke="none"/><polygon points="255.1,-415.2 218.6,-508.9 134.1,-522.1 86.1,-441.7 122.6,-348.1 207.1,-334.8" fill="rgb(230,85,13)" fill-opacity="0.188" stroke="none"/><polygon points="405.6,1191.2 369.1,1097.5 284.6,1084.2 236.6,1164.6 273.2,1258.3 357.6,1271.6" fill="rgb(230,85,13)" fill-opacity="0.190" stroke="none"/><polygon points="284.6,1084.2 248.1,990.6 163.6,977.3 115.6,1057.7 152.1,1151.4 236.6,1164.6" fill="rgb(230,85,13)" fill-opacity="0.190" stroke="none"/><polygon points="175.0,803.3 138.5,709.6 54.0,696.3 6.0,776.7 42.6,870.4 127.0,883.7" fill="rgb(230,85,13)" fill-opacity="0.193" stroke="none"/><polygon points="629.8,-268.6 593.2,-362.3 508.7,-375.5 460.7,-295.1 497.3,-201.4 581.8,-188.2" fill="rgb(230,85,13)" fill-opacity="0.193" stroke="none"/><polygon points="970.0,400.3 933.5,306.7 849.0,293.4 801.0,373.8 837.5,467.5 922.0,480.8" fill="rgb(230,85,13)" fill-opacity="0.195" stroke="none"/><polygon points="-188.1,482.6 -224.6,388.9 -309.1,375.7 -357.0,456.1 -320.5,549.7 -236.0,563.0" fill="rgb(230,85,13)" fill-opacity="0.198" stroke="none"/><polygon points="-78.5,763.5 -115.0,669.8 -199.5,656.6 -247.4,737.0 -210.9,830.7 -126.4,843.9" fill="rgb(230,85,13)" fill-opacity="0.198" stroke="none"/><polygon points="-210.9,830.7 -247.4,737.0 -331.9,723.8 -379.9,804.2 -343.3,897.8 -258.9,911.1" fill="rgb(230,85,13)" fill-opacity="0.200" stroke="none"/><polygon points="13.0,-629.0 -23.5,-722.7 -108.1,-735.9 -156.0,-655.5 -119.5,-561.8 -35.0,-548.6" fill="rgb(230,85,13)" fill-opacity="0.203" stroke="none"/><polygon points="-9.9,-280.9 -46.4,-374.5 -130.9,-387.8 -178.9,-307.3 -142.4,-213.7 -57.8,-200.5" fill="rgb(230,85,13)" fill-opacity="0.203" stroke="none"/><polygon points="762.3,-335.8 725.8,-429.5 641.2,-442.7 593.2,-362.3 629.8,-268.6 714.3,-255.4" fill="rgb(230,85,13)" fill-opacity="0.212" stroke="none"/><polygon points="54.0,696.3 17.5,602.7 -67.0,589.4 -115.0,669.8 -78.5,763.5 6.0,776.7" fill="rgb(230,85,13)" fill-opacity="0.212" stroke="none"/><polygon points="693.5,708.7 657.0,615.1 572.5,601.8 524.5,682.2 561.0,775.9 645.5,789.1" fill="rgb(230,85,13)" fill-opacity="0.214" stroke="none"/><polygon points="572.5,601.8 535.9,508.1 451.4,494.9 403.4,575.3 440.0,668.9 524.5,682.2" fill="rgb(230,85,13)" fill-opacity="0.216" stroke="none"/><polygon points="497.3,-201.4 460.7,-295.1 376.2,-308.3 328.2,-227.9 364.7,-134.3 449.3,-121.0" fill="rgb(230,85,13)" fill-opacity="0.218" stroke="none"/><polygon points="750.8,-161.7 714.3,-255.4 629.8,-268.6 581.8,-188.2 618.3,-94.5 702.8,-81.3" fill="rgb(230,85,13)" fill-opacity="0.220" stroke="none"/><polygon points="595.4,253.6 558.9,160.0 474.3,146.7 426.3,227.1 462.9,320.8 547.4,334.1" fill="rgb(230,85,13)" fill-opacity="0.224" stroke="none"/><polygon points="296.0,910.2 259.5,816.5 175.0,803.3 127.0,883.7 163.6,977.3 248.1,990.6" fill="rgb(230,85,13)" fill-opacity="0.224" stroke="none"/><polygon points="739.4,12.4 702.8,-81.3 618.3,-94.5 570.3,-14.1 606.8,79.6 691.4,92.8" fill="rgb(230,85,13)" fill-opacity="0.224" stroke="none"/><polygon points="837.5,467.5 801.0,373.8 716.4,360.6 668.4,441.0 705.0,534.6 789.5,547.9" fill="rgb(230,85,13)" fill-opacity="0.224" stroke="none"/><polygon points="-142.4,-213.7 -178.9,-307.3 -263.4,-320.6 -311.4,-240.1 -274.8,-146.5 -190.3,-133.3" fill="rgb(230,85,13)" fill-opacity="0.232" stroke="none"/><polygon points="-67.0,589.4 -103.6,495.8 -188.1,482.6 -236.0,563.0 -199.5,656.6 -115.0,669.8" fill="rgb(230,85,13)" fill-opacity="0.245" stroke="none"/><polygon points="307.5,736.1 271.0,642.4 186.5,629.2 138.5,709.6 175.0,803.3 259.5,816.5" fill="rgb(230,85,13)" fill-opacity="0.255" stroke="none"/><polygon points="618.3,-94.5 581.8,-188.2 497.3,-201.4 449.3,-121.0 485.8,-27.4 570.3,-14.1" fill="rgb(230,85,13)" fill-opacity="0.257" stroke="none"/><polygon points="485.8,-27.4 449.3,-121.0 364.7,-134.3 316.8,-53.9 353.3,39.8 437.8,53.1" fill="rgb(230,85,13)" fill-opacity="0.260" stroke="none"/><polygon points="-32.7,67.3 -69.3,-26.4 -153.8,-39.6 -201.7,40.8 -165.2,134.4 -80.7,147.7" fill="rgb(230,85,13)" fill-opacity="0.260" stroke="none"/><polygon points="232.2,-67.1 195.7,-160.7 111.2,-174.0 63.2,-93.6 99.7,0.1 184.3,13.3" fill="rgb(230,85,13)" fill-opacity="0.266" stroke="none"/><polygon points="-263.4,-320.6 -299.9,-414.2 -384.5,-427.4 -432.4,-347.0 -395.9,-253.4 -311.4,-240.1" fill="rgb(230,85,13)" fill-opacity="0.272" stroke="none"/><polygon points="462.9,320.8 426.3,227.1 341.8,213.9 293.9,294.3 330.4,388.0 414.9,401.2" fill="rgb(230,85,13)" fill-opacity="0.277" stroke="none"/><polygon points="716.4,360.6 679.9,266.9 595.4,253.6 547.4,334.1 583.9,427.7 668.4,441.0" fill="rgb(230,85,13)" fill-opacity="0.286" stroke="none"/><polygon points="727.9,186.5 691.4,92.8 606.8,79.6 558.9,160.0 595.4,253.6 679.9,266.9" fill="rgb(230,85,13)" fill-opacity="0.287" stroke="none"/><polygon points="243.7,-241.2 207.1,-334.8 122.6,-348.1 74.6,-267.6 111.2,-174.0 195.7,-160.7" fill="rgb(230,85,13)" fill-opacity="0.297" stroke="none"/><polygon points="-44.2,241.3 -80.7,147.7 -165.2,134.4 -213.2,214.8 -176.6,308.5 -92.1,321.7" fill="rgb(230,85,13)" fill-opacity="0.310" stroke="none"/><polygon points="65.4,522.3 28.9,428.6 -55.6,415.4 -103.6,495.8 -67.0,589.4 17.5,602.7" fill="rgb(230,85,13)" fill-opacity="0.315" stroke="none"/><polygon points="364.7,-134.3 328.2,-227.9 243.7,-241.2 195.7,-160.7 232.2,-67.1 316.8,-53.9" fill="rgb(230,85,13)" fill-opacity="0.319" stroke="none"/><polygon points="318.9,562.0 282.4,468.4 197.9,455.1 149.9,535.5 186.5,629.2 271.0,642.4" fill="rgb(230,85,13)" fill-opacity="0.323" stroke="none"/><polygon points="99.7,0.1 63.2,-93.6 -21.3,-106.8 -69.3,-26.4 -32.7,67.3 51.8,80.5" fill="rgb(230,85,13)" fill-opacity="0.339" stroke="none"/><polygon points="606.8,79.6 570.3,-14.1 485.8,-27.4 437.8,53.1 474.3,146.7 558.9,160.0" fill="rgb(230,85,13)" fill-opacity="0.341" stroke="none"/><polygon points="-153.8,-39.6 -190.3,-133.3 -274.8,-146.5 -322.8,-66.1 -286.2,27.6 -201.7,40.8" fill="rgb(230,85,13)" fill-opacity="0.351" stroke="none"/><polygon points="-21.3,-106.8 -57.8,-200.5 -142.4,-213.7 -190.3,-133.3 -153.8,-39.6 -69.3,-26.4" fill="rgb(230,85,13)" fill-opacity="0.355" stroke="none"/><polygon points="440.0,668.9 403.4,575.3 318.9,562.0 271.0,642.4 307.5,736.1 392.0,749.4" fill="rgb(230,85,13)" fill-opacity="0.372" stroke="none"/><polygon points="353.3,39.8 316.8,-53.9 232.2,-67.1 184.3,13.3 220.8,107.0 305.3,120.2" fill="rgb(230,85,13)" fill-opacity="0.403" stroke="none"/><polygon points="451.4,494.9 414.9,401.2 330.4,388.0 282.4,468.4 318.9,562.0 403.4,575.3" fill="rgb(230,85,13)" fill-opacity="0.414" stroke="none"/><polygon points="330.4,388.0 293.9,294.3 209.3,281.1 161.4,361.5 197.9,455.1 282.4,468.4" fill="rgb(230,85,13)" fill-opacity="0.430" stroke="none"/><polygon points="474.3,146.7 437.8,53.1 353.3,39.8 305.3,120.2 341.8,213.9 426.3,227.1" fill="rgb(230,85,13)" fill-opacity="0.454" stroke="none"/><polygon points="88.3,174.2 51.8,80.5 -32.7,67.3 -80.7,147.7 -44.2,241.3 40.3,254.6" fill="rgb(230,85,13)" fill-opacity="0.479" stroke="none"/><polygon points="209.3,281.1 172.8,187.4 88.3,174.2 40.3,254.6 76.9,348.2 161.4,361.5" fill="rgb(230,85,13)" fill-opacity="0.559" stroke="none"/><polygon points="341.8,213.9 305.3,120.2 220.8,107.0 172.8,187.4 209.3,281.1 293.9,294.3" fill="rgb(230,85,13)" fill-opacity="0.700" stroke="none"/><polygon points="-32.7,67.3 -69.3,-26.4 -153.8,-39.6 -201.7,40.8 -165.2,134.4 -80.7,147.7" fill="none" stroke="#111827" stroke-width="1.35" stroke-dasharray="4 3" stroke-linejoin="round"/><polygon points="209.3,281.1 172.8,187.4 88.3,174.2 40.3,254.6 76.9,348.2 161.4,361.5" fill="none" stroke="#111827" stroke-width="1.35" stroke-dasharray="4 3" stroke-linejoin="round"/><polygon points="232.2,-67.1 195.7,-160.7 111.2,-174.0 63.2,-93.6 99.7,0.1 184.3,13.3" fill="none" stroke="#111827" stroke-width="1.35" stroke-dasharray="4 3" stroke-linejoin="round"/><polygon points="474.3,146.7 437.8,53.1 353.3,39.8 305.3,120.2 341.8,213.9 426.3,227.1" fill="none" stroke="#111827" stroke-width="1.35" stroke-dasharray="4 3" stroke-linejoin="round"/><polygon points="197.9,455.1 161.4,361.5 76.9,348.2 28.9,428.6 65.4,522.3 149.9,535.5" fill="none" stroke="#111827" stroke-width="1.35" stroke-dasharray="4 3" stroke-linejoin="round"/><polygon points="-44.2,241.3 -80.7,147.7 -165.2,134.4 -213.2,214.8 -176.6,308.5 -92.1,321.7" fill="none" stroke="#111827" stroke-width="1.35" stroke-dasharray="4 3" stroke-linejoin="round"/><polygon points="186.5,629.2 149.9,535.5 65.4,522.3 17.5,602.7 54.0,696.3 138.5,709.6" fill="none" stroke="#111827" stroke-width="1.35" stroke-dasharray="4 3" stroke-linejoin="round"/><polygon points="99.7,0.1 63.2,-93.6 -21.3,-106.8 -69.3,-26.4 -32.7,67.3 51.8,80.5" fill="none" stroke="#111827" stroke-width="1.35" stroke-dasharray="4 3" stroke-linejoin="round"/><polygon points="318.9,562.0 282.4,468.4 197.9,455.1 149.9,535.5 186.5,629.2 271.0,642.4" fill="none" stroke="#111827" stroke-width="1.35" stroke-dasharray="4 3" stroke-linejoin="round"/><polygon points="65.4,522.3 28.9,428.6 -55.6,415.4 -103.6,495.8 -67.0,589.4 17.5,602.7" fill="none" stroke="#111827" stroke-width="1.35" stroke-dasharray="4 3" stroke-linejoin="round"/><polygon points="330.4,388.0 293.9,294.3 209.3,281.1 161.4,361.5 197.9,455.1 282.4,468.4" fill="none" stroke="#111827" stroke-width="1.35" stroke-dasharray="4 3" stroke-linejoin="round"/><polygon points="353.3,39.8 316.8,-53.9 232.2,-67.1 184.3,13.3 220.8,107.0 305.3,120.2" fill="none" stroke="#111827" stroke-width="1.35" stroke-dasharray="4 3" stroke-linejoin="round"/><polygon points="451.4,494.9 414.9,401.2 330.4,388.0 282.4,468.4 318.9,562.0 403.4,575.3" fill="none" stroke="#111827" stroke-width="1.35" stroke-dasharray="4 3" stroke-linejoin="round"/><polygon points="220.8,107.0 184.3,13.3 99.7,0.1 51.8,80.5 88.3,174.2 172.8,187.4" fill="none" stroke="#111827" stroke-width="1.35" stroke-dasharray="4 3" stroke-linejoin="round"/><polygon points="462.9,320.8 426.3,227.1 341.8,213.9 293.9,294.3 330.4,388.0 414.9,401.2" fill="none" stroke="#111827" stroke-width="1.35" stroke-dasharray="4 3" stroke-linejoin="round"/><polygon points="341.8,213.9 305.3,120.2 220.8,107.0 172.8,187.4 209.3,281.1 293.9,294.3" fill="none" stroke="#111827" stroke-width="1.35" stroke-dasharray="4 3" stroke-linejoin="round"/><polygon points="-55.6,415.4 -92.1,321.7 -176.6,308.5 -224.6,388.9 -188.1,482.6 -103.6,495.8" fill="none" stroke="#111827" stroke-width="1.35" stroke-dasharray="4 3" stroke-linejoin="round"/><polygon points="76.9,348.2 40.3,254.6 -44.2,241.3 -92.1,321.7 -55.6,415.4 28.9,428.6" fill="none" stroke="#111827" stroke-width="1.35" stroke-dasharray="4 3" stroke-linejoin="round"/><polygon points="88.3,174.2 51.8,80.5 -32.7,67.3 -80.7,147.7 -44.2,241.3 40.3,254.6" fill="none" stroke="#111827" stroke-width="1.35" stroke-dasharray="4 3" stroke-linejoin="round"/><polygon points="485.8,-27.4 449.3,-121.0 364.7,-134.3 316.8,-53.9 353.3,39.8 437.8,53.1" fill="none" stroke="#111827" stroke-width="2.15" stroke-linejoin="round"/><polygon points="618.3,-94.5 581.8,-188.2 497.3,-201.4 449.3,-121.0 485.8,-27.4 570.3,-14.1" fill="none" stroke="#111827" stroke-width="2.15" stroke-linejoin="round"/><polygon points="716.4,360.6 679.9,266.9 595.4,253.6 547.4,334.1 583.9,427.7 668.4,441.0" fill="none" stroke="#111827" stroke-width="2.15" stroke-linejoin="round"/><polygon points="-142.4,-213.7 -178.9,-307.3 -263.4,-320.6 -311.4,-240.1 -274.8,-146.5 -190.3,-133.3" fill="none" stroke="#111827" stroke-width="2.15" stroke-linejoin="round"/><polygon points="606.8,79.6 570.3,-14.1 485.8,-27.4 437.8,53.1 474.3,146.7 558.9,160.0" fill="none" stroke="#111827" stroke-width="2.15" stroke-linejoin="round"/><polygon points="-67.0,589.4 -103.6,495.8 -188.1,482.6 -236.0,563.0 -199.5,656.6 -115.0,669.8" fill="none" stroke="#111827" stroke-width="2.15" stroke-linejoin="round"/><polygon points="739.4,12.4 702.8,-81.3 618.3,-94.5 570.3,-14.1 606.8,79.6 691.4,92.8" fill="none" stroke="#111827" stroke-width="2.15" stroke-linejoin="round"/><polygon points="-21.3,-106.8 -57.8,-200.5 -142.4,-213.7 -190.3,-133.3 -153.8,-39.6 -69.3,-26.4" fill="none" stroke="#111827" stroke-width="2.15" stroke-linejoin="round"/><polygon points="296.0,910.2 259.5,816.5 175.0,803.3 127.0,883.7 163.6,977.3 248.1,990.6" fill="none" stroke="#111827" stroke-width="2.15" stroke-linejoin="round"/><polygon points="307.5,736.1 271.0,642.4 186.5,629.2 138.5,709.6 175.0,803.3 259.5,816.5" fill="none" stroke="#111827" stroke-width="2.15" stroke-linejoin="round"/><polygon points="364.7,-134.3 328.2,-227.9 243.7,-241.2 195.7,-160.7 232.2,-67.1 316.8,-53.9" fill="none" stroke="#111827" stroke-width="2.15" stroke-linejoin="round"/><polygon points="727.9,186.5 691.4,92.8 606.8,79.6 558.9,160.0 595.4,253.6 679.9,266.9" fill="none" stroke="#111827" stroke-width="2.15" stroke-linejoin="round"/><polygon points="750.8,-161.7 714.3,-255.4 629.8,-268.6 581.8,-188.2 618.3,-94.5 702.8,-81.3" fill="none" stroke="#111827" stroke-width="2.15" stroke-linejoin="round"/><polygon points="440.0,668.9 403.4,575.3 318.9,562.0 271.0,642.4 307.5,736.1 392.0,749.4" fill="none" stroke="#111827" stroke-width="2.15" stroke-linejoin="round"/><polygon points="-153.8,-39.6 -190.3,-133.3 -274.8,-146.5 -322.8,-66.1 -286.2,27.6 -201.7,40.8" fill="none" stroke="#111827" stroke-width="2.15" stroke-linejoin="round"/><polygon points="243.7,-241.2 207.1,-334.8 122.6,-348.1 74.6,-267.6 111.2,-174.0 195.7,-160.7" fill="none" stroke="#111827" stroke-width="2.15" stroke-linejoin="round"/><polygon points="-263.4,-320.6 -299.9,-414.2 -384.5,-427.4 -432.4,-347.0 -395.9,-253.4 -311.4,-240.1" fill="none" stroke="#111827" stroke-width="2.15" stroke-linejoin="round"/><polygon points="595.4,253.6 558.9,160.0 474.3,146.7 426.3,227.1 462.9,320.8 547.4,334.1" fill="none" stroke="#111827" stroke-width="2.15" stroke-linejoin="round"/><polygon points="837.5,467.5 801.0,373.8 716.4,360.6 668.4,441.0 705.0,534.6 789.5,547.9" fill="none" stroke="#111827" stroke-width="2.15" stroke-linejoin="round"/><polyline points="151.8,230.3 205.3,195.9 208.9,209.2 212.6,222.6 216.3,236.0 219.9,249.3 223.6,262.7 227.2,276.0 230.9,289.4 234.6,302.8 238.2,316.1" fill="none" stroke="#dc2626" stroke-width="3" stroke-linecap="round" stroke-linejoin="round"/><circle cx="205.3" cy="195.9" r="2.1" fill="#dc2626"/><circle cx="208.9" cy="209.2" r="2.1" fill="#dc2626"/><circle cx="212.6" cy="222.6" r="2.1" fill="#dc2626"/><circle cx="216.3" cy="236.0" r="2.1" fill="#dc2626"/><circle cx="219.9" cy="249.3" r="2.1" fill="#dc2626"/><circle cx="223.6" cy="262.7" r="2.1" fill="#dc2626"/><circle cx="227.2" cy="276.0" r="2.1" fill="#dc2626"/><circle cx="230.9" cy="289.4" r="2.1" fill="#dc2626"/><circle cx="234.6" cy="302.8" r="2.1" fill="#dc2626"/><circle cx="238.2" cy="316.1" r="2.1" fill="#dc2626"/><circle cx="151.8" cy="230.3" r="6" fill="#2563eb" stroke="white" stroke-width="2"/><path d="M238.2,309.1 L245.2,316.1 L238.2,323.1 L231.2,316.1 Z" fill="#dc2626" stroke="white" stroke-width="2"/></g><text x="18" y="484" font-size="10.5" fill="#475569">● 시작 · ━ 정답 이동 · ◆ 현재 실제 위치</text><text x="18" y="503" font-size="10.5" fill="#475569">검정 점선 D1 · 검정 실선 알림 후보 셀</text></g><g transform="translate(816,105)"><rect x="0" y="0" width="390" height="520" rx="14" fill="#fff" stroke="#d8dee9"/><text x="18" y="28" font-size="18" font-weight="700" fill="#111827">C EXAONE 개인화</text><text x="372" y="28" text-anchor="end" font-size="12" fill="#64748b">유효 · 평가 불필요</text><g clip-path="url(#map-clip)"><use href="#roads"/><polygon points="42.6,870.4 6.0,776.7 -78.5,763.5 -126.4,843.9 -89.9,937.6 -5.4,950.8" fill="rgb(35,139,69)" fill-opacity="0.105" stroke="none"/><polygon points="-176.6,308.5 -213.2,214.8 -297.7,201.6 -345.6,282.0 -309.1,375.7 -224.6,388.9" fill="rgb(35,139,69)" fill-opacity="0.105" stroke="none"/><polygon points="122.6,-348.1 86.1,-441.7 1.6,-454.9 -46.4,-374.5 -9.9,-280.9 74.6,-267.6" fill="rgb(35,139,69)" fill-opacity="0.105" stroke="none"/><polygon points="485.8,-27.4 449.3,-121.0 364.7,-134.3 316.8,-53.9 353.3,39.8 437.8,53.1" fill="rgb(35,139,69)" fill-opacity="0.105" stroke="none"/><polygon points="970.0,400.3 933.5,306.7 849.0,293.4 801.0,373.8 837.5,467.5 922.0,480.8" fill="rgb(35,139,69)" fill-opacity="0.105" stroke="none"/><polygon points="-108.1,-735.9 -144.6,-829.5 -229.1,-842.8 -277.1,-762.3 -240.6,-668.7 -156.0,-655.5" fill="rgb(35,139,69)" fill-opacity="0.105" stroke="none"/><polygon points="-210.9,830.7 -247.4,737.0 -331.9,723.8 -379.9,804.2 -343.3,897.8 -258.9,911.1" fill="rgb(35,139,69)" fill-opacity="0.105" stroke="none"/><polygon points="664.2,-790.9 627.6,-884.6 543.1,-897.8 495.1,-817.4 531.6,-723.7 616.2,-710.5" fill="rgb(35,139,69)" fill-opacity="0.105" stroke="none"/><polygon points="716.4,360.6 679.9,266.9 595.4,253.6 547.4,334.1 583.9,427.7 668.4,441.0" fill="rgb(35,139,69)" fill-opacity="0.105" stroke="none"/><polygon points="837.5,467.5 801.0,373.8 716.4,360.6 668.4,441.0 705.0,534.6 789.5,547.9" fill="rgb(35,139,69)" fill-opacity="0.105" stroke="none"/><polygon points="111.2,-174.0 74.6,-267.6 -9.9,-280.9 -57.8,-200.5 -21.3,-106.8 63.2,-93.6" fill="rgb(35,139,69)" fill-opacity="0.105" stroke="none"/><polygon points="-309.1,375.7 -345.6,282.0 -430.1,268.8 -478.1,349.2 -441.5,442.8 -357.0,456.1" fill="rgb(35,139,69)" fill-opacity="0.105" stroke="none"/><polygon points="-21.3,-106.8 -57.8,-200.5 -142.4,-213.7 -190.3,-133.3 -153.8,-39.6 -69.3,-26.4" fill="rgb(35,139,69)" fill-opacity="0.105" stroke="none"/><polygon points="-320.5,549.7 -357.0,456.1 -441.5,442.8 -489.5,523.2 -452.9,616.9 -368.5,630.1" fill="rgb(35,139,69)" fill-opacity="0.105" stroke="none"/><polygon points="860.4,119.3 823.9,25.6 739.4,12.4 691.4,92.8 727.9,186.5 812.4,199.7" fill="rgb(35,139,69)" fill-opacity="0.105" stroke="none"/><polygon points="1056.6,1029.6 1020.1,935.9 935.6,922.6 887.6,1003.0 924.1,1096.7 1008.6,1110.0" fill="rgb(35,139,69)" fill-opacity="0.105" stroke="none"/><polygon points="-32.7,67.3 -69.3,-26.4 -153.8,-39.6 -201.7,40.8 -165.2,134.4 -80.7,147.7" fill="rgb(35,139,69)" fill-opacity="0.105" stroke="none"/><polygon points="-263.4,-320.6 -299.9,-414.2 -384.5,-427.4 -432.4,-347.0 -395.9,-253.4 -311.4,-240.1" fill="rgb(35,139,69)" fill-opacity="0.116" stroke="none"/><polygon points="76.9,348.2 40.3,254.6 -44.2,241.3 -92.1,321.7 -55.6,415.4 28.9,428.6" fill="rgb(35,139,69)" fill-opacity="0.119" stroke="none"/><polygon points="-55.6,415.4 -92.1,321.7 -176.6,308.5 -224.6,388.9 -188.1,482.6 -103.6,495.8" fill="rgb(35,139,69)" fill-opacity="0.119" stroke="none"/><polygon points="618.3,-94.5 581.8,-188.2 497.3,-201.4 449.3,-121.0 485.8,-27.4 570.3,-14.1" fill="rgb(35,139,69)" fill-opacity="0.119" stroke="none"/><polygon points="-89.9,937.6 -126.4,843.9 -210.9,830.7 -258.9,911.1 -222.3,1004.7 -137.8,1018.0" fill="rgb(35,139,69)" fill-opacity="0.119" stroke="none"/><polygon points="-274.8,-146.5 -311.4,-240.1 -395.9,-253.4 -443.8,-173.0 -407.3,-79.3 -322.8,-66.1" fill="rgb(35,139,69)" fill-opacity="0.119" stroke="none"/><polygon points="497.3,-201.4 460.7,-295.1 376.2,-308.3 328.2,-227.9 364.7,-134.3 449.3,-121.0" fill="rgb(35,139,69)" fill-opacity="0.119" stroke="none"/><polygon points="727.9,186.5 691.4,92.8 606.8,79.6 558.9,160.0 595.4,253.6 679.9,266.9" fill="rgb(35,139,69)" fill-opacity="0.119" stroke="none"/><polygon points="186.5,629.2 149.9,535.5 65.4,522.3 17.5,602.7 54.0,696.3 138.5,709.6" fill="rgb(35,139,69)" fill-opacity="0.119" stroke="none"/><polygon points="243.7,-241.2 207.1,-334.8 122.6,-348.1 74.6,-267.6 111.2,-174.0 195.7,-160.7" fill="rgb(35,139,69)" fill-opacity="0.124" stroke="none"/><polygon points="595.4,253.6 558.9,160.0 474.3,146.7 426.3,227.1 462.9,320.8 547.4,334.1" fill="rgb(35,139,69)" fill-opacity="0.126" stroke="none"/><polygon points="739.4,12.4 702.8,-81.3 618.3,-94.5 570.3,-14.1 606.8,79.6 691.4,92.8" fill="rgb(35,139,69)" fill-opacity="0.126" stroke="none"/><polygon points="-67.0,589.4 -103.6,495.8 -188.1,482.6 -236.0,563.0 -199.5,656.6 -115.0,669.8" fill="rgb(35,139,69)" fill-opacity="0.126" stroke="none"/><polygon points="705.0,534.6 668.4,441.0 583.9,427.7 535.9,508.1 572.5,601.8 657.0,615.1" fill="rgb(35,139,69)" fill-opacity="0.126" stroke="none"/><polygon points="-9.9,-280.9 -46.4,-374.5 -130.9,-387.8 -178.9,-307.3 -142.4,-213.7 -57.8,-200.5" fill="rgb(35,139,69)" fill-opacity="0.126" stroke="none"/><polygon points="99.7,0.1 63.2,-93.6 -21.3,-106.8 -69.3,-26.4 -32.7,67.3 51.8,80.5" fill="rgb(35,139,69)" fill-opacity="0.133" stroke="none"/><polygon points="693.5,708.7 657.0,615.1 572.5,601.8 524.5,682.2 561.0,775.9 645.5,789.1" fill="rgb(35,139,69)" fill-opacity="0.135" stroke="none"/><polygon points="417.1,1017.1 380.5,923.4 296.0,910.2 248.1,990.6 284.6,1084.2 369.1,1097.5" fill="rgb(35,139,69)" fill-opacity="0.135" stroke="none"/><polygon points="284.6,1084.2 248.1,990.6 163.6,977.3 115.6,1057.7 152.1,1151.4 236.6,1164.6" fill="rgb(35,139,69)" fill-opacity="0.135" stroke="none"/><polygon points="606.8,79.6 570.3,-14.1 485.8,-27.4 437.8,53.1 474.3,146.7 558.9,160.0" fill="rgb(35,139,69)" fill-opacity="0.138" stroke="none"/><polygon points="-153.8,-39.6 -190.3,-133.3 -274.8,-146.5 -322.8,-66.1 -286.2,27.6 -201.7,40.8" fill="rgb(35,139,69)" fill-opacity="0.138" stroke="none"/><polygon points="364.7,-134.3 328.2,-227.9 243.7,-241.2 195.7,-160.7 232.2,-67.1 316.8,-53.9" fill="rgb(35,139,69)" fill-opacity="0.140" stroke="none"/><polygon points="232.2,-67.1 195.7,-160.7 111.2,-174.0 63.2,-93.6 99.7,0.1 184.3,13.3" fill="rgb(35,139,69)" fill-opacity="0.140" stroke="none"/><polygon points="572.5,601.8 535.9,508.1 451.4,494.9 403.4,575.3 440.0,668.9 524.5,682.2" fill="rgb(35,139,69)" fill-opacity="0.152" stroke="none"/><polygon points="561.0,775.9 524.5,682.2 440.0,668.9 392.0,749.4 428.5,843.0 513.0,856.3" fill="rgb(35,139,69)" fill-opacity="0.156" stroke="none"/><polygon points="-44.2,241.3 -80.7,147.7 -165.2,134.4 -213.2,214.8 -176.6,308.5 -92.1,321.7" fill="rgb(35,139,69)" fill-opacity="0.156" stroke="none"/><polygon points="462.9,320.8 426.3,227.1 341.8,213.9 293.9,294.3 330.4,388.0 414.9,401.2" fill="rgb(35,139,69)" fill-opacity="0.156" stroke="none"/><polygon points="54.0,696.3 17.5,602.7 -67.0,589.4 -115.0,669.8 -78.5,763.5 6.0,776.7" fill="rgb(35,139,69)" fill-opacity="0.165" stroke="none"/><polygon points="826.0,641.6 789.5,547.9 705.0,534.6 657.0,615.1 693.5,708.7 778.0,722.0" fill="rgb(35,139,69)" fill-opacity="0.170" stroke="none"/><polygon points="353.3,39.8 316.8,-53.9 232.2,-67.1 184.3,13.3 220.8,107.0 305.3,120.2" fill="rgb(35,139,69)" fill-opacity="0.176" stroke="none"/><polygon points="474.3,146.7 437.8,53.1 353.3,39.8 305.3,120.2 341.8,213.9 426.3,227.1" fill="rgb(35,139,69)" fill-opacity="0.180" stroke="none"/><polygon points="428.5,843.0 392.0,749.4 307.5,736.1 259.5,816.5 296.0,910.2 380.5,923.4" fill="rgb(35,139,69)" fill-opacity="0.192" stroke="none"/><polygon points="296.0,910.2 259.5,816.5 175.0,803.3 127.0,883.7 163.6,977.3 248.1,990.6" fill="rgb(35,139,69)" fill-opacity="0.210" stroke="none"/><polygon points="65.4,522.3 28.9,428.6 -55.6,415.4 -103.6,495.8 -67.0,589.4 17.5,602.7" fill="rgb(35,139,69)" fill-opacity="0.229" stroke="none"/><polygon points="88.3,174.2 51.8,80.5 -32.7,67.3 -80.7,147.7 -44.2,241.3 40.3,254.6" fill="rgb(35,139,69)" fill-opacity="0.243" stroke="none"/><polygon points="451.4,494.9 414.9,401.2 330.4,388.0 282.4,468.4 318.9,562.0 403.4,575.3" fill="rgb(35,139,69)" fill-opacity="0.259" stroke="none"/><polygon points="307.5,736.1 271.0,642.4 186.5,629.2 138.5,709.6 175.0,803.3 259.5,816.5" fill="rgb(35,139,69)" fill-opacity="0.299" stroke="none"/><polygon points="318.9,562.0 282.4,468.4 197.9,455.1 149.9,535.5 186.5,629.2 271.0,642.4" fill="rgb(35,139,69)" fill-opacity="0.302" stroke="none"/><polygon points="341.8,213.9 305.3,120.2 220.8,107.0 172.8,187.4 209.3,281.1 293.9,294.3" fill="rgb(35,139,69)" fill-opacity="0.371" stroke="none"/><polygon points="330.4,388.0 293.9,294.3 209.3,281.1 161.4,361.5 197.9,455.1 282.4,468.4" fill="rgb(35,139,69)" fill-opacity="0.387" stroke="none"/><polygon points="440.0,668.9 403.4,575.3 318.9,562.0 271.0,642.4 307.5,736.1 392.0,749.4" fill="rgb(35,139,69)" fill-opacity="0.500" stroke="none"/><polygon points="209.3,281.1 172.8,187.4 88.3,174.2 40.3,254.6 76.9,348.2 161.4,361.5" fill="rgb(35,139,69)" fill-opacity="0.700" stroke="none"/><polygon points="-32.7,67.3 -69.3,-26.4 -153.8,-39.6 -201.7,40.8 -165.2,134.4 -80.7,147.7" fill="none" stroke="#111827" stroke-width="1.35" stroke-dasharray="4 3" stroke-linejoin="round"/><polygon points="209.3,281.1 172.8,187.4 88.3,174.2 40.3,254.6 76.9,348.2 161.4,361.5" fill="none" stroke="#111827" stroke-width="1.35" stroke-dasharray="4 3" stroke-linejoin="round"/><polygon points="232.2,-67.1 195.7,-160.7 111.2,-174.0 63.2,-93.6 99.7,0.1 184.3,13.3" fill="none" stroke="#111827" stroke-width="1.35" stroke-dasharray="4 3" stroke-linejoin="round"/><polygon points="474.3,146.7 437.8,53.1 353.3,39.8 305.3,120.2 341.8,213.9 426.3,227.1" fill="none" stroke="#111827" stroke-width="1.35" stroke-dasharray="4 3" stroke-linejoin="round"/><polygon points="197.9,455.1 161.4,361.5 76.9,348.2 28.9,428.6 65.4,522.3 149.9,535.5" fill="none" stroke="#111827" stroke-width="1.35" stroke-dasharray="4 3" stroke-linejoin="round"/><polygon points="-44.2,241.3 -80.7,147.7 -165.2,134.4 -213.2,214.8 -176.6,308.5 -92.1,321.7" fill="none" stroke="#111827" stroke-width="1.35" stroke-dasharray="4 3" stroke-linejoin="round"/><polygon points="186.5,629.2 149.9,535.5 65.4,522.3 17.5,602.7 54.0,696.3 138.5,709.6" fill="none" stroke="#111827" stroke-width="1.35" stroke-dasharray="4 3" stroke-linejoin="round"/><polygon points="99.7,0.1 63.2,-93.6 -21.3,-106.8 -69.3,-26.4 -32.7,67.3 51.8,80.5" fill="none" stroke="#111827" stroke-width="1.35" stroke-dasharray="4 3" stroke-linejoin="round"/><polygon points="318.9,562.0 282.4,468.4 197.9,455.1 149.9,535.5 186.5,629.2 271.0,642.4" fill="none" stroke="#111827" stroke-width="1.35" stroke-dasharray="4 3" stroke-linejoin="round"/><polygon points="65.4,522.3 28.9,428.6 -55.6,415.4 -103.6,495.8 -67.0,589.4 17.5,602.7" fill="none" stroke="#111827" stroke-width="1.35" stroke-dasharray="4 3" stroke-linejoin="round"/><polygon points="330.4,388.0 293.9,294.3 209.3,281.1 161.4,361.5 197.9,455.1 282.4,468.4" fill="none" stroke="#111827" stroke-width="1.35" stroke-dasharray="4 3" stroke-linejoin="round"/><polygon points="353.3,39.8 316.8,-53.9 232.2,-67.1 184.3,13.3 220.8,107.0 305.3,120.2" fill="none" stroke="#111827" stroke-width="1.35" stroke-dasharray="4 3" stroke-linejoin="round"/><polygon points="451.4,494.9 414.9,401.2 330.4,388.0 282.4,468.4 318.9,562.0 403.4,575.3" fill="none" stroke="#111827" stroke-width="1.35" stroke-dasharray="4 3" stroke-linejoin="round"/><polygon points="220.8,107.0 184.3,13.3 99.7,0.1 51.8,80.5 88.3,174.2 172.8,187.4" fill="none" stroke="#111827" stroke-width="1.35" stroke-dasharray="4 3" stroke-linejoin="round"/><polygon points="462.9,320.8 426.3,227.1 341.8,213.9 293.9,294.3 330.4,388.0 414.9,401.2" fill="none" stroke="#111827" stroke-width="1.35" stroke-dasharray="4 3" stroke-linejoin="round"/><polygon points="341.8,213.9 305.3,120.2 220.8,107.0 172.8,187.4 209.3,281.1 293.9,294.3" fill="none" stroke="#111827" stroke-width="1.35" stroke-dasharray="4 3" stroke-linejoin="round"/><polygon points="-55.6,415.4 -92.1,321.7 -176.6,308.5 -224.6,388.9 -188.1,482.6 -103.6,495.8" fill="none" stroke="#111827" stroke-width="1.35" stroke-dasharray="4 3" stroke-linejoin="round"/><polygon points="76.9,348.2 40.3,254.6 -44.2,241.3 -92.1,321.7 -55.6,415.4 28.9,428.6" fill="none" stroke="#111827" stroke-width="1.35" stroke-dasharray="4 3" stroke-linejoin="round"/><polygon points="88.3,174.2 51.8,80.5 -32.7,67.3 -80.7,147.7 -44.2,241.3 40.3,254.6" fill="none" stroke="#111827" stroke-width="1.35" stroke-dasharray="4 3" stroke-linejoin="round"/><polygon points="428.5,843.0 392.0,749.4 307.5,736.1 259.5,816.5 296.0,910.2 380.5,923.4" fill="none" stroke="#111827" stroke-width="2.15" stroke-linejoin="round"/><polygon points="606.8,79.6 570.3,-14.1 485.8,-27.4 437.8,53.1 474.3,146.7 558.9,160.0" fill="none" stroke="#111827" stroke-width="2.15" stroke-linejoin="round"/><polygon points="-67.0,589.4 -103.6,495.8 -188.1,482.6 -236.0,563.0 -199.5,656.6 -115.0,669.8" fill="none" stroke="#111827" stroke-width="2.15" stroke-linejoin="round"/><polygon points="739.4,12.4 702.8,-81.3 618.3,-94.5 570.3,-14.1 606.8,79.6 691.4,92.8" fill="none" stroke="#111827" stroke-width="2.15" stroke-linejoin="round"/><polygon points="705.0,534.6 668.4,441.0 583.9,427.7 535.9,508.1 572.5,601.8 657.0,615.1" fill="none" stroke="#111827" stroke-width="2.15" stroke-linejoin="round"/><polygon points="296.0,910.2 259.5,816.5 175.0,803.3 127.0,883.7 163.6,977.3 248.1,990.6" fill="none" stroke="#111827" stroke-width="2.15" stroke-linejoin="round"/><polygon points="284.6,1084.2 248.1,990.6 163.6,977.3 115.6,1057.7 152.1,1151.4 236.6,1164.6" fill="none" stroke="#111827" stroke-width="2.15" stroke-linejoin="round"/><polygon points="307.5,736.1 271.0,642.4 186.5,629.2 138.5,709.6 175.0,803.3 259.5,816.5" fill="none" stroke="#111827" stroke-width="2.15" stroke-linejoin="round"/><polygon points="364.7,-134.3 328.2,-227.9 243.7,-241.2 195.7,-160.7 232.2,-67.1 316.8,-53.9" fill="none" stroke="#111827" stroke-width="2.15" stroke-linejoin="round"/><polygon points="693.5,708.7 657.0,615.1 572.5,601.8 524.5,682.2 561.0,775.9 645.5,789.1" fill="none" stroke="#111827" stroke-width="2.15" stroke-linejoin="round"/><polygon points="417.1,1017.1 380.5,923.4 296.0,910.2 248.1,990.6 284.6,1084.2 369.1,1097.5" fill="none" stroke="#111827" stroke-width="2.15" stroke-linejoin="round"/><polygon points="54.0,696.3 17.5,602.7 -67.0,589.4 -115.0,669.8 -78.5,763.5 6.0,776.7" fill="none" stroke="#111827" stroke-width="2.15" stroke-linejoin="round"/><polygon points="572.5,601.8 535.9,508.1 451.4,494.9 403.4,575.3 440.0,668.9 524.5,682.2" fill="none" stroke="#111827" stroke-width="2.15" stroke-linejoin="round"/><polygon points="440.0,668.9 403.4,575.3 318.9,562.0 271.0,642.4 307.5,736.1 392.0,749.4" fill="none" stroke="#111827" stroke-width="2.15" stroke-linejoin="round"/><polygon points="-153.8,-39.6 -190.3,-133.3 -274.8,-146.5 -322.8,-66.1 -286.2,27.6 -201.7,40.8" fill="none" stroke="#111827" stroke-width="2.15" stroke-linejoin="round"/><polygon points="826.0,641.6 789.5,547.9 705.0,534.6 657.0,615.1 693.5,708.7 778.0,722.0" fill="none" stroke="#111827" stroke-width="2.15" stroke-linejoin="round"/><polygon points="595.4,253.6 558.9,160.0 474.3,146.7 426.3,227.1 462.9,320.8 547.4,334.1" fill="none" stroke="#111827" stroke-width="2.15" stroke-linejoin="round"/><polygon points="561.0,775.9 524.5,682.2 440.0,668.9 392.0,749.4 428.5,843.0 513.0,856.3" fill="none" stroke="#111827" stroke-width="2.15" stroke-linejoin="round"/><polygon points="-9.9,-280.9 -46.4,-374.5 -130.9,-387.8 -178.9,-307.3 -142.4,-213.7 -57.8,-200.5" fill="none" stroke="#111827" stroke-width="2.15" stroke-linejoin="round"/><polyline points="151.8,230.3 205.3,195.9 208.9,209.2 212.6,222.6 216.3,236.0 219.9,249.3 223.6,262.7 227.2,276.0 230.9,289.4 234.6,302.8 238.2,316.1" fill="none" stroke="#dc2626" stroke-width="3" stroke-linecap="round" stroke-linejoin="round"/><circle cx="205.3" cy="195.9" r="2.1" fill="#dc2626"/><circle cx="208.9" cy="209.2" r="2.1" fill="#dc2626"/><circle cx="212.6" cy="222.6" r="2.1" fill="#dc2626"/><circle cx="216.3" cy="236.0" r="2.1" fill="#dc2626"/><circle cx="219.9" cy="249.3" r="2.1" fill="#dc2626"/><circle cx="223.6" cy="262.7" r="2.1" fill="#dc2626"/><circle cx="227.2" cy="276.0" r="2.1" fill="#dc2626"/><circle cx="230.9" cy="289.4" r="2.1" fill="#dc2626"/><circle cx="234.6" cy="302.8" r="2.1" fill="#dc2626"/><circle cx="238.2" cy="316.1" r="2.1" fill="#dc2626"/><circle cx="151.8" cy="230.3" r="6" fill="#2563eb" stroke="white" stroke-width="2"/><path d="M238.2,309.1 L245.2,316.1 L238.2,323.1 L231.2,316.1 Z" fill="#dc2626" stroke="white" stroke-width="2"/></g><text x="18" y="484" font-size="10.5" fill="#475569">● 시작 · ━ 정답 이동 · ◆ 현재 실제 위치</text><text x="18" y="503" font-size="10.5" fill="#475569">검정 점선 D1 · 검정 실선 알림 후보 셀</text></g><text x="0" y="648" font-size="13" font-weight="600" fill="#334155">SP02-consistent | consistent | kakao | 길음1동주민센터</text></svg>