<svg xmlns="http://www.w3.org/2000/svg" width="1206" height="655" viewBox="0 0 1206 655" role="img" aria-label="45분 · SP03-consistent · 지속 이동형 · A 성공 · B 성공 · C 성공"><style>text{font-family:"Apple SD Gothic Neo","Noto Sans KR",sans-serif}</style><rect width="1206" height="655" rx="18" fill="#fff"/><text x="22" y="40" font-size="25" font-weight="800" fill="#111827">45분 · SP03-consistent · 지속 이동형</text><text x="22" y="76" font-size="17" font-weight="750" fill="#111827">A 성공 · B 성공 · C 성공</text><defs><clipPath id="map-clip"><rect x="12" y="52" width="366" height="408"/></clipPath><g id="roads" fill="none" stroke="#d7dce2" stroke-width="0.75"><path d="M251.4,84.6 L254.5,90.1"/><path d="M251.4,84.6 L246.8,88.5"/><path d="M251.4,84.6 L285.2,48.6"/><path d="M251.4,84.6 L222.8,40.5"/><path d="M81.2,462.8 L81.4,451.1"/><path d="M137.6,168.9 L183.7,136.7"/><path d="M137.6,168.9 L137.7,109.7"/><path d="M137.6,168.9 L108.2,209.7"/><path d="M31.5,444.9 L119.6,515.0"/><path d="M31.5,444.9 L23.6,437.0"/><path d="M31.5,444.9 L-6.5,507.1"/><path d="M31.5,444.9 L60.4,467.1"/><path d="M551.5,120.4 L335.5,81.1"/><path d="M703.2,181.9 L335.5,81.1"/><path d="M705.1,175.8 L338.6,68.9"/><path d="M184.1,245.0 L188.5,270.5"/><path d="M184.1,245.0 L167.2,248.0"/><path d="M184.1,245.0 L211.7,234.5"/><path d="M245.5,213.4 L241.0,216.9"/><path d="M245.5,213.4 L239.2,204.8"/><path d="M245.5,213.4 L284.7,161.9"/><path d="M82.2,437.6 L81.4,451.1"/><path d="M82.2,437.6 L83.3,415.0"/><path d="M82.2,437.6 L61.7,434.9"/><path d="M61.7,434.9 L54.7,429.7"/><path d="M61.7,434.9 L43.7,455.3"/><path d="M83.3,415.0 L86.6,360.1"/><path d="M83.3,415.0 L68.7,404.6"/><path d="M16.6,411.2 L17.6,412.2"/><path d="M16.6,411.2 L8.0,392.8"/><path d="M16.6,411.2 L5.2,414.7"/><path d="M31.1,403.4 L56.6,361.6"/><path d="M31.1,403.4 L11.1,382.5"/><path d="M31.1,403.4 L44.5,413.0"/><path d="M11.1,382.5 L13.5,373.9"/><path d="M56.6,361.6 L47.9,358.4"/><path d="M56.6,361.6 L57.3,357.2"/><path d="M86.6,360.1 L93.8,279.9"/><path d="M86.6,360.1 L70.5,358.3"/><path d="M70.5,358.3 L68.7,404.6"/><path d="M70.5,358.3 L57.3,357.2"/><path d="M70.5,358.3 L55.3,287.9"/><path d="M57.3,357.2 L38.3,329.3"/><path d="M21.1,352.4 L24.3,349.8"/><path d="M21.1,352.4 L13.5,373.9"/><path d="M21.1,352.4 L13.3,362.7"/><path d="M24.3,349.8 L38.3,329.3"/><path d="M24.3,349.8 L48.3,352.8"/><path d="M38.1,316.3 L47.5,285.1"/><path d="M38.1,316.3 L38.3,329.3"/><path d="M17.7,298.6 L30.5,294.1"/><path d="M17.7,298.6 L-27.9,301.6"/><path d="M17.7,298.6 L-20.5,283.0"/><path d="M47.5,285.1 L34.6,280.8"/><path d="M47.5,285.1 L55.3,287.9"/><path d="M55.3,287.9 L41.6,262.1"/><path d="M34.6,280.8 L41.6,262.1"/><path d="M34.6,280.8 L-13.5,263.6"/><path d="M34.6,280.8 L30.5,294.1"/><path d="M-6.6,244.2 L41.6,262.1"/><path d="M49.2,242.0 L41.6,262.1"/><path d="M49.2,242.0 L58.6,244.0"/><path d="M49.2,242.0 L25.5,231.7"/><path d="M371.1,445.6 L374.3,435.3"/><path d="M371.1,445.6 L374.8,492.3"/><path d="M371.1,445.6 L353.2,439.7"/><path d="M374.3,435.3 L394.1,440.1"/><path d="M374.3,435.3 L407.5,394.2"/><path d="M111.0,418.9 L110.3,422.6"/><path d="M111.0,418.9 L142.5,357.8"/><path d="M142.5,357.8 L151.8,369.9"/><path d="M142.5,357.8 L170.3,326.3"/><path d="M142.5,357.8 L187.9,304.2"/><path d="M209.9,362.1 L217.2,337.7"/><path d="M209.9,362.1 L243.0,345.2"/><path d="M209.9,362.1 L196.6,401.6"/><path d="M243.0,345.2 L217.2,337.7"/><path d="M243.0,345.2 L253.9,297.9"/><path d="M217.2,337.7 L224.1,297.8"/><path d="M253.9,297.9 L256.2,259.8"/><path d="M253.9,297.9 L224.1,297.8"/><path d="M224.1,297.8 L224.5,269.6"/><path d="M224.5,269.6 L215.3,243.3"/><path d="M224.5,269.6 L256.2,259.8"/><path d="M256.2,259.8 L241.0,216.9"/><path d="M211.7,234.5 L215.3,243.3"/><path d="M211.7,234.5 L241.0,216.9"/><path d="M410.1,227.1 L358.3,175.7"/><path d="M315.3,155.2 L358.3,175.7"/><path d="M315.3,155.2 L284.7,161.9"/><path d="M315.3,155.2 L350.9,107.7"/><path d="M465.2,114.3 L350.9,107.7"/><path d="M465.2,114.3 L343.4,100.1"/><path d="M350.9,107.7 L343.4,100.1"/><path d="M330.5,87.1 L329.8,87.8"/><path d="M330.5,87.1 L330.9,87.6"/><path d="M330.5,87.1 L379.3,62.0"/><path d="M325.4,60.2 L324.8,54.7"/><path d="M325.4,60.2 L282.1,72.2"/><path d="M325.4,60.2 L379.8,45.3"/><path d="M380.0,39.4 L324.8,54.7"/><path d="M212.0,221.7 L239.2,204.8"/><path d="M212.0,221.7 L217.3,212.3"/><path d="M212.0,221.7 L166.5,238.7"/><path d="M42.1,217.8 L54.9,199.7"/><path d="M42.1,217.8 L-34.0,188.2"/><path d="M42.1,217.8 L105.9,220.0"/><path d="M108.2,209.7 L54.9,199.7"/><path d="M108.2,209.7 L105.9,220.0"/><path d="M263.4,102.7 L259.8,97.3"/><path d="M263.4,102.7 L257.3,118.2"/><path d="M263.4,102.7 L269.2,111.0"/><path d="M135.8,97.7 L137.7,109.7"/><path d="M135.8,97.7 L138.3,76.3"/><path d="M135.8,97.7 L131.9,77.0"/><path d="M24.1,93.6 L54.9,199.7"/><path d="M24.1,93.6 L-7.7,51.4"/><path d="M24.1,93.6 L48.6,81.3"/><path d="M226.5,104.5 L183.7,136.7"/><path d="M226.5,104.5 L237.6,94.8"/><path d="M226.5,104.5 L181.5,83.3"/><path d="M104.6,-5.9 L124.2,52.7"/><path d="M324.8,54.7 L310.4,39.3"/><path d="M54.9,199.7 L-32.6,178.8"/><path d="M4.6,384.2 L13.3,362.7"/><path d="M23.6,437.0 L29.9,439.9"/><path d="M23.6,437.0 L17.6,412.2"/><path d="M23.6,437.0 L-3.0,431.7"/><path d="M17.6,412.2 L44.5,413.0"/><path d="M29.9,439.9 L43.7,455.3"/><path d="M29.9,439.9 L44.5,413.0"/><path d="M47.9,358.4 L48.3,352.8"/><path d="M47.9,358.4 L13.5,373.9"/><path d="M49.0,350.2 L48.3,352.8"/><path d="M58.8,403.7 L68.7,404.6"/><path d="M58.8,403.7 L58.5,412.0"/><path d="M58.8,403.7 L50.4,401.8"/><path d="M173.5,54.9 L162.8,76.0"/><path d="M173.5,54.9 L192.1,67.7"/><path d="M173.5,54.9 L103.5,-78.3"/><path d="M173.5,54.9 L147.1,-78.6"/><path d="M162.8,76.0 L181.5,83.3"/><path d="M162.8,76.0 L139.0,66.7"/><path d="M162.8,76.0 L140.3,73.6"/><path d="M358.3,175.7 L350.4,185.1"/><path d="M343.8,193.0 L350.4,185.1"/><path d="M343.8,193.0 L299.9,220.1"/><path d="M299.9,220.1 L289.3,227.0"/><path d="M289.3,227.0 L260.4,241.4"/><path d="M289.3,227.0 L293.5,244.6"/><path d="M350.4,185.1 L344.9,224.6"/><path d="M344.9,224.6 L344.9,224.6"/><path d="M237.6,94.8 L235.5,92.8"/><path d="M237.6,94.8 L242.1,91.7"/><path d="M237.6,94.8 L242.2,100.4"/><path d="M183.7,136.7 L180.8,133.1"/><path d="M183.7,136.7 L189.5,144.5"/><path d="M-912.2,-147.5 L338.6,68.9"/><path d="M-911.9,-136.4 L335.5,81.1"/><path d="M-42.7,193.3 L166.5,238.7"/><path d="M166.5,238.7 L167.2,248.0"/><path d="M239.2,204.8 L287.7,136.6"/><path d="M239.2,204.8 L217.3,212.3"/><path d="M284.7,161.9 L295.0,142.2"/><path d="M58.6,244.0 L81.3,251.6"/><path d="M58.6,244.0 L57.8,237.1"/><path d="M81.3,251.6 L93.8,279.9"/><path d="M81.3,251.6 L99.1,253.7"/><path d="M25.5,231.7 L14.5,226.9"/><path d="M25.5,231.7 L57.8,237.1"/><path d="M132.0,250.7 L167.2,248.0"/><path d="M132.0,250.7 L125.8,268.9"/><path d="M132.0,250.7 L57.8,237.1"/><path d="M14.5,226.9 L1.0,222.2"/><path d="M14.5,226.9 L57.8,237.1"/><path d="M236.3,169.1 L248.4,174.2"/><path d="M236.3,169.1 L208.8,154.0"/><path d="M236.3,169.1 L257.3,118.2"/><path d="M236.3,169.1 L217.3,212.3"/><path d="M379.5,53.6 L321.9,80.3"/><path d="M295.0,142.2 L287.7,136.6"/><path d="M295.0,142.2 L329.8,87.8"/><path d="M329.8,87.8 L321.9,80.3"/><path d="M329.8,87.8 L330.9,87.6"/><path d="M321.9,80.3 L287.7,136.6"/><path d="M338.6,68.9 L501.6,79.8"/><path d="M310.4,39.3 L280.3,71.2"/><path d="M280.3,71.2 L276.8,70.0"/><path d="M280.3,71.2 L282.1,72.2"/><path d="M280.3,71.2 L261.8,96.0"/><path d="M257.3,118.2 L259.8,97.3"/><path d="M287.7,136.6 L269.2,111.0"/><path d="M187.9,304.2 L170.3,326.3"/><path d="M187.9,304.2 L188.5,270.5"/><path d="M330.9,87.6 L343.4,100.1"/><path d="M77.1,449.3 L81.4,451.1"/><path d="M94.1,452.2 L92.3,451.9"/><path d="M81.4,451.1 L92.3,451.9"/><path d="M195.7,139.3 L197.7,142.9"/><path d="M195.7,139.3 L189.5,144.5"/><path d="M195.7,139.3 L242.2,100.4"/><path d="M167.2,248.0 L127.4,271.4"/><path d="M125.8,268.9 L127.4,271.4"/><path d="M125.8,268.9 L104.3,263.9"/><path d="M125.8,268.9 L111.9,254.9"/><path d="M104.3,263.9 L189.5,144.5"/><path d="M104.3,263.9 L98.4,299.9"/><path d="M98.4,299.9 L96.7,323.3"/><path d="M98.4,299.9 L127.4,271.4"/><path d="M208.8,154.0 L197.7,142.9"/><path d="M208.8,154.0 L188.5,184.8"/><path d="M110.3,422.6 L128.4,430.2"/><path d="M110.3,422.6 L92.3,467.3"/><path d="M128.4,430.2 L150.3,373.7"/><path d="M128.4,430.2 L126.2,435.8"/><path d="M110.5,476.2 L118.1,456.8"/><path d="M154.5,362.9 L151.8,369.9"/><path d="M151.8,369.9 L150.3,373.7"/><path d="M118.1,456.8 L126.2,435.8"/><path d="M118.1,456.8 L159.5,475.0"/><path d="M183.8,477.1 L190.8,421.4"/><path d="M126.2,435.8 L164.4,429.4"/><path d="M150.3,373.7 L165.8,380.3"/><path d="M165.8,380.3 L165.8,380.3"/><path d="M181.6,333.3 L181.6,333.3"/><path d="M181.6,333.3 L170.3,326.3"/><path d="M190.8,421.4 L196.6,401.6"/><path d="M190.8,421.4 L207.0,428.4"/><path d="M196.6,401.6 L205.7,395.3"/><path d="M200.5,267.5 L188.5,270.5"/><path d="M200.5,267.5 L200.5,267.5"/><path d="M200.5,267.5 L215.3,243.3"/><path d="M124.2,52.7 L48.6,81.3"/><path d="M124.2,52.7 L128.4,69.5"/><path d="M124.2,52.7 L135.1,64.9"/><path d="M137.7,109.7 L111.6,103.6"/><path d="M32.8,19.7 L48.6,81.3"/><path d="M353.2,439.7 L394.6,378.5"/><path d="M353.2,439.7 L342.7,433.5"/><path d="M382.3,375.8 L342.7,433.5"/><path d="M342.7,433.5 L357.3,391.0"/><path d="M259.8,97.3 L261.8,96.0"/><path d="M259.8,97.3 L254.5,90.1"/><path d="M307.4,36.8 L276.8,70.0"/><path d="M276.8,70.0 L264.4,81.2"/><path d="M190.7,146.5 L189.5,144.5"/><path d="M194.5,145.6 L197.7,142.9"/><path d="M199.9,140.8 L197.7,142.9"/><path d="M244.7,103.0 L242.2,100.4"/><path d="M254.5,90.1 L264.4,81.2"/><path d="M254.5,90.1 L242.2,100.4"/><path d="M269.2,111.0 L261.8,96.0"/><path d="M264.4,81.2 L261.8,96.0"/><path d="M105.9,220.0 L99.1,253.7"/><path d="M93.8,279.9 L99.1,253.7"/><path d="M96.7,323.3 L92.9,428.1"/><path d="M92.3,467.3 L92.3,451.9"/><path d="M92.3,451.9 L92.9,428.1"/><path d="M181.5,83.3 L184.3,75.3"/><path d="M246.8,88.5 L242.1,91.7"/><path d="M246.8,88.5 L206.3,60.8"/><path d="M218.7,83.3 L242.1,91.7"/><path d="M57.2,462.4 L43.7,455.3"/><path d="M13.3,362.7 L30.5,294.1"/><path d="M128.4,69.5 L131.9,77.0"/><path d="M128.4,69.5 L135.1,64.9"/><path d="M138.3,76.3 L140.3,73.6"/><path d="M138.3,76.3 L131.9,77.0"/><path d="M139.0,66.7 L135.1,64.9"/><path d="M139.0,66.7 L140.3,73.6"/></g></defs><g transform="translate(0,105)"><rect x="0" y="0" width="390" height="520" rx="14" fill="#fff" stroke="#d8dee9"/><text x="18" y="28" font-size="18" font-weight="700" fill="#111827">A 거리 기준</text><text x="372" y="28" text-anchor="end" font-size="12" fill="#64748b">유효 · D2 외부커버 100.0%</text><g clip-path="url(#map-clip)"><use href="#roads"/><polygon points="47.8,-246.2 11.3,-339.9 -73.2,-353.1 -121.2,-272.7 -84.7,-179.1 -0.1,-165.8" fill="rgb(49,130,189)" fill-opacity="0.282" stroke="none"/><polygon points="808.6,-127.0 772.1,-220.6 687.5,-233.9 639.5,-153.5 676.1,-59.8 760.6,-46.5" fill="rgb(49,130,189)" fill-opacity="0.286" stroke="none"/><polygon points="180.3,-313.4 143.8,-407.1 59.3,-420.3 11.3,-339.9 47.8,-246.2 132.4,-233.0" fill="rgb(49,130,189)" fill-opacity="0.289" stroke="none"/><polygon points="-96.1,-5.0 -132.6,-98.7 -217.1,-111.9 -265.1,-31.5 -228.6,62.1 -144.1,75.4" fill="rgb(49,130,189)" fill-opacity="0.293" stroke="none"/><polygon points="687.5,-233.9 651.0,-327.6 566.5,-340.8 518.5,-260.4 555.0,-166.7 639.5,-153.5" fill="rgb(49,130,189)" fill-opacity="0.296" stroke="none"/><polygon points="-107.5,169.0 -144.1,75.4 -228.6,62.1 -276.5,142.6 -240.0,236.2 -155.5,249.5" fill="rgb(49,130,189)" fill-opacity="0.301" stroke="none"/><polygon points="2.1,450.0 -34.5,356.4 -119.0,343.1 -166.9,423.5 -130.4,517.2 -45.9,530.4" fill="rgb(49,130,189)" fill-opacity="0.306" stroke="none"/><polygon points="123.1,556.9 86.6,463.3 2.1,450.0 -45.9,530.4 -9.4,624.1 75.1,637.3" fill="rgb(49,130,189)" fill-opacity="0.307" stroke="none"/><polygon points="774.2,395.3 737.6,301.6 653.1,288.4 605.1,368.8 641.6,462.4 726.2,475.7" fill="rgb(49,130,189)" fill-opacity="0.316" stroke="none"/><polygon points="376.6,596.7 340.1,503.1 255.6,489.8 207.6,570.2 244.1,663.9 328.6,677.1" fill="rgb(49,130,189)" fill-opacity="0.329" stroke="none"/><polygon points="433.9,-273.7 397.4,-367.3 312.9,-380.6 264.9,-300.2 301.4,-206.5 385.9,-193.2" fill="rgb(49,130,189)" fill-opacity="0.334" stroke="none"/><polygon points="797.1,47.1 760.6,-46.5 676.1,-59.8 628.0,20.6 664.6,114.3 749.1,127.5" fill="rgb(49,130,189)" fill-opacity="0.335" stroke="none"/><polygon points="36.4,-72.2 -0.1,-165.8 -84.7,-179.1 -132.6,-98.7 -96.1,-5.0 -11.6,8.2" fill="rgb(49,130,189)" fill-opacity="0.348" stroke="none"/><polygon points="785.6,221.2 749.1,127.5 664.6,114.3 616.6,194.7 653.1,288.4 737.6,301.6" fill="rgb(49,130,189)" fill-opacity="0.349" stroke="none"/><polygon points="641.6,462.4 605.1,368.8 520.6,355.5 472.6,435.9 509.1,529.6 593.6,542.9" fill="rgb(49,130,189)" fill-opacity="0.354" stroke="none"/><polygon points="509.1,529.6 472.6,435.9 388.1,422.6 340.1,503.1 376.6,596.7 461.1,610.0" fill="rgb(49,130,189)" fill-opacity="0.359" stroke="none"/><polygon points="13.5,276.0 -23.0,182.3 -107.5,169.0 -155.5,249.5 -119.0,343.1 -34.5,356.4" fill="rgb(49,130,189)" fill-opacity="0.367" stroke="none"/><polygon points="301.4,-206.5 264.9,-300.2 180.3,-313.4 132.4,-233.0 168.9,-139.3 253.4,-126.1" fill="rgb(49,130,189)" fill-opacity="0.379" stroke="none"/><polygon points="555.0,-166.7 518.5,-260.4 433.9,-273.7 385.9,-193.2 422.5,-99.6 507.0,-86.3" fill="rgb(49,130,189)" fill-opacity="0.381" stroke="none"/><polygon points="676.1,-59.8 639.5,-153.5 555.0,-166.7 507.0,-86.3 543.5,7.3 628.0,20.6" fill="rgb(49,130,189)" fill-opacity="0.382" stroke="none"/><polygon points="168.9,-139.3 132.4,-233.0 47.8,-246.2 -0.1,-165.8 36.4,-72.2 120.9,-58.9" fill="rgb(49,130,189)" fill-opacity="0.385" stroke="none"/><polygon points="25.0,101.9 -11.6,8.2 -96.1,-5.0 -144.1,75.4 -107.5,169.0 -23.0,182.3" fill="rgb(49,130,189)" fill-opacity="0.388" stroke="none"/><polygon points="255.6,489.8 219.1,396.1 134.5,382.9 86.6,463.3 123.1,556.9 207.6,570.2" fill="rgb(49,130,189)" fill-opacity="0.389" stroke="none"/><polygon points="134.5,382.9 98.0,289.2 13.5,276.0 -34.5,356.4 2.1,450.0 86.6,463.3" fill="rgb(49,130,189)" fill-opacity="0.408" stroke="none"/><polygon points="653.1,288.4 616.6,194.7 532.1,181.4 484.1,261.8 520.6,355.5 605.1,368.8" fill="rgb(49,130,189)" fill-opacity="0.434" stroke="none"/><polygon points="664.6,114.3 628.0,20.6 543.5,7.3 495.5,87.8 532.1,181.4 616.6,194.7" fill="rgb(49,130,189)" fill-opacity="0.449" stroke="none"/><polygon points="388.1,422.6 351.6,329.0 267.0,315.7 219.1,396.1 255.6,489.8 340.1,503.1" fill="rgb(49,130,189)" fill-opacity="0.469" stroke="none"/><polygon points="422.5,-99.6 385.9,-193.2 301.4,-206.5 253.4,-126.1 289.9,-32.4 374.5,-19.2" fill="rgb(49,130,189)" fill-opacity="0.478" stroke="none"/><polygon points="157.4,34.7 120.9,-58.9 36.4,-72.2 -11.6,8.2 25.0,101.9 109.5,115.1" fill="rgb(49,130,189)" fill-opacity="0.484" stroke="none"/><polygon points="520.6,355.5 484.1,261.8 399.5,248.6 351.6,329.0 388.1,422.6 472.6,435.9" fill="rgb(49,130,189)" fill-opacity="0.493" stroke="none"/><polygon points="146.0,208.8 109.5,115.1 25.0,101.9 -23.0,182.3 13.5,276.0 98.0,289.2" fill="rgb(49,130,189)" fill-opacity="0.498" stroke="none"/><polygon points="543.5,7.3 507.0,-86.3 422.5,-99.6 374.5,-19.2 411.0,74.5 495.5,87.8" fill="rgb(49,130,189)" fill-opacity="0.519" stroke="none"/><polygon points="289.9,-32.4 253.4,-126.1 168.9,-139.3 120.9,-58.9 157.4,34.7 242.0,48.0" fill="rgb(49,130,189)" fill-opacity="0.534" stroke="none"/><polygon points="267.0,315.7 230.5,222.1 146.0,208.8 98.0,289.2 134.5,382.9 219.1,396.1" fill="rgb(49,130,189)" fill-opacity="0.548" stroke="none"/><polygon points="532.1,181.4 495.5,87.8 411.0,74.5 363.0,154.9 399.5,248.6 484.1,261.8" fill="rgb(49,130,189)" fill-opacity="0.601" stroke="none"/><polygon points="278.5,141.7 242.0,48.0 157.4,34.7 109.5,115.1 146.0,208.8 230.5,222.1" fill="rgb(49,130,189)" fill-opacity="0.676" stroke="none"/><polygon points="399.5,248.6 363.0,154.9 278.5,141.7 230.5,222.1 267.0,315.7 351.6,329.0" fill="rgb(49,130,189)" fill-opacity="0.687" stroke="none"/><polygon points="411.0,74.5 374.5,-19.2 289.9,-32.4 242.0,48.0 278.5,141.7 363.0,154.9" fill="rgb(49,130,189)" fill-opacity="0.700" stroke="none"/><polygon points="520.6,355.5 484.1,261.8 399.5,248.6 351.6,329.0 388.1,422.6 472.6,435.9" fill="none" stroke="#111827" stroke-width="1.35" stroke-dasharray="4 3" stroke-linejoin="round"/><polygon points="267.0,315.7 230.5,222.1 146.0,208.8 98.0,289.2 134.5,382.9 219.1,396.1" fill="none" stroke="#111827" stroke-width="1.35" stroke-dasharray="4 3" stroke-linejoin="round"/><polygon points="555.0,-166.7 518.5,-260.4 433.9,-273.7 385.9,-193.2 422.5,-99.6 507.0,-86.3" fill="none" stroke="#111827" stroke-width="1.35" stroke-dasharray="4 3" stroke-linejoin="round"/><polygon points="157.4,34.7 120.9,-58.9 36.4,-72.2 -11.6,8.2 25.0,101.9 109.5,115.1" fill="none" stroke="#111827" stroke-width="1.35" stroke-dasharray="4 3" stroke-linejoin="round"/><polygon points="543.5,7.3 507.0,-86.3 422.5,-99.6 374.5,-19.2 411.0,74.5 495.5,87.8" fill="none" stroke="#111827" stroke-width="1.35" stroke-dasharray="4 3" stroke-linejoin="round"/><polygon points="146.0,208.8 109.5,115.1 25.0,101.9 -23.0,182.3 13.5,276.0 98.0,289.2" fill="none" stroke="#111827" stroke-width="1.35" stroke-dasharray="4 3" stroke-linejoin="round"/><polygon points="532.1,181.4 495.5,87.8 411.0,74.5 363.0,154.9 399.5,248.6 484.1,261.8" fill="none" stroke="#111827" stroke-width="1.35" stroke-dasharray="4 3" stroke-linejoin="round"/><polygon points="388.1,422.6 351.6,329.0 267.0,315.7 219.1,396.1 255.6,489.8 340.1,503.1" fill="none" stroke="#111827" stroke-width="1.35" stroke-dasharray="4 3" stroke-linejoin="round"/><polygon points="168.9,-139.3 132.4,-233.0 47.8,-246.2 -0.1,-165.8 36.4,-72.2 120.9,-58.9" fill="none" stroke="#111827" stroke-width="1.35" stroke-dasharray="4 3" stroke-linejoin="round"/><polygon points="289.9,-32.4 253.4,-126.1 168.9,-139.3 120.9,-58.9 157.4,34.7 242.0,48.0" fill="none" stroke="#111827" stroke-width="1.35" stroke-dasharray="4 3" stroke-linejoin="round"/><polygon points="301.4,-206.5 264.9,-300.2 180.3,-313.4 132.4,-233.0 168.9,-139.3 253.4,-126.1" fill="none" stroke="#111827" stroke-width="1.35" stroke-dasharray="4 3" stroke-linejoin="round"/><polygon points="411.0,74.5 374.5,-19.2 289.9,-32.4 242.0,48.0 278.5,141.7 363.0,154.9" fill="none" stroke="#111827" stroke-width="1.35" stroke-dasharray="4 3" stroke-linejoin="round"/><polygon points="278.5,141.7 242.0,48.0 157.4,34.7 109.5,115.1 146.0,208.8 230.5,222.1" fill="none" stroke="#111827" stroke-width="1.35" stroke-dasharray="4 3" stroke-linejoin="round"/><polygon points="653.1,288.4 616.6,194.7 532.1,181.4 484.1,261.8 520.6,355.5 605.1,368.8" fill="none" stroke="#111827" stroke-width="1.35" stroke-dasharray="4 3" stroke-linejoin="round"/><polygon points="664.6,114.3 628.0,20.6 543.5,7.3 495.5,87.8 532.1,181.4 616.6,194.7" fill="none" stroke="#111827" stroke-width="1.35" stroke-dasharray="4 3" stroke-linejoin="round"/><polygon points="433.9,-273.7 397.4,-367.3 312.9,-380.6 264.9,-300.2 301.4,-206.5 385.9,-193.2" fill="none" stroke="#111827" stroke-width="1.35" stroke-dasharray="4 3" stroke-linejoin="round"/><polygon points="422.5,-99.6 385.9,-193.2 301.4,-206.5 253.4,-126.1 289.9,-32.4 374.5,-19.2" fill="none" stroke="#111827" stroke-width="1.35" stroke-dasharray="4 3" stroke-linejoin="round"/><polygon points="399.5,248.6 363.0,154.9 278.5,141.7 230.5,222.1 267.0,315.7 351.6,329.0" fill="none" stroke="#111827" stroke-width="1.35" stroke-dasharray="4 3" stroke-linejoin="round"/><polygon points="676.1,-59.8 639.5,-153.5 555.0,-166.7 507.0,-86.3 543.5,7.3 628.0,20.6" fill="none" stroke="#111827" stroke-width="1.35" stroke-dasharray="4 3" stroke-linejoin="round"/><polygon points="47.8,-246.2 11.3,-339.9 -73.2,-353.1 -121.2,-272.7 -84.7,-179.1 -0.1,-165.8" fill="none" stroke="#111827" stroke-width="2.15" stroke-linejoin="round"/><polygon points="36.4,-72.2 -0.1,-165.8 -84.7,-179.1 -132.6,-98.7 -96.1,-5.0 -11.6,8.2" fill="none" stroke="#111827" stroke-width="2.15" stroke-linejoin="round"/><polygon points="376.6,596.7 340.1,503.1 255.6,489.8 207.6,570.2 244.1,663.9 328.6,677.1" fill="none" stroke="#111827" stroke-width="2.15" stroke-linejoin="round"/><polygon points="774.2,395.3 737.6,301.6 653.1,288.4 605.1,368.8 641.6,462.4 726.2,475.7" fill="none" stroke="#111827" stroke-width="2.15" stroke-linejoin="round"/><polygon points="25.0,101.9 -11.6,8.2 -96.1,-5.0 -144.1,75.4 -107.5,169.0 -23.0,182.3" fill="none" stroke="#111827" stroke-width="2.15" stroke-linejoin="round"/><polygon points="509.1,529.6 472.6,435.9 388.1,422.6 340.1,503.1 376.6,596.7 461.1,610.0" fill="none" stroke="#111827" stroke-width="2.15" stroke-linejoin="round"/><polygon points="134.5,382.9 98.0,289.2 13.5,276.0 -34.5,356.4 2.1,450.0 86.6,463.3" fill="none" stroke="#111827" stroke-width="2.15" stroke-linejoin="round"/><polygon points="123.1,556.9 86.6,463.3 2.1,450.0 -45.9,530.4 -9.4,624.1 75.1,637.3" fill="none" stroke="#111827" stroke-width="2.15" stroke-linejoin="round"/><polygon points="808.6,-127.0 772.1,-220.6 687.5,-233.9 639.5,-153.5 676.1,-59.8 760.6,-46.5" fill="none" stroke="#111827" stroke-width="2.15" stroke-linejoin="round"/><polygon points="641.6,462.4 605.1,368.8 520.6,355.5 472.6,435.9 509.1,529.6 593.6,542.9" fill="none" stroke="#111827" stroke-width="2.15" stroke-linejoin="round"/><polygon points="785.6,221.2 749.1,127.5 664.6,114.3 616.6,194.7 653.1,288.4 737.6,301.6" fill="none" stroke="#111827" stroke-width="2.15" stroke-linejoin="round"/><polygon points="-96.1,-5.0 -132.6,-98.7 -217.1,-111.9 -265.1,-31.5 -228.6,62.1 -144.1,75.4" fill="none" stroke="#111827" stroke-width="2.15" stroke-linejoin="round"/><polygon points="255.6,489.8 219.1,396.1 134.5,382.9 86.6,463.3 123.1,556.9 207.6,570.2" fill="none" stroke="#111827" stroke-width="2.15" stroke-linejoin="round"/><polygon points="-107.5,169.0 -144.1,75.4 -228.6,62.1 -276.5,142.6 -240.0,236.2 -155.5,249.5" fill="none" stroke="#111827" stroke-width="2.15" stroke-linejoin="round"/><polygon points="797.1,47.1 760.6,-46.5 676.1,-59.8 628.0,20.6 664.6,114.3 749.1,127.5" fill="none" stroke="#111827" stroke-width="2.15" stroke-linejoin="round"/><polygon points="2.1,450.0 -34.5,356.4 -119.0,343.1 -166.9,423.5 -130.4,517.2 -45.9,530.4" fill="none" stroke="#111827" stroke-width="2.15" stroke-linejoin="round"/><polygon points="13.5,276.0 -23.0,182.3 -107.5,169.0 -155.5,249.5 -119.0,343.1 -34.5,356.4" fill="none" stroke="#111827" stroke-width="2.15" stroke-linejoin="round"/><polygon points="180.3,-313.4 143.8,-407.1 59.3,-420.3 11.3,-339.9 47.8,-246.2 132.4,-233.0" fill="none" stroke="#111827" stroke-width="2.15" stroke-linejoin="round"/><polygon points="687.5,-233.9 651.0,-327.6 566.5,-340.8 518.5,-260.4 555.0,-166.7 639.5,-153.5" fill="none" stroke="#111827" stroke-width="2.15" stroke-linejoin="round"/><polyline points="295.0,142.2 206.8,236.4 186.2,244.2 164.9,249.3 145.9,260.5 127.0,271.8 111.4,287.1 98.1,303.6 96.6,325.6 95.8,347.7 95.0,369.8" fill="none" stroke="#dc2626" stroke-width="3" stroke-linecap="round" stroke-linejoin="round"/><circle cx="206.8" cy="236.4" r="2.1" fill="#dc2626"/><circle cx="186.2" cy="244.2" r="2.1" fill="#dc2626"/><circle cx="164.9" cy="249.3" r="2.1" fill="#dc2626"/><circle cx="145.9" cy="260.5" r="2.1" fill="#dc2626"/><circle cx="127.0" cy="271.8" r="2.1" fill="#dc2626"/><circle cx="111.4" cy="287.1" r="2.1" fill="#dc2626"/><circle cx="98.1" cy="303.6" r="2.1" fill="#dc2626"/><circle cx="96.6" cy="325.6" r="2.1" fill="#dc2626"/><circle cx="95.8" cy="347.7" r="2.1" fill="#dc2626"/><circle cx="95.0" cy="369.8" r="2.1" fill="#dc2626"/><circle cx="295.0" cy="142.2" r="6" fill="#2563eb" stroke="white" stroke-width="2"/><path d="M95.0,362.8 L102.0,369.8 L95.0,376.8 L88.0,369.8 Z" fill="#dc2626" stroke="white" stroke-width="2"/></g><text x="18" y="484" font-size="10.5" fill="#475569">● 시작 · ━ 정답 이동 · ◆ 현재 실제 위치</text><text x="18" y="503" font-size="10.5" fill="#475569">검정 점선 D1 · 검정 실선 알림 후보 셀</text></g><g transform="translate(408,105)"><rect x="0" y="0" width="390" height="520" rx="14" fill="#fff" stroke="#d8dee9"/><text x="18" y="28" font-size="18" font-weight="700" fill="#111827">B EXAONE 비개인화</text><text x="372" y="28" text-anchor="end" font-size="12" fill="#64748b">유효 · D2 외부커버 100.0%</text><g clip-path="url(#map-clip)"><use href="#roads"/><polygon points="1471.5,-462.7 1434.9,-556.4 1350.4,-569.7 1302.3,-489.2 1338.9,-395.6 1423.4,-382.3" fill="rgb(230,85,13)" fill-opacity="0.127" stroke="none"/><polygon points="860.8,1024.5 824.2,930.8 739.7,917.6 691.7,998.0 728.3,1091.6 812.8,1104.9" fill="rgb(230,85,13)" fill-opacity="0.127" stroke="none"/><polygon points="-61.8,-527.2 -98.3,-620.9 -182.8,-634.1 -230.8,-553.7 -194.3,-460.0 -109.8,-446.8" fill="rgb(230,85,13)" fill-opacity="0.127" stroke="none"/><polygon points="699.0,-408.0 662.5,-501.7 577.9,-514.9 529.9,-434.5 566.5,-340.8 651.0,-327.6" fill="rgb(230,85,13)" fill-opacity="0.127" stroke="none"/><polygon points="1183.3,19.8 1146.8,-73.9 1062.2,-87.2 1014.2,-6.7 1050.7,86.9 1135.3,100.2" fill="rgb(230,85,13)" fill-opacity="0.127" stroke="none"/><polygon points="-1352.1,-377.5 -1388.7,-471.1 -1473.1,-484.4 -1521.1,-403.9 -1484.5,-310.3 -1400.0,-297.1" fill="rgb(230,85,13)" fill-opacity="0.127" stroke="none"/><polygon points="-799.6,-994.4 -836.1,-1088.0 -920.6,-1101.2 -968.6,-1020.8 -932.0,-927.2 -847.5,-914.0" fill="rgb(230,85,13)" fill-opacity="0.127" stroke="none"/><polygon points="-977.6,-231.0 -1014.2,-324.6 -1098.7,-337.9 -1146.6,-257.5 -1110.1,-163.8 -1025.6,-150.6" fill="rgb(230,85,13)" fill-opacity="0.127" stroke="none"/><polygon points="744.9,-1104.4 708.4,-1198.0 623.8,-1211.3 575.8,-1130.9 612.3,-1037.2 696.9,-1023.9" fill="rgb(230,85,13)" fill-opacity="0.127" stroke="none"/><polygon points="47.8,-246.2 11.3,-339.9 -73.2,-353.1 -121.2,-272.7 -84.7,-179.1 -0.1,-165.8" fill="rgb(230,85,13)" fill-opacity="0.127" stroke="none"/><polygon points="-470.7,-151.6 -507.2,-245.3 -591.7,-258.5 -639.7,-178.1 -603.1,-84.5 -518.6,-71.2" fill="rgb(230,85,13)" fill-opacity="0.127" stroke="none"/><polygon points="-383.9,477.4 -420.4,383.8 -504.9,370.5 -552.9,450.9 -516.3,544.6 -431.8,557.8" fill="rgb(230,85,13)" fill-opacity="0.127" stroke="none"/><polygon points="607.2,984.7 570.7,891.0 486.2,877.7 438.2,958.1 474.7,1051.8 559.2,1065.1" fill="rgb(230,85,13)" fill-opacity="0.127" stroke="none"/><polygon points="-1473.1,-484.4 -1509.7,-578.0 -1594.2,-591.2 -1642.1,-510.8 -1605.5,-417.2 -1521.1,-403.9" fill="rgb(230,85,13)" fill-opacity="0.127" stroke="none"/><polygon points="1846.3,-315.9 1809.7,-409.6 1725.2,-422.9 1677.1,-342.5 1713.6,-248.8 1798.2,-235.5" fill="rgb(230,85,13)" fill-opacity="0.127" stroke="none"/><polygon points="-32.3,972.2 -68.8,878.5 -153.3,865.3 -201.2,945.7 -164.7,1039.3 -80.2,1052.6" fill="rgb(230,85,13)" fill-opacity="0.127" stroke="none"/><polygon points="-712.7,-365.4 -749.3,-459.0 -833.8,-472.2 -881.7,-391.8 -845.2,-298.2 -760.7,-285.0" fill="rgb(230,85,13)" fill-opacity="0.127" stroke="none"/><polygon points="-493.5,196.5 -530.0,102.8 -614.5,89.6 -662.5,170.0 -625.9,263.6 -541.4,276.9" fill="rgb(230,85,13)" fill-opacity="0.127" stroke="none"/><polygon points="-96.1,-5.0 -132.6,-98.7 -217.1,-111.9 -265.1,-31.5 -228.6,62.1 -144.1,75.4" fill="rgb(230,85,13)" fill-opacity="0.127" stroke="none"/><polygon points="1004.8,783.3 968.2,689.6 883.7,676.3 835.7,756.8 872.2,850.4 956.8,863.7" fill="rgb(230,85,13)" fill-opacity="0.127" stroke="none"/><polygon points="1062.2,-87.2 1025.7,-180.8 941.1,-194.1 893.1,-113.7 929.7,-20.0 1014.2,-6.7" fill="rgb(230,85,13)" fill-opacity="0.127" stroke="none"/><polygon points="-580.3,-432.6 -616.8,-526.2 -701.3,-539.4 -749.3,-459.0 -712.7,-365.4 -628.2,-352.1" fill="rgb(230,85,13)" fill-opacity="0.127" stroke="none"/><polygon points="1171.8,193.9 1135.3,100.2 1050.7,86.9 1002.7,167.4 1039.2,261.0 1123.8,274.3" fill="rgb(230,85,13)" fill-opacity="0.147" stroke="none"/><polygon points="353.7,944.9 317.2,851.2 232.7,837.9 184.7,918.3 221.2,1012.0 305.7,1025.3" fill="rgb(230,85,13)" fill-opacity="0.147" stroke="none"/><polygon points="433.9,-273.7 397.4,-367.3 312.9,-380.6 264.9,-300.2 301.4,-206.5 385.9,-193.2" fill="rgb(230,85,13)" fill-opacity="0.147" stroke="none"/><polygon points="728.3,1091.6 691.7,998.0 607.2,984.7 559.2,1065.1 595.8,1158.7 680.3,1172.0" fill="rgb(230,85,13)" fill-opacity="0.147" stroke="none"/><polygon points="-1098.7,-337.9 -1135.2,-431.5 -1219.7,-444.7 -1267.6,-364.3 -1231.1,-270.7 -1146.6,-257.5" fill="rgb(230,85,13)" fill-opacity="0.147" stroke="none"/><polygon points="618.7,810.6 582.2,716.9 497.7,703.7 449.7,784.1 486.2,877.7 570.7,891.0" fill="rgb(230,85,13)" fill-opacity="0.147" stroke="none"/><polygon points="-251.4,410.3 -288.0,316.6 -372.5,303.4 -420.4,383.8 -383.9,477.4 -299.4,490.7" fill="rgb(230,85,13)" fill-opacity="0.147" stroke="none"/><polygon points="-228.6,62.1 -265.1,-31.5 -349.6,-44.7 -397.6,35.7 -361.0,129.3 -276.5,142.6" fill="rgb(230,85,13)" fill-opacity="0.147" stroke="none"/><polygon points="2509.5,-651.6 2473.0,-745.3 2388.4,-758.6 2340.3,-678.2 2376.8,-584.4 2461.4,-571.2" fill="rgb(230,85,13)" fill-opacity="0.152" stroke="none"/><polygon points="1304.4,126.8 1267.8,33.1 1183.3,19.8 1135.3,100.2 1171.8,193.9 1256.3,207.2" fill="rgb(230,85,13)" fill-opacity="0.152" stroke="none"/><polygon points="993.3,957.4 956.8,863.7 872.2,850.4 824.2,930.8 860.8,1024.5 945.3,1037.8" fill="rgb(230,85,13)" fill-opacity="0.152" stroke="none"/><polygon points="376.6,596.7 340.1,503.1 255.6,489.8 207.6,570.2 244.1,663.9 328.6,677.1" fill="rgb(230,85,13)" fill-opacity="0.152" stroke="none"/><polygon points="981.8,1131.5 945.3,1037.8 860.8,1024.5 812.8,1104.9 849.3,1198.6 933.8,1211.9" fill="rgb(230,85,13)" fill-opacity="0.152" stroke="none"/><polygon points="497.7,703.7 461.1,610.0 376.6,596.7 328.6,677.1 365.2,770.8 449.7,784.1" fill="rgb(230,85,13)" fill-opacity="0.152" stroke="none"/><polygon points="831.6,-475.1 795.0,-568.8 710.5,-582.1 662.5,-501.7 699.0,-408.0 783.5,-394.7" fill="rgb(230,85,13)" fill-opacity="0.152" stroke="none"/><polygon points="-274.3,758.4 -310.8,664.7 -395.3,651.5 -443.3,731.9 -406.7,825.5 -322.2,838.8" fill="rgb(230,85,13)" fill-opacity="0.152" stroke="none"/><polygon points="36.4,-72.2 -0.1,-165.8 -84.7,-179.1 -132.6,-98.7 -96.1,-5.0 -11.6,8.2" fill="rgb(230,85,13)" fill-opacity="0.152" stroke="none"/><polygon points="157.4,34.7 120.9,-58.9 36.4,-72.2 -11.6,8.2 25.0,101.9 109.5,115.1" fill="rgb(230,85,13)" fill-opacity="0.152" stroke="none"/><polygon points="-418.2,999.5 -454.7,905.9 -539.2,892.6 -587.1,973.0 -550.6,1066.7 -466.1,1079.9" fill="rgb(230,85,13)" fill-opacity="0.152" stroke="none"/><polygon points="941.1,-194.1 904.6,-287.8 820.1,-301.0 772.1,-220.6 808.6,-127.0 893.1,-113.7" fill="rgb(230,85,13)" fill-opacity="0.152" stroke="none"/><polygon points="-372.5,303.4 -409.0,209.7 -493.5,196.5 -541.4,276.9 -504.9,370.5 -420.4,383.8" fill="rgb(230,85,13)" fill-opacity="0.152" stroke="none"/><polygon points="1137.3,716.2 1100.8,622.5 1016.3,609.2 968.2,689.6 1004.8,783.3 1089.3,796.6" fill="rgb(230,85,13)" fill-opacity="0.152" stroke="none"/><polygon points="595.8,1158.7 559.2,1065.1 474.7,1051.8 426.8,1132.2 463.3,1225.9 547.8,1239.1" fill="rgb(230,85,13)" fill-opacity="0.152" stroke="none"/><polygon points="-182.8,-634.1 -219.4,-727.8 -303.9,-741.0 -351.9,-660.6 -315.3,-566.9 -230.8,-553.7" fill="rgb(230,85,13)" fill-opacity="0.152" stroke="none"/><polygon points="-781.2,678.9 -817.7,585.2 -902.2,572.0 -950.1,652.4 -913.6,746.0 -829.1,759.3" fill="rgb(230,85,13)" fill-opacity="0.152" stroke="none"/><polygon points="964.1,-542.3 927.6,-636.0 843.0,-649.2 795.0,-568.8 831.6,-475.1 916.1,-461.9" fill="rgb(230,85,13)" fill-opacity="0.152" stroke="none"/><polygon points="365.2,770.8 328.6,677.1 244.1,663.9 196.2,744.3 232.7,837.9 317.2,851.2" fill="rgb(230,85,13)" fill-opacity="0.152" stroke="none"/><polygon points="1148.8,542.1 1112.3,448.4 1027.7,435.1 979.7,515.5 1016.3,609.2 1100.8,622.5" fill="rgb(230,85,13)" fill-opacity="0.152" stroke="none"/><polygon points="-303.9,-741.0 -340.4,-834.6 -425.0,-847.9 -472.9,-767.4 -436.4,-673.8 -351.9,-660.6" fill="rgb(230,85,13)" fill-opacity="0.152" stroke="none"/><polygon points="803.4,1894.9 766.9,1801.2 682.4,1787.9 634.4,1868.3 670.9,1962.0 755.4,1975.3" fill="rgb(230,85,13)" fill-opacity="0.161" stroke="none"/><polygon points="952.6,-368.2 916.1,-461.9 831.6,-475.1 783.5,-394.7 820.1,-301.0 904.6,-287.8" fill="rgb(230,85,13)" fill-opacity="0.166" stroke="none"/><polygon points="630.2,636.5 593.6,542.9 509.1,529.6 461.1,610.0 497.7,703.7 582.2,716.9" fill="rgb(230,85,13)" fill-opacity="0.166" stroke="none"/><polygon points="468.3,-795.9 431.8,-889.6 347.2,-902.8 299.2,-822.4 335.8,-728.7 420.3,-715.5" fill="rgb(230,85,13)" fill-opacity="0.166" stroke="none"/><polygon points="1160.3,368.0 1123.8,274.3 1039.2,261.0 991.2,341.4 1027.7,435.1 1112.3,448.4" fill="rgb(230,85,13)" fill-opacity="0.166" stroke="none"/><polygon points="733.4,-930.3 696.9,-1023.9 612.3,-1037.2 564.3,-956.8 600.9,-863.1 685.4,-849.8" fill="rgb(230,85,13)" fill-opacity="0.166" stroke="none"/><polygon points="-285.7,932.4 -322.2,838.8 -406.7,825.5 -454.7,905.9 -418.2,999.5 -333.7,1012.8" fill="rgb(230,85,13)" fill-opacity="0.166" stroke="none"/><polygon points="1050.7,86.9 1014.2,-6.7 929.7,-20.0 881.6,60.4 918.2,154.1 1002.7,167.4" fill="rgb(230,85,13)" fill-opacity="0.178" stroke="none"/><polygon points="445.4,-447.7 408.9,-541.4 324.3,-554.7 276.3,-474.2 312.9,-380.6 397.4,-367.3" fill="rgb(230,85,13)" fill-opacity="0.178" stroke="none"/><polygon points="1569.5,-7.5 1533.0,-101.2 1448.4,-114.5 1400.4,-34.1 1436.9,59.6 1521.5,72.9" fill="rgb(230,85,13)" fill-opacity="0.178" stroke="none"/><polygon points="797.1,47.1 760.6,-46.5 676.1,-59.8 628.0,20.6 664.6,114.3 749.1,127.5" fill="rgb(230,85,13)" fill-opacity="0.182" stroke="none"/><polygon points="-315.3,-566.9 -351.9,-660.6 -436.4,-673.8 -484.4,-593.4 -447.8,-499.7 -363.3,-486.5" fill="rgb(230,85,13)" fill-opacity="0.182" stroke="none"/><polygon points="203.3,-661.6 166.7,-755.2 82.2,-768.5 34.2,-688.0 70.7,-594.4 155.3,-581.1" fill="rgb(230,85,13)" fill-opacity="0.182" stroke="none"/><polygon points="589.4,-689.0 552.9,-782.7 468.3,-795.9 420.3,-715.5 456.9,-621.8 541.4,-608.6" fill="rgb(230,85,13)" fill-opacity="0.182" stroke="none"/><polygon points="1436.9,59.6 1400.4,-34.1 1315.9,-47.3 1267.8,33.1 1304.4,126.8 1388.9,140.0" fill="rgb(230,85,13)" fill-opacity="0.182" stroke="none"/><polygon points="883.7,676.3 847.2,582.7 762.7,569.4 714.7,649.8 751.2,743.5 835.7,756.8" fill="rgb(230,85,13)" fill-opacity="0.185" stroke="none"/><polygon points="-141.8,691.2 -178.4,597.6 -262.9,584.3 -310.8,664.7 -274.3,758.4 -189.8,771.6" fill="rgb(230,85,13)" fill-opacity="0.189" stroke="none"/><polygon points="168.9,-139.3 132.4,-233.0 47.8,-246.2 -0.1,-165.8 36.4,-72.2 120.9,-58.9" fill="rgb(230,85,13)" fill-opacity="0.189" stroke="none"/><polygon points="232.7,837.9 196.2,744.3 111.7,731.0 63.7,811.4 100.2,905.1 184.7,918.3" fill="rgb(230,85,13)" fill-opacity="0.189" stroke="none"/><polygon points="324.3,-554.7 287.8,-648.3 203.3,-661.6 155.3,-581.1 191.8,-487.5 276.3,-474.2" fill="rgb(230,85,13)" fill-opacity="0.192" stroke="none"/><polygon points="-361.0,129.3 -397.6,35.7 -482.1,22.4 -530.0,102.8 -493.5,196.5 -409.0,209.7" fill="rgb(230,85,13)" fill-opacity="0.192" stroke="none"/><polygon points="808.6,-127.0 772.1,-220.6 687.5,-233.9 639.5,-153.5 676.1,-59.8 760.6,-46.5" fill="rgb(230,85,13)" fill-opacity="0.192" stroke="none"/><polygon points="872.2,850.4 835.7,756.8 751.2,743.5 703.2,823.9 739.7,917.6 824.2,930.8" fill="rgb(230,85,13)" fill-opacity="0.192" stroke="none"/><polygon points="739.7,917.6 703.2,823.9 618.7,810.6 570.7,891.0 607.2,984.7 691.7,998.0" fill="rgb(230,85,13)" fill-opacity="0.192" stroke="none"/><polygon points="-73.2,-353.1 -109.8,-446.8 -194.3,-460.0 -242.2,-379.6 -205.7,-286.0 -121.2,-272.7" fill="rgb(230,85,13)" fill-opacity="0.201" stroke="none"/><polygon points="191.8,-487.5 155.3,-581.1 70.7,-594.4 22.7,-514.0 59.3,-420.3 143.8,-407.1" fill="rgb(230,85,13)" fill-opacity="0.201" stroke="none"/><polygon points="312.9,-380.6 276.3,-474.2 191.8,-487.5 143.8,-407.1 180.3,-313.4 264.9,-300.2" fill="rgb(230,85,13)" fill-opacity="0.201" stroke="none"/><polygon points="-425.0,-847.9 -461.5,-941.5 -546.0,-954.7 -594.0,-874.3 -557.4,-780.7 -472.9,-767.4" fill="rgb(230,85,13)" fill-opacity="0.201" stroke="none"/><polygon points="-205.7,-286.0 -242.2,-379.6 -326.8,-392.9 -374.7,-312.4 -338.2,-218.8 -253.7,-205.6" fill="rgb(230,85,13)" fill-opacity="0.201" stroke="none"/><polygon points="100.2,905.1 63.7,811.4 -20.8,798.1 -68.8,878.5 -32.3,972.2 52.2,985.4" fill="rgb(230,85,13)" fill-opacity="0.204" stroke="none"/><polygon points="1016.3,609.2 979.7,515.5 895.2,502.3 847.2,582.7 883.7,676.3 968.2,689.6" fill="rgb(230,85,13)" fill-opacity="0.213" stroke="none"/><polygon points="906.7,328.2 870.2,234.5 785.6,221.2 737.6,301.6 774.2,395.3 858.7,408.6" fill="rgb(230,85,13)" fill-opacity="0.213" stroke="none"/><polygon points="-482.1,22.4 -518.6,-71.2 -603.1,-84.5 -651.1,-4.1 -614.5,89.6 -530.0,102.8" fill="rgb(230,85,13)" fill-opacity="0.213" stroke="none"/><polygon points="2.1,450.0 -34.5,356.4 -119.0,343.1 -166.9,423.5 -130.4,517.2 -45.9,530.4" fill="rgb(230,85,13)" fill-opacity="0.213" stroke="none"/><polygon points="-504.9,370.5 -541.4,276.9 -625.9,263.6 -673.9,344.0 -637.3,437.7 -552.9,450.9" fill="rgb(230,85,13)" fill-opacity="0.213" stroke="none"/><polygon points="820.1,-301.0 783.5,-394.7 699.0,-408.0 651.0,-327.6 687.5,-233.9 772.1,-220.6" fill="rgb(230,85,13)" fill-opacity="0.221" stroke="none"/><polygon points="1027.7,435.1 991.2,341.4 906.7,328.2 858.7,408.6 895.2,502.3 979.7,515.5" fill="rgb(230,85,13)" fill-opacity="0.224" stroke="none"/><polygon points="676.1,-59.8 639.5,-153.5 555.0,-166.7 507.0,-86.3 543.5,7.3 628.0,20.6" fill="rgb(230,85,13)" fill-opacity="0.226" stroke="none"/><polygon points="762.7,569.4 726.2,475.7 641.6,462.4 593.6,542.9 630.2,636.5 714.7,649.8" fill="rgb(230,85,13)" fill-opacity="0.229" stroke="none"/><polygon points="687.5,-233.9 651.0,-327.6 566.5,-340.8 518.5,-260.4 555.0,-166.7 639.5,-153.5" fill="rgb(230,85,13)" fill-opacity="0.229" stroke="none"/><polygon points="111.7,731.0 75.1,637.3 -9.4,624.1 -57.3,704.5 -20.8,798.1 63.7,811.4" fill="rgb(230,85,13)" fill-opacity="0.231" stroke="none"/><polygon points="641.6,462.4 605.1,368.8 520.6,355.5 472.6,435.9 509.1,529.6 593.6,542.9" fill="rgb(230,85,13)" fill-opacity="0.231" stroke="none"/><polygon points="301.4,-206.5 264.9,-300.2 180.3,-313.4 132.4,-233.0 168.9,-139.3 253.4,-126.1" fill="rgb(230,85,13)" fill-opacity="0.231" stroke="none"/><polygon points="25.0,101.9 -11.6,8.2 -96.1,-5.0 -144.1,75.4 -107.5,169.0 -23.0,182.3" fill="rgb(230,85,13)" fill-opacity="0.238" stroke="none"/><polygon points="244.1,663.9 207.6,570.2 123.1,556.9 75.1,637.3 111.7,731.0 196.2,744.3" fill="rgb(230,85,13)" fill-opacity="0.238" stroke="none"/><polygon points="895.2,502.3 858.7,408.6 774.2,395.3 726.2,475.7 762.7,569.4 847.2,582.7" fill="rgb(230,85,13)" fill-opacity="0.241" stroke="none"/><polygon points="-130.4,517.2 -166.9,423.5 -251.4,410.3 -299.4,490.7 -262.9,584.3 -178.4,597.6" fill="rgb(230,85,13)" fill-opacity="0.241" stroke="none"/><polygon points="509.1,529.6 472.6,435.9 388.1,422.6 340.1,503.1 376.6,596.7 461.1,610.0" fill="rgb(230,85,13)" fill-opacity="0.245" stroke="none"/><polygon points="1039.2,261.0 1002.7,167.4 918.2,154.1 870.2,234.5 906.7,328.2 991.2,341.4" fill="rgb(230,85,13)" fill-opacity="0.252" stroke="none"/><polygon points="-20.8,798.1 -57.3,704.5 -141.8,691.2 -189.8,771.6 -153.3,865.3 -68.8,878.5" fill="rgb(230,85,13)" fill-opacity="0.252" stroke="none"/><polygon points="-9.4,624.1 -45.9,530.4 -130.4,517.2 -178.4,597.6 -141.8,691.2 -57.3,704.5" fill="rgb(230,85,13)" fill-opacity="0.260" stroke="none"/><polygon points="-240.0,236.2 -276.5,142.6 -361.0,129.3 -409.0,209.7 -372.5,303.4 -288.0,316.6" fill="rgb(230,85,13)" fill-opacity="0.266" stroke="none"/><polygon points="577.9,-514.9 541.4,-608.6 456.9,-621.8 408.9,-541.4 445.4,-447.7 529.9,-434.5" fill="rgb(230,85,13)" fill-opacity="0.266" stroke="none"/><polygon points="-119.0,343.1 -155.5,249.5 -240.0,236.2 -288.0,316.6 -251.4,410.3 -166.9,423.5" fill="rgb(230,85,13)" fill-opacity="0.268" stroke="none"/><polygon points="520.6,355.5 484.1,261.8 399.5,248.6 351.6,329.0 388.1,422.6 472.6,435.9" fill="rgb(230,85,13)" fill-opacity="0.270" stroke="none"/><polygon points="180.3,-313.4 143.8,-407.1 59.3,-420.3 11.3,-339.9 47.8,-246.2 132.4,-233.0" fill="rgb(230,85,13)" fill-opacity="0.276" stroke="none"/><polygon points="653.1,288.4 616.6,194.7 532.1,181.4 484.1,261.8 520.6,355.5 605.1,368.8" fill="rgb(230,85,13)" fill-opacity="0.281" stroke="none"/><polygon points="146.0,208.8 109.5,115.1 25.0,101.9 -23.0,182.3 13.5,276.0 98.0,289.2" fill="rgb(230,85,13)" fill-opacity="0.289" stroke="none"/><polygon points="543.5,7.3 507.0,-86.3 422.5,-99.6 374.5,-19.2 411.0,74.5 495.5,87.8" fill="rgb(230,85,13)" fill-opacity="0.292" stroke="none"/><polygon points="566.5,-340.8 529.9,-434.5 445.4,-447.7 397.4,-367.3 433.9,-273.7 518.5,-260.4" fill="rgb(230,85,13)" fill-opacity="0.302" stroke="none"/><polygon points="918.2,154.1 881.6,60.4 797.1,47.1 749.1,127.5 785.6,221.2 870.2,234.5" fill="rgb(230,85,13)" fill-opacity="0.304" stroke="none"/><polygon points="774.2,395.3 737.6,301.6 653.1,288.4 605.1,368.8 641.6,462.4 726.2,475.7" fill="rgb(230,85,13)" fill-opacity="0.314" stroke="none"/><polygon points="134.5,382.9 98.0,289.2 13.5,276.0 -34.5,356.4 2.1,450.0 86.6,463.3" fill="rgb(230,85,13)" fill-opacity="0.315" stroke="none"/><polygon points="-107.5,169.0 -144.1,75.4 -228.6,62.1 -276.5,142.6 -240.0,236.2 -155.5,249.5" fill="rgb(230,85,13)" fill-opacity="0.320" stroke="none"/><polygon points="278.5,141.7 242.0,48.0 157.4,34.7 109.5,115.1 146.0,208.8 230.5,222.1" fill="rgb(230,85,13)" fill-opacity="0.330" stroke="none"/><polygon points="-856.6,-124.2 -893.1,-217.8 -977.6,-231.0 -1025.6,-150.6 -989.0,-57.0 -904.5,-43.7" fill="rgb(230,85,13)" fill-opacity="0.338" stroke="none"/><polygon points="422.5,-99.6 385.9,-193.2 301.4,-206.5 253.4,-126.1 289.9,-32.4 374.5,-19.2" fill="rgb(230,85,13)" fill-opacity="0.349" stroke="none"/><polygon points="785.6,221.2 749.1,127.5 664.6,114.3 616.6,194.7 653.1,288.4 737.6,301.6" fill="rgb(230,85,13)" fill-opacity="0.366" stroke="none"/><polygon points="555.0,-166.7 518.5,-260.4 433.9,-273.7 385.9,-193.2 422.5,-99.6 507.0,-86.3" fill="rgb(230,85,13)" fill-opacity="0.393" stroke="none"/><polygon points="255.6,489.8 219.1,396.1 134.5,382.9 86.6,463.3 123.1,556.9 207.6,570.2" fill="rgb(230,85,13)" fill-opacity="0.397" stroke="none"/><polygon points="123.1,556.9 86.6,463.3 2.1,450.0 -45.9,530.4 -9.4,624.1 75.1,637.3" fill="rgb(230,85,13)" fill-opacity="0.428" stroke="none"/><polygon points="289.9,-32.4 253.4,-126.1 168.9,-139.3 120.9,-58.9 157.4,34.7 242.0,48.0" fill="rgb(230,85,13)" fill-opacity="0.455" stroke="none"/><polygon points="13.5,276.0 -23.0,182.3 -107.5,169.0 -155.5,249.5 -119.0,343.1 -34.5,356.4" fill="rgb(230,85,13)" fill-opacity="0.471" stroke="none"/><polygon points="399.5,248.6 363.0,154.9 278.5,141.7 230.5,222.1 267.0,315.7 351.6,329.0" fill="rgb(230,85,13)" fill-opacity="0.489" stroke="none"/><polygon points="532.1,181.4 495.5,87.8 411.0,74.5 363.0,154.9 399.5,248.6 484.1,261.8" fill="rgb(230,85,13)" fill-opacity="0.522" stroke="none"/><polygon points="267.0,315.7 230.5,222.1 146.0,208.8 98.0,289.2 134.5,382.9 219.1,396.1" fill="rgb(230,85,13)" fill-opacity="0.545" stroke="none"/><polygon points="664.6,114.3 628.0,20.6 543.5,7.3 495.5,87.8 532.1,181.4 616.6,194.7" fill="rgb(230,85,13)" fill-opacity="0.577" stroke="none"/><polygon points="411.0,74.5 374.5,-19.2 289.9,-32.4 242.0,48.0 278.5,141.7 363.0,154.9" fill="rgb(230,85,13)" fill-opacity="0.700" stroke="none"/><polygon points="520.6,355.5 484.1,261.8 399.5,248.6 351.6,329.0 388.1,422.6 472.6,435.9" fill="none" stroke="#111827" stroke-width="1.35" stroke-dasharray="4 3" stroke-linejoin="round"/><polygon points="267.0,315.7 230.5,222.1 146.0,208.8 98.0,289.2 134.5,382.9 219.1,396.1" fill="none" stroke="#111827" stroke-width="1.35" stroke-dasharray="4 3" stroke-linejoin="round"/><polygon points="555.0,-166.7 518.5,-260.4 433.9,-273.7 385.9,-193.2 422.5,-99.6 507.0,-86.3" fill="none" stroke="#111827" stroke-width="1.35" stroke-dasharray="4 3" stroke-linejoin="round"/><polygon points="157.4,34.7 120.9,-58.9 36.4,-72.2 -11.6,8.2 25.0,101.9 109.5,115.1" fill="none" stroke="#111827" stroke-width="1.35" stroke-dasharray="4 3" stroke-linejoin="round"/><polygon points="543.5,7.3 507.0,-86.3 422.5,-99.6 374.5,-19.2 411.0,74.5 495.5,87.8" fill="none" stroke="#111827" stroke-width="1.35" stroke-dasharray="4 3" stroke-linejoin="round"/><polygon points="146.0,208.8 109.5,115.1 25.0,101.9 -23.0,182.3 13.5,276.0 98.0,289.2" fill="none" stroke="#111827" stroke-width="1.35" stroke-dasharray="4 3" stroke-linejoin="round"/><polygon points="532.1,181.4 495.5,87.8 411.0,74.5 363.0,154.9 399.5,248.6 484.1,261.8" fill="none" stroke="#111827" stroke-width="1.35" stroke-dasharray="4 3" stroke-linejoin="round"/><polygon points="388.1,422.6 351.6,329.0 267.0,315.7 219.1,396.1 255.6,489.8 340.1,503.1" fill="none" stroke="#111827" stroke-width="1.35" stroke-dasharray="4 3" stroke-linejoin="round"/><polygon points="168.9,-139.3 132.4,-233.0 47.8,-246.2 -0.1,-165.8 36.4,-72.2 120.9,-58.9" fill="none" stroke="#111827" stroke-width="1.35" stroke-dasharray="4 3" stroke-linejoin="round"/><polygon points="289.9,-32.4 253.4,-126.1 168.9,-139.3 120.9,-58.9 157.4,34.7 242.0,48.0" fill="none" stroke="#111827" stroke-width="1.35" stroke-dasharray="4 3" stroke-linejoin="round"/><polygon points="301.4,-206.5 264.9,-300.2 180.3,-313.4 132.4,-233.0 168.9,-139.3 253.4,-126.1" fill="none" stroke="#111827" stroke-width="1.35" stroke-dasharray="4 3" stroke-linejoin="round"/><polygon points="411.0,74.5 374.5,-19.2 289.9,-32.4 242.0,48.0 278.5,141.7 363.0,154.9" fill="none" stroke="#111827" stroke-width="1.35" stroke-dasharray="4 3" stroke-linejoin="round"/><polygon points="278.5,141.7 242.0,48.0 157.4,34.7 109.5,115.1 146.0,208.8 230.5,222.1" fill="none" stroke="#111827" stroke-width="1.35" stroke-dasharray="4 3" stroke-linejoin="round"/><polygon points="653.1,288.4 616.6,194.7 532.1,181.4 484.1,261.8 520.6,355.5 605.1,368.8" fill="none" stroke="#111827" stroke-width="1.35" stroke-dasharray="4 3" stroke-linejoin="round"/><polygon points="664.6,114.3 628.0,20.6 543.5,7.3 495.5,87.8 532.1,181.4 616.6,194.7" fill="none" stroke="#111827" stroke-width="1.35" stroke-dasharray="4 3" stroke-linejoin="round"/><polygon points="433.9,-273.7 397.4,-367.3 312.9,-380.6 264.9,-300.2 301.4,-206.5 385.9,-193.2" fill="none" stroke="#111827" stroke-width="1.35" stroke-dasharray="4 3" stroke-linejoin="round"/><polygon points="422.5,-99.6 385.9,-193.2 301.4,-206.5 253.4,-126.1 289.9,-32.4 374.5,-19.2" fill="none" stroke="#111827" stroke-width="1.35" stroke-dasharray="4 3" stroke-linejoin="round"/><polygon points="399.5,248.6 363.0,154.9 278.5,141.7 230.5,222.1 267.0,315.7 351.6,329.0" fill="none" stroke="#111827" stroke-width="1.35" stroke-dasharray="4 3" stroke-linejoin="round"/><polygon points="676.1,-59.8 639.5,-153.5 555.0,-166.7 507.0,-86.3 543.5,7.3 628.0,20.6" fill="none" stroke="#111827" stroke-width="1.35" stroke-dasharray="4 3" stroke-linejoin="round"/><polygon points="-119.0,343.1 -155.5,249.5 -240.0,236.2 -288.0,316.6 -251.4,410.3 -166.9,423.5" fill="none" stroke="#111827" stroke-width="2.15" stroke-linejoin="round"/><polygon points="-240.0,236.2 -276.5,142.6 -361.0,129.3 -409.0,209.7 -372.5,303.4 -288.0,316.6" fill="none" stroke="#111827" stroke-width="2.15" stroke-linejoin="round"/><polygon points="-856.6,-124.2 -893.1,-217.8 -977.6,-231.0 -1025.6,-150.6 -989.0,-57.0 -904.5,-43.7" fill="none" stroke="#111827" stroke-width="2.15" stroke-linejoin="round"/><polygon points="774.2,395.3 737.6,301.6 653.1,288.4 605.1,368.8 641.6,462.4 726.2,475.7" fill="none" stroke="#111827" stroke-width="2.15" stroke-linejoin="round"/><polygon points="577.9,-514.9 541.4,-608.6 456.9,-621.8 408.9,-541.4 445.4,-447.7 529.9,-434.5" fill="none" stroke="#111827" stroke-width="2.15" stroke-linejoin="round"/><polygon points="509.1,529.6 472.6,435.9 388.1,422.6 340.1,503.1 376.6,596.7 461.1,610.0" fill="none" stroke="#111827" stroke-width="2.15" stroke-linejoin="round"/><polygon points="134.5,382.9 98.0,289.2 13.5,276.0 -34.5,356.4 2.1,450.0 86.6,463.3" fill="none" stroke="#111827" stroke-width="2.15" stroke-linejoin="round"/><polygon points="123.1,556.9 86.6,463.3 2.1,450.0 -45.9,530.4 -9.4,624.1 75.1,637.3" fill="none" stroke="#111827" stroke-width="2.15" stroke-linejoin="round"/><polygon points="785.6,221.2 749.1,127.5 664.6,114.3 616.6,194.7 653.1,288.4 737.6,301.6" fill="none" stroke="#111827" stroke-width="2.15" stroke-linejoin="round"/><polygon points="1039.2,261.0 1002.7,167.4 918.2,154.1 870.2,234.5 906.7,328.2 991.2,341.4" fill="none" stroke="#111827" stroke-width="2.15" stroke-linejoin="round"/><polygon points="566.5,-340.8 529.9,-434.5 445.4,-447.7 397.4,-367.3 433.9,-273.7 518.5,-260.4" fill="none" stroke="#111827" stroke-width="2.15" stroke-linejoin="round"/><polygon points="255.6,489.8 219.1,396.1 134.5,382.9 86.6,463.3 123.1,556.9 207.6,570.2" fill="none" stroke="#111827" stroke-width="2.15" stroke-linejoin="round"/><polygon points="-9.4,624.1 -45.9,530.4 -130.4,517.2 -178.4,597.6 -141.8,691.2 -57.3,704.5" fill="none" stroke="#111827" stroke-width="2.15" stroke-linejoin="round"/><polygon points="-107.5,169.0 -144.1,75.4 -228.6,62.1 -276.5,142.6 -240.0,236.2 -155.5,249.5" fill="none" stroke="#111827" stroke-width="2.15" stroke-linejoin="round"/><polygon points="918.2,154.1 881.6,60.4 797.1,47.1 749.1,127.5 785.6,221.2 870.2,234.5" fill="none" stroke="#111827" stroke-width="2.15" stroke-linejoin="round"/><polygon points="13.5,276.0 -23.0,182.3 -107.5,169.0 -155.5,249.5 -119.0,343.1 -34.5,356.4" fill="none" stroke="#111827" stroke-width="2.15" stroke-linejoin="round"/><polygon points="-20.8,798.1 -57.3,704.5 -141.8,691.2 -189.8,771.6 -153.3,865.3 -68.8,878.5" fill="none" stroke="#111827" stroke-width="2.15" stroke-linejoin="round"/><polygon points="180.3,-313.4 143.8,-407.1 59.3,-420.3 11.3,-339.9 47.8,-246.2 132.4,-233.0" fill="none" stroke="#111827" stroke-width="2.15" stroke-linejoin="round"/><polygon points="895.2,502.3 858.7,408.6 774.2,395.3 726.2,475.7 762.7,569.4 847.2,582.7" fill="none" stroke="#111827" stroke-width="2.15" stroke-linejoin="round"/><polyline points="295.0,142.2 206.8,236.4 186.2,244.2 164.9,249.3 145.9,260.5 127.0,271.8 111.4,287.1 98.1,303.6 96.6,325.6 95.8,347.7 95.0,369.8" fill="none" stroke="#dc2626" stroke-width="3" stroke-linecap="round" stroke-linejoin="round"/><circle cx="206.8" cy="236.4" r="2.1" fill="#dc2626"/><circle cx="186.2" cy="244.2" r="2.1" fill="#dc2626"/><circle cx="164.9" cy="249.3" r="2.1" fill="#dc2626"/><circle cx="145.9" cy="260.5" r="2.1" fill="#dc2626"/><circle cx="127.0" cy="271.8" r="2.1" fill="#dc2626"/><circle cx="111.4" cy="287.1" r="2.1" fill="#dc2626"/><circle cx="98.1" cy="303.6" r="2.1" fill="#dc2626"/><circle cx="96.6" cy="325.6" r="2.1" fill="#dc2626"/><circle cx="95.8" cy="347.7" r="2.1" fill="#dc2626"/><circle cx="95.0" cy="369.8" r="2.1" fill="#dc2626"/><circle cx="295.0" cy="142.2" r="6" fill="#2563eb" stroke="white" stroke-width="2"/><path d="M95.0,362.8 L102.0,369.8 L95.0,376.8 L88.0,369.8 Z" fill="#dc2626" stroke="white" stroke-width="2"/></g><text x="18" y="484" font-size="10.5" fill="#475569">● 시작 · ━ 정답 이동 · ◆ 현재 실제 위치</text><text x="18" y="503" font-size="10.5" fill="#475569">검정 점선 D1 · 검정 실선 알림 후보 셀</text></g><g transform="translate(816,105)"><rect x="0" y="0" width="390" height="520" rx="14" fill="#fff" stroke="#d8dee9"/><text x="18" y="28" font-size="18" font-weight="700" fill="#111827">C EXAONE 개인화</text><text x="372" y="28" text-anchor="end" font-size="12" fill="#64748b">유효 · D2 외부커버 100.0%</text><g clip-path="url(#map-clip)"><use href="#roads"/><polygon points="1027.7,435.1 991.2,341.4 906.7,328.2 858.7,408.6 895.2,502.3 979.7,515.5" fill="rgb(35,139,69)" fill-opacity="0.117" stroke="none"/><polygon points="797.1,47.1 760.6,-46.5 676.1,-59.8 628.0,20.6 664.6,114.3 749.1,127.5" fill="rgb(35,139,69)" fill-opacity="0.117" stroke="none"/><polygon points="1754.1,1077.0 1717.5,983.3 1633.0,970.0 1585.0,1050.4 1621.5,1144.1 1706.0,1157.4" fill="rgb(35,139,69)" fill-opacity="0.117" stroke="none"/><polygon points="849.3,1198.6 812.8,1104.9 728.3,1091.6 680.3,1172.0 716.8,1265.7 801.3,1279.0" fill="rgb(35,139,69)" fill-opacity="0.117" stroke="none"/><polygon points="1448.4,-114.5 1411.9,-208.2 1327.4,-221.4 1279.3,-141.0 1315.9,-47.3 1400.4,-34.1" fill="rgb(35,139,69)" fill-opacity="0.117" stroke="none"/><polygon points="221.2,1012.0 184.7,918.3 100.2,905.1 52.2,985.4 88.8,1079.1 173.3,1092.4" fill="rgb(35,139,69)" fill-opacity="0.117" stroke="none"/><polygon points="486.2,877.7 449.7,784.1 365.2,770.8 317.2,851.2 353.7,944.9 438.2,958.1" fill="rgb(35,139,69)" fill-opacity="0.117" stroke="none"/><polygon points="860.8,1024.5 824.2,930.8 739.7,917.6 691.7,998.0 728.3,1091.6 812.8,1104.9" fill="rgb(35,139,69)" fill-opacity="0.117" stroke="none"/><polygon points="-349.6,-44.7 -386.2,-138.4 -470.7,-151.6 -518.6,-71.2 -482.1,22.4 -397.6,35.7" fill="rgb(35,139,69)" fill-opacity="0.117" stroke="none"/><polygon points="70.7,-594.4 34.2,-688.0 -50.3,-701.3 -98.3,-620.9 -61.8,-527.2 22.7,-514.0" fill="rgb(35,139,69)" fill-opacity="0.117" stroke="none"/><polygon points="1379.4,930.1 1342.9,836.5 1258.3,823.2 1210.3,903.6 1246.9,997.3 1331.4,1010.5" fill="rgb(35,139,69)" fill-opacity="0.117" stroke="none"/><polygon points="1460.0,-288.6 1423.4,-382.3 1338.9,-395.6 1290.8,-315.1 1327.4,-221.4 1411.9,-208.2" fill="rgb(35,139,69)" fill-opacity="0.117" stroke="none"/><polygon points="1091.3,1412.5 1054.8,1318.9 970.3,1305.6 922.3,1386.0 958.8,1479.6 1043.3,1492.9" fill="rgb(35,139,69)" fill-opacity="0.117" stroke="none"/><polygon points="191.8,-487.5 155.3,-581.1 70.7,-594.4 22.7,-514.0 59.3,-420.3 143.8,-407.1" fill="rgb(35,139,69)" fill-opacity="0.117" stroke="none"/><polygon points="168.9,-139.3 132.4,-233.0 47.8,-246.2 -0.1,-165.8 36.4,-72.2 120.9,-58.9" fill="rgb(35,139,69)" fill-opacity="0.117" stroke="none"/><polygon points="232.7,837.9 196.2,744.3 111.7,731.0 63.7,811.4 100.2,905.1 184.7,918.3" fill="rgb(35,139,69)" fill-opacity="0.117" stroke="none"/><polygon points="-1132.8,184.2 -1169.4,90.6 -1253.9,77.4 -1301.8,157.8 -1265.2,251.4 -1180.8,264.6" fill="rgb(35,139,69)" fill-opacity="0.117" stroke="none"/><polygon points="1148.8,542.1 1112.3,448.4 1027.7,435.1 979.7,515.5 1016.3,609.2 1100.8,622.5" fill="rgb(35,139,69)" fill-opacity="0.117" stroke="none"/><polygon points="739.7,917.6 703.2,823.9 618.7,810.6 570.7,891.0 607.2,984.7 691.7,998.0" fill="rgb(35,139,69)" fill-opacity="0.117" stroke="none"/><polygon points="-205.7,-286.0 -242.2,-379.6 -326.8,-392.9 -374.7,-312.4 -338.2,-218.8 -253.7,-205.6" fill="rgb(35,139,69)" fill-opacity="0.117" stroke="none"/><polygon points="-251.4,410.3 -288.0,316.6 -372.5,303.4 -420.4,383.8 -383.9,477.4 -299.4,490.7" fill="rgb(35,139,69)" fill-opacity="0.117" stroke="none"/><polygon points="1235.4,1171.3 1198.8,1077.7 1114.3,1064.4 1066.3,1144.8 1102.8,1238.5 1187.3,1251.7" fill="rgb(35,139,69)" fill-opacity="0.117" stroke="none"/><polygon points="-194.3,-460.0 -230.8,-553.7 -315.3,-566.9 -363.3,-486.5 -326.8,-392.9 -242.2,-379.6" fill="rgb(35,139,69)" fill-opacity="0.117" stroke="none"/><polygon points="-61.8,-527.2 -98.3,-620.9 -182.8,-634.1 -230.8,-553.7 -194.3,-460.0 -109.8,-446.8" fill="rgb(35,139,69)" fill-opacity="0.132" stroke="none"/><polygon points="699.0,-408.0 662.5,-501.7 577.9,-514.9 529.9,-434.5 566.5,-340.8 651.0,-327.6" fill="rgb(35,139,69)" fill-opacity="0.132" stroke="none"/><polygon points="2.1,450.0 -34.5,356.4 -119.0,343.1 -166.9,423.5 -130.4,517.2 -45.9,530.4" fill="rgb(35,139,69)" fill-opacity="0.132" stroke="none"/><polygon points="1039.2,261.0 1002.7,167.4 918.2,154.1 870.2,234.5 906.7,328.2 991.2,341.4" fill="rgb(35,139,69)" fill-opacity="0.132" stroke="none"/><polygon points="-130.4,517.2 -166.9,423.5 -251.4,410.3 -299.4,490.7 -262.9,584.3 -178.4,597.6" fill="rgb(35,139,69)" fill-opacity="0.132" stroke="none"/><polygon points="607.2,984.7 570.7,891.0 486.2,877.7 438.2,958.1 474.7,1051.8 559.2,1065.1" fill="rgb(35,139,69)" fill-opacity="0.132" stroke="none"/><polygon points="312.9,-380.6 276.3,-474.2 191.8,-487.5 143.8,-407.1 180.3,-313.4 264.9,-300.2" fill="rgb(35,139,69)" fill-opacity="0.132" stroke="none"/><polygon points="1212.4,1519.5 1175.9,1425.8 1091.3,1412.5 1043.3,1492.9 1079.8,1586.6 1164.4,1599.9" fill="rgb(35,139,69)" fill-opacity="0.132" stroke="none"/><polygon points="-361.0,129.3 -397.6,35.7 -482.1,22.4 -530.0,102.8 -493.5,196.5 -409.0,209.7" fill="rgb(35,139,69)" fill-opacity="0.136" stroke="none"/><polygon points="111.7,731.0 75.1,637.3 -9.4,624.1 -57.3,704.5 -20.8,798.1 63.7,811.4" fill="rgb(35,139,69)" fill-opacity="0.136" stroke="none"/><polygon points="-482.1,22.4 -518.6,-71.2 -603.1,-84.5 -651.1,-4.1 -614.5,89.6 -530.0,102.8" fill="rgb(35,139,69)" fill-opacity="0.136" stroke="none"/><polygon points="209.8,1186.0 173.3,1092.4 88.8,1079.1 40.8,1159.5 77.3,1253.2 161.8,1266.4" fill="rgb(35,139,69)" fill-opacity="0.136" stroke="none"/><polygon points="-274.3,758.4 -310.8,664.7 -395.3,651.5 -443.3,731.9 -406.7,825.5 -322.2,838.8" fill="rgb(35,139,69)" fill-opacity="0.136" stroke="none"/><polygon points="433.9,-273.7 397.4,-367.3 312.9,-380.6 264.9,-300.2 301.4,-206.5 385.9,-193.2" fill="rgb(35,139,69)" fill-opacity="0.136" stroke="none"/><polygon points="445.4,-447.7 408.9,-541.4 324.3,-554.7 276.3,-474.2 312.9,-380.6 397.4,-367.3" fill="rgb(35,139,69)" fill-opacity="0.136" stroke="none"/><polygon points="924.4,2001.9 887.9,1908.2 803.4,1894.9 755.4,1975.3 791.9,2068.9 876.4,2082.2" fill="rgb(35,139,69)" fill-opacity="0.136" stroke="none"/><polygon points="-182.8,-634.1 -219.4,-727.8 -303.9,-741.0 -351.9,-660.6 -315.3,-566.9 -230.8,-553.7" fill="rgb(35,139,69)" fill-opacity="0.136" stroke="none"/><polygon points="1569.5,-7.5 1533.0,-101.2 1448.4,-114.5 1400.4,-34.1 1436.9,59.6 1521.5,72.9" fill="rgb(35,139,69)" fill-opacity="0.136" stroke="none"/><polygon points="365.2,770.8 328.6,677.1 244.1,663.9 196.2,744.3 232.7,837.9 317.2,851.2" fill="rgb(35,139,69)" fill-opacity="0.136" stroke="none"/><polygon points="1004.8,783.3 968.2,689.6 883.7,676.3 835.7,756.8 872.2,850.4 956.8,863.7" fill="rgb(35,139,69)" fill-opacity="0.136" stroke="none"/><polygon points="751.2,743.5 714.7,649.8 630.2,636.5 582.2,716.9 618.7,810.6 703.2,823.9" fill="rgb(35,139,69)" fill-opacity="0.136" stroke="none"/><polygon points="-285.7,932.4 -322.2,838.8 -406.7,825.5 -454.7,905.9 -418.2,999.5 -333.7,1012.8" fill="rgb(35,139,69)" fill-opacity="0.136" stroke="none"/><polygon points="981.8,1131.5 945.3,1037.8 860.8,1024.5 812.8,1104.9 849.3,1198.6 933.8,1211.9" fill="rgb(35,139,69)" fill-opacity="0.144" stroke="none"/><polygon points="820.1,-301.0 783.5,-394.7 699.0,-408.0 651.0,-327.6 687.5,-233.9 772.1,-220.6" fill="rgb(35,139,69)" fill-opacity="0.144" stroke="none"/><polygon points="1102.8,1238.5 1066.3,1144.8 981.8,1131.5 933.8,1211.9 970.3,1305.6 1054.8,1318.9" fill="rgb(35,139,69)" fill-opacity="0.144" stroke="none"/><polygon points="-141.8,691.2 -178.4,597.6 -262.9,584.3 -310.8,664.7 -274.3,758.4 -189.8,771.6" fill="rgb(35,139,69)" fill-opacity="0.147" stroke="none"/><polygon points="1171.8,193.9 1135.3,100.2 1050.7,86.9 1002.7,167.4 1039.2,261.0 1123.8,274.3" fill="rgb(35,139,69)" fill-opacity="0.147" stroke="none"/><polygon points="456.9,-621.8 420.3,-715.5 335.8,-728.7 287.8,-648.3 324.3,-554.7 408.9,-541.4" fill="rgb(35,139,69)" fill-opacity="0.147" stroke="none"/><polygon points="157.4,34.7 120.9,-58.9 36.4,-72.2 -11.6,8.2 25.0,101.9 109.5,115.1" fill="rgb(35,139,69)" fill-opacity="0.147" stroke="none"/><polygon points="618.7,810.6 582.2,716.9 497.7,703.7 449.7,784.1 486.2,877.7 570.7,891.0" fill="rgb(35,139,69)" fill-opacity="0.147" stroke="none"/><polygon points="-20.8,798.1 -57.3,704.5 -141.8,691.2 -189.8,771.6 -153.3,865.3 -68.8,878.5" fill="rgb(35,139,69)" fill-opacity="0.147" stroke="none"/><polygon points="25.0,101.9 -11.6,8.2 -96.1,-5.0 -144.1,75.4 -107.5,169.0 -23.0,182.3" fill="rgb(35,139,69)" fill-opacity="0.157" stroke="none"/><polygon points="895.2,502.3 858.7,408.6 774.2,395.3 726.2,475.7 762.7,569.4 847.2,582.7" fill="rgb(35,139,69)" fill-opacity="0.157" stroke="none"/><polygon points="676.1,-59.8 639.5,-153.5 555.0,-166.7 507.0,-86.3 543.5,7.3 628.0,20.6" fill="rgb(35,139,69)" fill-opacity="0.157" stroke="none"/><polygon points="803.4,1894.9 766.9,1801.2 682.4,1787.9 634.4,1868.3 670.9,1962.0 755.4,1975.3" fill="rgb(35,139,69)" fill-opacity="0.168" stroke="none"/><polygon points="301.4,-206.5 264.9,-300.2 180.3,-313.4 132.4,-233.0 168.9,-139.3 253.4,-126.1" fill="rgb(35,139,69)" fill-opacity="0.168" stroke="none"/><polygon points="883.7,676.3 847.2,582.7 762.7,569.4 714.7,649.8 751.2,743.5 835.7,756.8" fill="rgb(35,139,69)" fill-opacity="0.170" stroke="none"/><polygon points="555.0,-166.7 518.5,-260.4 433.9,-273.7 385.9,-193.2 422.5,-99.6 507.0,-86.3" fill="rgb(35,139,69)" fill-opacity="0.170" stroke="none"/><polygon points="993.3,957.4 956.8,863.7 872.2,850.4 824.2,930.8 860.8,1024.5 945.3,1037.8" fill="rgb(35,139,69)" fill-opacity="0.175" stroke="none"/><polygon points="497.7,703.7 461.1,610.0 376.6,596.7 328.6,677.1 365.2,770.8 449.7,784.1" fill="rgb(35,139,69)" fill-opacity="0.175" stroke="none"/><polygon points="577.9,-514.9 541.4,-608.6 456.9,-621.8 408.9,-541.4 445.4,-447.7 529.9,-434.5" fill="rgb(35,139,69)" fill-opacity="0.175" stroke="none"/><polygon points="1016.3,609.2 979.7,515.5 895.2,502.3 847.2,582.7 883.7,676.3 968.2,689.6" fill="rgb(35,139,69)" fill-opacity="0.180" stroke="none"/><polygon points="566.5,-340.8 529.9,-434.5 445.4,-447.7 397.4,-367.3 433.9,-273.7 518.5,-260.4" fill="rgb(35,139,69)" fill-opacity="0.180" stroke="none"/><polygon points="872.2,850.4 835.7,756.8 751.2,743.5 703.2,823.9 739.7,917.6 824.2,930.8" fill="rgb(35,139,69)" fill-opacity="0.180" stroke="none"/><polygon points="906.7,328.2 870.2,234.5 785.6,221.2 737.6,301.6 774.2,395.3 858.7,408.6" fill="rgb(35,139,69)" fill-opacity="0.182" stroke="none"/><polygon points="180.3,-313.4 143.8,-407.1 59.3,-420.3 11.3,-339.9 47.8,-246.2 132.4,-233.0" fill="rgb(35,139,69)" fill-opacity="0.182" stroke="none"/><polygon points="918.2,154.1 881.6,60.4 797.1,47.1 749.1,127.5 785.6,221.2 870.2,234.5" fill="rgb(35,139,69)" fill-opacity="0.189" stroke="none"/><polygon points="146.0,208.8 109.5,115.1 25.0,101.9 -23.0,182.3 13.5,276.0 98.0,289.2" fill="rgb(35,139,69)" fill-opacity="0.191" stroke="none"/><polygon points="-119.0,343.1 -155.5,249.5 -240.0,236.2 -288.0,316.6 -251.4,410.3 -166.9,423.5" fill="rgb(35,139,69)" fill-opacity="0.197" stroke="none"/><polygon points="-9.4,624.1 -45.9,530.4 -130.4,517.2 -178.4,597.6 -141.8,691.2 -57.3,704.5" fill="rgb(35,139,69)" fill-opacity="0.197" stroke="none"/><polygon points="388.1,422.6 351.6,329.0 267.0,315.7 219.1,396.1 255.6,489.8 340.1,503.1" fill="rgb(35,139,69)" fill-opacity="0.199" stroke="none"/><polygon points="-107.5,169.0 -144.1,75.4 -228.6,62.1 -276.5,142.6 -240.0,236.2 -155.5,249.5" fill="rgb(35,139,69)" fill-opacity="0.204" stroke="none"/><polygon points="762.7,569.4 726.2,475.7 641.6,462.4 593.6,542.9 630.2,636.5 714.7,649.8" fill="rgb(35,139,69)" fill-opacity="0.208" stroke="none"/><polygon points="543.5,7.3 507.0,-86.3 422.5,-99.6 374.5,-19.2 411.0,74.5 495.5,87.8" fill="rgb(35,139,69)" fill-opacity="0.210" stroke="none"/><polygon points="376.6,596.7 340.1,503.1 255.6,489.8 207.6,570.2 244.1,663.9 328.6,677.1" fill="rgb(35,139,69)" fill-opacity="0.223" stroke="none"/><polygon points="774.2,395.3 737.6,301.6 653.1,288.4 605.1,368.8 641.6,462.4 726.2,475.7" fill="rgb(35,139,69)" fill-opacity="0.223" stroke="none"/><polygon points="641.6,462.4 605.1,368.8 520.6,355.5 472.6,435.9 509.1,529.6 593.6,542.9" fill="rgb(35,139,69)" fill-opacity="0.223" stroke="none"/><polygon points="-240.0,236.2 -276.5,142.6 -361.0,129.3 -409.0,209.7 -372.5,303.4 -288.0,316.6" fill="rgb(35,139,69)" fill-opacity="0.226" stroke="none"/><polygon points="785.6,221.2 749.1,127.5 664.6,114.3 616.6,194.7 653.1,288.4 737.6,301.6" fill="rgb(35,139,69)" fill-opacity="0.252" stroke="none"/><polygon points="-856.6,-124.2 -893.1,-217.8 -977.6,-231.0 -1025.6,-150.6 -989.0,-57.0 -904.5,-43.7" fill="rgb(35,139,69)" fill-opacity="0.258" stroke="none"/><polygon points="520.6,355.5 484.1,261.8 399.5,248.6 351.6,329.0 388.1,422.6 472.6,435.9" fill="rgb(35,139,69)" fill-opacity="0.263" stroke="none"/><polygon points="244.1,663.9 207.6,570.2 123.1,556.9 75.1,637.3 111.7,731.0 196.2,744.3" fill="rgb(35,139,69)" fill-opacity="0.271" stroke="none"/><polygon points="289.9,-32.4 253.4,-126.1 168.9,-139.3 120.9,-58.9 157.4,34.7 242.0,48.0" fill="rgb(35,139,69)" fill-opacity="0.274" stroke="none"/><polygon points="422.5,-99.6 385.9,-193.2 301.4,-206.5 253.4,-126.1 289.9,-32.4 374.5,-19.2" fill="rgb(35,139,69)" fill-opacity="0.286" stroke="none"/><polygon points="653.1,288.4 616.6,194.7 532.1,181.4 484.1,261.8 520.6,355.5 605.1,368.8" fill="rgb(35,139,69)" fill-opacity="0.305" stroke="none"/><polygon points="509.1,529.6 472.6,435.9 388.1,422.6 340.1,503.1 376.6,596.7 461.1,610.0" fill="rgb(35,139,69)" fill-opacity="0.309" stroke="none"/><polygon points="13.5,276.0 -23.0,182.3 -107.5,169.0 -155.5,249.5 -119.0,343.1 -34.5,356.4" fill="rgb(35,139,69)" fill-opacity="0.330" stroke="none"/><polygon points="278.5,141.7 242.0,48.0 157.4,34.7 109.5,115.1 146.0,208.8 230.5,222.1" fill="rgb(35,139,69)" fill-opacity="0.351" stroke="none"/><polygon points="664.6,114.3 628.0,20.6 543.5,7.3 495.5,87.8 532.1,181.4 616.6,194.7" fill="rgb(35,139,69)" fill-opacity="0.369" stroke="none"/><polygon points="255.6,489.8 219.1,396.1 134.5,382.9 86.6,463.3 123.1,556.9 207.6,570.2" fill="rgb(35,139,69)" fill-opacity="0.397" stroke="none"/><polygon points="532.1,181.4 495.5,87.8 411.0,74.5 363.0,154.9 399.5,248.6 484.1,261.8" fill="rgb(35,139,69)" fill-opacity="0.399" stroke="none"/><polygon points="134.5,382.9 98.0,289.2 13.5,276.0 -34.5,356.4 2.1,450.0 86.6,463.3" fill="rgb(35,139,69)" fill-opacity="0.401" stroke="none"/><polygon points="399.5,248.6 363.0,154.9 278.5,141.7 230.5,222.1 267.0,315.7 351.6,329.0" fill="rgb(35,139,69)" fill-opacity="0.482" stroke="none"/><polygon points="267.0,315.7 230.5,222.1 146.0,208.8 98.0,289.2 134.5,382.9 219.1,396.1" fill="rgb(35,139,69)" fill-opacity="0.520" stroke="none"/><polygon points="411.0,74.5 374.5,-19.2 289.9,-32.4 242.0,48.0 278.5,141.7 363.0,154.9" fill="rgb(35,139,69)" fill-opacity="0.564" stroke="none"/><polygon points="123.1,556.9 86.6,463.3 2.1,450.0 -45.9,530.4 -9.4,624.1 75.1,637.3" fill="rgb(35,139,69)" fill-opacity="0.700" stroke="none"/><polygon points="520.6,355.5 484.1,261.8 399.5,248.6 351.6,329.0 388.1,422.6 472.6,435.9" fill="none" stroke="#111827" stroke-width="1.35" stroke-dasharray="4 3" stroke-linejoin="round"/><polygon points="267.0,315.7 230.5,222.1 146.0,208.8 98.0,289.2 134.5,382.9 219.1,396.1" fill="none" stroke="#111827" stroke-width="1.35" stroke-dasharray="4 3" stroke-linejoin="round"/><polygon points="555.0,-166.7 518.5,-260.4 433.9,-273.7 385.9,-193.2 422.5,-99.6 507.0,-86.3" fill="none" stroke="#111827" stroke-width="1.35" stroke-dasharray="4 3" stroke-linejoin="round"/><polygon points="157.4,34.7 120.9,-58.9 36.4,-72.2 -11.6,8.2 25.0,101.9 109.5,115.1" fill="none" stroke="#111827" stroke-width="1.35" stroke-dasharray="4 3" stroke-linejoin="round"/><polygon points="543.5,7.3 507.0,-86.3 422.5,-99.6 374.5,-19.2 411.0,74.5 495.5,87.8" fill="none" stroke="#111827" stroke-width="1.35" stroke-dasharray="4 3" stroke-linejoin="round"/><polygon points="146.0,208.8 109.5,115.1 25.0,101.9 -23.0,182.3 13.5,276.0 98.0,289.2" fill="none" stroke="#111827" stroke-width="1.35" stroke-dasharray="4 3" stroke-linejoin="round"/><polygon points="532.1,181.4 495.5,87.8 411.0,74.5 363.0,154.9 399.5,248.6 484.1,261.8" fill="none" stroke="#111827" stroke-width="1.35" stroke-dasharray="4 3" stroke-linejoin="round"/><polygon points="388.1,422.6 351.6,329.0 267.0,315.7 219.1,396.1 255.6,489.8 340.1,503.1" fill="none" stroke="#111827" stroke-width="1.35" stroke-dasharray="4 3" stroke-linejoin="round"/><polygon points="168.9,-139.3 132.4,-233.0 47.8,-246.2 -0.1,-165.8 36.4,-72.2 120.9,-58.9" fill="none" stroke="#111827" stroke-width="1.35" stroke-dasharray="4 3" stroke-linejoin="round"/><polygon points="289.9,-32.4 253.4,-126.1 168.9,-139.3 120.9,-58.9 157.4,34.7 242.0,48.0" fill="none" stroke="#111827" stroke-width="1.35" stroke-dasharray="4 3" stroke-linejoin="round"/><polygon points="301.4,-206.5 264.9,-300.2 180.3,-313.4 132.4,-233.0 168.9,-139.3 253.4,-126.1" fill="none" stroke="#111827" stroke-width="1.35" stroke-dasharray="4 3" stroke-linejoin="round"/><polygon points="411.0,74.5 374.5,-19.2 289.9,-32.4 242.0,48.0 278.5,141.7 363.0,154.9" fill="none" stroke="#111827" stroke-width="1.35" stroke-dasharray="4 3" stroke-linejoin="round"/><polygon points="278.5,141.7 242.0,48.0 157.4,34.7 109.5,115.1 146.0,208.8 230.5,222.1" fill="none" stroke="#111827" stroke-width="1.35" stroke-dasharray="4 3" stroke-linejoin="round"/><polygon points="653.1,288.4 616.6,194.7 532.1,181.4 484.1,261.8 520.6,355.5 605.1,368.8" fill="none" stroke="#111827" stroke-width="1.35" stroke-dasharray="4 3" stroke-linejoin="round"/><polygon points="664.6,114.3 628.0,20.6 543.5,7.3 495.5,87.8 532.1,181.4 616.6,194.7" fill="none" stroke="#111827" stroke-width="1.35" stroke-dasharray="4 3" stroke-linejoin="round"/><polygon points="433.9,-273.7 397.4,-367.3 312.9,-380.6 264.9,-300.2 301.4,-206.5 385.9,-193.2" fill="none" stroke="#111827" stroke-width="1.35" stroke-dasharray="4 3" stroke-linejoin="round"/><polygon points="422.5,-99.6 385.9,-193.2 301.4,-206.5 253.4,-126.1 289.9,-32.4 374.5,-19.2" fill="none" stroke="#111827" stroke-width="1.35" stroke-dasharray="4 3" stroke-linejoin="round"/><polygon points="399.5,248.6 363.0,154.9 278.5,141.7 230.5,222.1 267.0,315.7 351.6,329.0" fill="none" stroke="#111827" stroke-width="1.35" stroke-dasharray="4 3" stroke-linejoin="round"/><polygon points="676.1,-59.8 639.5,-153.5 555.0,-166.7 507.0,-86.3 543.5,7.3 628.0,20.6" fill="none" stroke="#111827" stroke-width="1.35" stroke-dasharray="4 3" stroke-linejoin="round"/><polygon points="906.7,328.2 870.2,234.5 785.6,221.2 737.6,301.6 774.2,395.3 858.7,408.6" fill="none" stroke="#111827" stroke-width="2.15" stroke-linejoin="round"/><polygon points="-119.0,343.1 -155.5,249.5 -240.0,236.2 -288.0,316.6 -251.4,410.3 -166.9,423.5" fill="none" stroke="#111827" stroke-width="2.15" stroke-linejoin="round"/><polygon points="-240.0,236.2 -276.5,142.6 -361.0,129.3 -409.0,209.7 -372.5,303.4 -288.0,316.6" fill="none" stroke="#111827" stroke-width="2.15" stroke-linejoin="round"/><polygon points="376.6,596.7 340.1,503.1 255.6,489.8 207.6,570.2 244.1,663.9 328.6,677.1" fill="none" stroke="#111827" stroke-width="2.15" stroke-linejoin="round"/><polygon points="-856.6,-124.2 -893.1,-217.8 -977.6,-231.0 -1025.6,-150.6 -989.0,-57.0 -904.5,-43.7" fill="none" stroke="#111827" stroke-width="2.15" stroke-linejoin="round"/><polygon points="774.2,395.3 737.6,301.6 653.1,288.4 605.1,368.8 641.6,462.4 726.2,475.7" fill="none" stroke="#111827" stroke-width="2.15" stroke-linejoin="round"/><polygon points="509.1,529.6 472.6,435.9 388.1,422.6 340.1,503.1 376.6,596.7 461.1,610.0" fill="none" stroke="#111827" stroke-width="2.15" stroke-linejoin="round"/><polygon points="134.5,382.9 98.0,289.2 13.5,276.0 -34.5,356.4 2.1,450.0 86.6,463.3" fill="none" stroke="#111827" stroke-width="2.15" stroke-linejoin="round"/><polygon points="123.1,556.9 86.6,463.3 2.1,450.0 -45.9,530.4 -9.4,624.1 75.1,637.3" fill="none" stroke="#111827" stroke-width="2.15" stroke-linejoin="round"/><polygon points="641.6,462.4 605.1,368.8 520.6,355.5 472.6,435.9 509.1,529.6 593.6,542.9" fill="none" stroke="#111827" stroke-width="2.15" stroke-linejoin="round"/><polygon points="785.6,221.2 749.1,127.5 664.6,114.3 616.6,194.7 653.1,288.4 737.6,301.6" fill="none" stroke="#111827" stroke-width="2.15" stroke-linejoin="round"/><polygon points="255.6,489.8 219.1,396.1 134.5,382.9 86.6,463.3 123.1,556.9 207.6,570.2" fill="none" stroke="#111827" stroke-width="2.15" stroke-linejoin="round"/><polygon points="-9.4,624.1 -45.9,530.4 -130.4,517.2 -178.4,597.6 -141.8,691.2 -57.3,704.5" fill="none" stroke="#111827" stroke-width="2.15" stroke-linejoin="round"/><polygon points="-107.5,169.0 -144.1,75.4 -228.6,62.1 -276.5,142.6 -240.0,236.2 -155.5,249.5" fill="none" stroke="#111827" stroke-width="2.15" stroke-linejoin="round"/><polygon points="918.2,154.1 881.6,60.4 797.1,47.1 749.1,127.5 785.6,221.2 870.2,234.5" fill="none" stroke="#111827" stroke-width="2.15" stroke-linejoin="round"/><polygon points="13.5,276.0 -23.0,182.3 -107.5,169.0 -155.5,249.5 -119.0,343.1 -34.5,356.4" fill="none" stroke="#111827" stroke-width="2.15" stroke-linejoin="round"/><polygon points="762.7,569.4 726.2,475.7 641.6,462.4 593.6,542.9 630.2,636.5 714.7,649.8" fill="none" stroke="#111827" stroke-width="2.15" stroke-linejoin="round"/><polygon points="244.1,663.9 207.6,570.2 123.1,556.9 75.1,637.3 111.7,731.0 196.2,744.3" fill="none" stroke="#111827" stroke-width="2.15" stroke-linejoin="round"/><polygon points="180.3,-313.4 143.8,-407.1 59.3,-420.3 11.3,-339.9 47.8,-246.2 132.4,-233.0" fill="none" stroke="#111827" stroke-width="2.15" stroke-linejoin="round"/><polyline points="295.0,142.2 206.8,236.4 186.2,244.2 164.9,249.3 145.9,260.5 127.0,271.8 111.4,287.1 98.1,303.6 96.6,325.6 95.8,347.7 95.0,369.8" fill="none" stroke="#dc2626" stroke-width="3" stroke-linecap="round" stroke-linejoin="round"/><circle cx="206.8" cy="236.4" r="2.1" fill="#dc2626"/><circle cx="186.2" cy="244.2" r="2.1" fill="#dc2626"/><circle cx="164.9" cy="249.3" r="2.1" fill="#dc2626"/><circle cx="145.9" cy="260.5" r="2.1" fill="#dc2626"/><circle cx="127.0" cy="271.8" r="2.1" fill="#dc2626"/><circle cx="111.4" cy="287.1" r="2.1" fill="#dc2626"/><circle cx="98.1" cy="303.6" r="2.1" fill="#dc2626"/><circle cx="96.6" cy="325.6" r="2.1" fill="#dc2626"/><circle cx="95.8" cy="347.7" r="2.1" fill="#dc2626"/><circle cx="95.0" cy="369.8" r="2.1" fill="#dc2626"/><circle cx="295.0" cy="142.2" r="6" fill="#2563eb" stroke="white" stroke-width="2"/><path d="M95.0,362.8 L102.0,369.8 L95.0,376.8 L88.0,369.8 Z" fill="#dc2626" stroke="white" stroke-width="2"/></g><text x="18" y="484" font-size="10.5" fill="#475569">● 시작 · ━ 정답 이동 · ◆ 현재 실제 위치</text><text x="18" y="503" font-size="10.5" fill="#475569">검정 점선 D1 · 검정 실선 알림 후보 셀</text></g><text x="0" y="648" font-size="13" font-weight="600" fill="#334155">SP03-consistent | consistent | kakao | 돈암1동주민센터</text></svg>