<svg xmlns="http://www.w3.org/2000/svg" width="1206" height="655" viewBox="0 0 1206 655" role="img" aria-label="135분 · SP07-counter · 지속 이동형 · A 성공 · B 성공 · C 실패"><style>text{font-family:"Apple SD Gothic Neo","Noto Sans KR",sans-serif}</style><rect width="1206" height="655" rx="18" fill="#fff"/><text x="22" y="40" font-size="25" font-weight="800" fill="#111827">135분 · SP07-counter · 지속 이동형</text><text x="22" y="76" font-size="17" font-weight="750" fill="#111827">A 성공 · B 성공 · C 실패</text><defs><clipPath id="map-clip"><rect x="12" y="52" width="366" height="408"/></clipPath><g id="roads" fill="none" stroke="#d7dce2" stroke-width="0.75"><path d="M323.1,66.2 L323.0,64.9"/><path d="M323.1,66.2 L310.2,77.3"/><path d="M323.1,66.2 L325.8,83.4"/><path d="M323.1,66.2 L329.6,57.6"/><path d="M273.7,74.4 L276.8,77.8"/><path d="M273.7,74.4 L283.2,51.1"/><path d="M273.7,74.4 L264.1,65.0"/><path d="M273.7,74.4 L240.4,111.7"/><path d="M75.3,279.5 L90.2,265.3"/><path d="M75.3,279.5 L71.0,267.8"/><path d="M75.3,279.5 L74.3,300.2"/><path d="M75.3,279.5 L79.4,299.9"/><path d="M75.3,279.5 L62.2,276.0"/><path d="M50.1,219.6 L30.7,226.5"/><path d="M50.1,219.6 L72.0,209.2"/><path d="M50.1,219.6 L69.2,262.9"/><path d="M50.1,219.6 L35.5,181.3"/><path d="M131.4,229.9 L116.4,242.6"/><path d="M131.4,229.9 L141.9,221.0"/><path d="M131.4,229.9 L162.6,236.3"/><path d="M131.4,229.9 L101.2,197.8"/><path d="M10.4,251.9 L16.5,259.5"/><path d="M10.4,251.9 L32.4,256.3"/><path d="M82.8,434.4 L83.4,459.2"/><path d="M82.8,434.4 L78.5,434.9"/><path d="M82.8,434.4 L89.7,426.8"/><path d="M82.8,434.4 L83.0,427.3"/><path d="M58.9,425.3 L63.6,423.0"/><path d="M58.9,425.3 L17.7,446.4"/><path d="M58.9,425.3 L71.8,429.5"/><path d="M97.3,425.4 L111.4,433.4"/><path d="M97.3,425.4 L83.1,420.0"/><path d="M97.3,425.4 L89.7,426.8"/><path d="M98.8,422.4 L113.0,430.9"/><path d="M98.8,422.4 L82.7,412.7"/><path d="M98.8,422.4 L95.5,406.1"/><path d="M60.1,417.2 L67.0,406.9"/><path d="M60.1,417.2 L14.5,441.0"/><path d="M60.1,417.2 L72.0,412.0"/><path d="M100.5,396.8 L105.6,394.6"/><path d="M100.5,396.8 L88.6,402.9"/><path d="M100.5,396.8 L85.6,396.7"/><path d="M331.3,313.5 L342.4,309.4"/><path d="M331.3,313.5 L310.8,321.2"/><path d="M331.3,313.5 L323.3,288.3"/><path d="M359.8,309.3 L365.3,307.4"/><path d="M359.8,309.3 L352.4,312.0"/><path d="M359.8,309.3 L360.0,315.3"/><path d="M359.8,309.3 L352.2,309.4"/><path d="M359.8,309.3 L359.2,303.2"/><path d="M359.2,303.2 L352.0,305.8"/><path d="M359.2,303.2 L358.6,298.8"/><path d="M359.2,303.2 L364.8,301.3"/><path d="M116.4,242.6 L94.4,261.2"/><path d="M116.4,242.6 L112.3,239.1"/><path d="M116.4,242.6 L198.9,283.5"/><path d="M52.5,84.7 L70.3,125.2"/><path d="M52.5,84.7 L37.4,91.4"/><path d="M52.5,84.7 L70.9,70.4"/><path d="M52.5,84.7 L37.0,43.7"/><path d="M290.3,92.9 L306.4,80.4"/><path d="M290.3,92.9 L253.6,124.5"/><path d="M290.3,92.9 L276.8,77.8"/><path d="M290.3,92.9 L299.5,104.4"/><path d="M325.8,83.4 L329.8,110.3"/><path d="M325.8,83.4 L334.8,79.3"/><path d="M325.8,83.4 L317.5,82.1"/><path d="M306.4,80.4 L310.2,77.3"/><path d="M306.4,80.4 L309.7,76.6"/><path d="M310.2,77.3 L317.5,82.1"/><path d="M309.7,76.6 L315.0,72.0"/><path d="M309.7,76.6 L307.2,71.7"/><path d="M341.7,66.2 L342.5,66.2"/><path d="M341.7,66.2 L340.1,58.1"/><path d="M341.7,66.2 L334.8,79.3"/><path d="M323.0,64.9 L333.4,50.3"/><path d="M323.0,64.9 L322.4,47.8"/><path d="M323.0,64.9 L315.0,72.0"/><path d="M306.6,60.4 L305.6,60.0"/><path d="M306.6,60.4 L307.2,71.7"/><path d="M306.6,60.4 L315.8,49.5"/><path d="M283.2,51.1 L301.4,58.4"/><path d="M334.5,51.1 L329.6,57.6"/><path d="M334.5,51.1 L340.1,58.1"/><path d="M315.8,49.5 L312.3,68.7"/><path d="M326.7,47.9 L329.6,57.6"/><path d="M193.5,368.8 L200.3,387.4"/><path d="M193.5,368.8 L245.6,350.1"/><path d="M193.5,368.8 L173.8,375.3"/><path d="M175.9,192.1 L217.1,155.9"/><path d="M175.9,192.1 L157.5,207.8"/><path d="M175.9,192.1 L191.5,212.1"/><path d="M175.9,192.1 L162.4,171.9"/><path d="M162.6,236.3 L191.5,212.1"/><path d="M162.6,236.3 L182.8,243.8"/><path d="M219.2,154.1 L253.6,124.5"/><path d="M219.2,154.1 L217.1,155.9"/><path d="M219.2,154.1 L228.4,164.7"/><path d="M329.8,110.3 L305.6,112.1"/><path d="M329.8,110.3 L332.2,124.1"/><path d="M305.6,112.1 L271.3,142.9"/><path d="M305.6,112.1 L299.5,104.4"/><path d="M305.6,112.1 L306.5,125.7"/><path d="M83.5,464.2 L83.4,459.2"/><path d="M14.5,441.0 L13.6,438.7"/><path d="M14.5,441.0 L6.4,446.1"/><path d="M14.5,441.0 L17.7,446.4"/><path d="M11.9,432.1 L25.0,384.8"/><path d="M11.9,432.1 L13.6,438.7"/><path d="M14.4,189.4 L35.5,181.3"/><path d="M14.4,189.4 L-7.9,199.1"/><path d="M14.4,189.4 L6.4,170.9"/><path d="M14.4,189.4 L21.5,205.2"/><path d="M79.4,299.9 L115.7,373.9"/><path d="M79.4,299.9 L82.1,392.7"/><path d="M34.2,331.8 L40.0,326.4"/><path d="M34.2,331.8 L31.8,325.2"/><path d="M34.2,331.8 L57.1,360.5"/><path d="M34.2,331.8 L32.5,352.2"/><path d="M35.5,181.3 L56.4,173.1"/><path d="M35.5,181.3 L20.6,147.0"/><path d="M215.8,442.7 L216.6,463.9"/><path d="M215.8,442.7 L208.5,409.7"/><path d="M215.8,442.7 L255.9,446.8"/><path d="M215.8,442.7 L195.9,440.0"/><path d="M273.1,441.2 L275.6,460.8"/><path d="M273.1,441.2 L339.6,439.1"/><path d="M273.1,441.2 L265.8,371.2"/><path d="M273.1,441.2 L255.9,446.8"/><path d="M262.4,344.0 L269.3,341.4"/><path d="M262.4,344.0 L245.6,350.1"/><path d="M262.4,344.0 L265.8,371.2"/><path d="M278.2,338.2 L314.1,325.8"/><path d="M278.2,338.2 L269.3,341.4"/><path d="M278.2,338.2 L282.8,364.3"/><path d="M282.8,364.3 L300.4,358.0"/><path d="M282.8,364.3 L265.8,371.2"/><path d="M282.8,364.3 L301.6,375.6"/><path d="M335.3,345.5 L360.9,336.0"/><path d="M335.3,345.5 L333.6,318.6"/><path d="M335.3,345.5 L336.4,373.8"/><path d="M335.3,345.5 L313.6,353.3"/><path d="M333.6,318.6 L344.5,314.9"/><path d="M333.6,318.6 L314.1,325.8"/><path d="M387.7,299.6 L377.4,302.8"/><path d="M387.2,327.5 L360.9,336.0"/><path d="M365.9,460.5 L365.3,447.1"/><path d="M392.5,432.6 L364.7,432.8"/><path d="M363.8,414.5 L391.3,413.3"/><path d="M363.8,414.5 L338.4,415.5"/><path d="M363.8,414.5 L364.5,427.9"/><path d="M363.8,414.5 L362.4,373.4"/><path d="M389.1,372.0 L362.4,373.4"/><path d="M392.3,446.1 L365.3,447.1"/><path d="M365.3,447.1 L364.7,432.8"/><path d="M362.4,373.4 L336.4,373.8"/><path d="M362.4,373.4 L360.9,336.0"/><path d="M336.4,373.8 L312.6,375.1"/><path d="M336.4,373.8 L338.4,415.5"/><path d="M340.4,461.6 L339.6,439.1"/><path d="M338.4,415.5 L339.1,428.7"/><path d="M339.6,439.1 L339.1,428.7"/><path d="M175.8,472.9 L123.7,441.0"/><path d="M255.9,446.8 L250.8,398.8"/><path d="M255.9,446.8 L259.5,489.7"/><path d="M245.6,350.1 L246.3,356.1"/><path d="M200.3,387.4 L208.5,409.7"/><path d="M200.3,387.4 L248.9,378.6"/><path d="M200.3,387.4 L140.5,406.7"/><path d="M248.9,378.6 L246.3,356.1"/><path d="M248.9,378.6 L250.8,398.8"/><path d="M372.4,298.5 L364.8,301.3"/><path d="M372.4,298.5 L365.3,294.9"/><path d="M372.4,298.5 L394.2,291.5"/><path d="M356.6,286.3 L358.6,298.8"/><path d="M356.6,286.3 L355.2,277.4"/><path d="M356.6,286.3 L365.3,294.9"/><path d="M356.6,286.3 L349.9,299.9"/><path d="M342.4,309.4 L352.0,305.8"/><path d="M342.4,309.4 L349.9,299.9"/><path d="M344.5,314.9 L352.4,312.0"/><path d="M344.5,314.9 L352.7,317.5"/><path d="M360.3,322.7 L360.0,315.3"/><path d="M360.3,322.7 L365.7,315.3"/><path d="M360.3,322.7 L360.9,336.0"/><path d="M360.3,322.7 L352.7,317.5"/><path d="M377.4,302.8 L365.7,315.3"/><path d="M377.4,302.8 L365.3,307.4"/><path d="M211.2,56.8 L226.0,82.1"/><path d="M211.2,56.8 L194.0,27.8"/><path d="M211.2,56.8 L212.8,56.0"/><path d="M364.0,50.0 L359.5,62.8"/><path d="M141.9,221.0 L157.5,207.8"/><path d="M141.9,221.0 L121.6,188.8"/><path d="M157.5,207.8 L141.0,181.2"/><path d="M101.2,197.8 L88.7,168.8"/><path d="M101.2,197.8 L121.6,188.8"/><path d="M364.8,193.9 L342.0,190.7"/><path d="M342.0,190.7 L333.6,135.5"/><path d="M342.0,190.7 L351.4,251.9"/><path d="M249.5,189.5 L285.1,159.0"/><path d="M249.5,189.5 L242.2,180.8"/><path d="M249.5,189.5 L209.2,225.0"/><path d="M121.6,188.8 L141.0,181.2"/><path d="M121.6,188.8 L110.5,163.2"/><path d="M141.0,181.2 L162.4,171.9"/><path d="M141.0,181.2 L131.6,160.1"/><path d="M242.2,180.8 L277.4,150.1"/><path d="M242.2,180.8 L235.7,173.2"/><path d="M211.8,179.1 L228.4,164.7"/><path d="M162.4,171.9 L155.0,157.5"/><path d="M360.0,169.9 L365.8,157.1"/><path d="M71.8,171.1 L73.9,175.2"/><path d="M71.8,171.1 L88.7,168.8"/><path d="M71.8,171.1 L56.4,173.1"/><path d="M71.8,171.1 L53.0,132.5"/><path d="M88.7,168.8 L70.3,125.2"/><path d="M88.7,168.8 L110.5,163.2"/><path d="M228.4,164.7 L235.7,173.2"/><path d="M228.4,164.7 L264.5,135.2"/><path d="M110.5,163.2 L131.6,160.1"/><path d="M110.5,163.2 L91.4,120.1"/><path d="M312.9,160.6 L309.0,139.5"/><path d="M312.9,160.6 L333.6,135.5"/><path d="M312.9,160.6 L285.1,159.0"/><path d="M285.1,159.0 L309.0,139.5"/><path d="M285.1,159.0 L277.4,150.1"/><path d="M365.8,157.1 L363.5,141.5"/><path d="M365.8,157.1 L347.9,133.8"/><path d="M155.0,157.5 L131.6,160.1"/><path d="M155.0,157.5 L205.6,143.6"/><path d="M155.0,157.5 L199.7,127.7"/><path d="M277.4,150.1 L306.5,125.7"/><path d="M277.4,150.1 L271.3,142.9"/><path d="M271.3,142.9 L264.5,135.2"/><path d="M271.3,142.9 L235.7,173.2"/><path d="M363.5,141.5 L362.1,132.6"/><path d="M363.5,141.5 L384.1,140.7"/><path d="M205.6,143.6 L217.1,155.9"/><path d="M205.6,143.6 L240.4,111.7"/><path d="M309.0,139.5 L306.5,125.7"/><path d="M309.0,139.5 L332.2,124.1"/><path d="M333.6,135.5 L332.2,124.1"/><path d="M333.6,135.5 L339.5,134.8"/><path d="M264.5,135.2 L253.6,124.5"/><path d="M264.5,135.2 L299.5,104.4"/><path d="M347.9,133.8 L362.1,132.6"/><path d="M347.9,133.8 L339.5,134.8"/><path d="M362.1,132.6 L404.6,129.8"/><path d="M362.1,132.6 L359.7,80.1"/><path d="M70.3,125.2 L91.4,120.1"/><path d="M91.4,120.1 L111.7,114.6"/><path d="M91.4,120.1 L70.9,70.4"/><path d="M111.7,114.6 L117.8,128.6"/><path d="M111.7,114.6 L104.6,100.7"/><path d="M104.6,100.7 L132.2,84.2"/><path d="M104.6,100.7 L89.4,61.4"/><path d="M359.7,80.1 L397.5,79.2"/><path d="M359.7,80.1 L350.7,65.9"/><path d="M70.9,70.4 L84.1,48.7"/><path d="M70.9,70.4 L56.3,36.8"/><path d="M264.1,65.0 L259.7,62.4"/><path d="M264.1,65.0 L264.2,62.7"/><path d="M89.4,61.4 L108.7,52.5"/><path d="M89.4,61.4 L84.1,48.7"/><path d="M397.7,277.9 L363.7,265.0"/><path d="M363.7,265.0 L352.6,260.1"/><path d="M363.7,265.0 L368.3,253.5"/><path d="M352.6,260.1 L351.4,251.9"/><path d="M352.6,260.1 L355.2,277.4"/><path d="M352.6,260.1 L311.8,252.6"/><path d="M198.4,429.1 L193.8,414.3"/><path d="M165.8,422.9 L193.8,414.3"/><path d="M165.8,422.9 L172.9,427.0"/><path d="M165.8,422.9 L160.3,419.7"/><path d="M193.8,414.3 L208.5,409.7"/><path d="M140.5,406.7 L143.0,408.8"/><path d="M140.5,406.7 L130.2,391.9"/><path d="M250.8,398.8 L208.5,409.7"/><path d="M130.2,391.9 L164.5,380.0"/><path d="M130.2,391.9 L122.4,394.5"/><path d="M301.6,375.6 L312.6,375.1"/><path d="M301.6,375.6 L300.4,358.0"/><path d="M312.6,375.1 L312.1,353.8"/><path d="M115.7,373.9 L105.6,394.6"/><path d="M115.7,373.9 L147.0,336.7"/><path d="M172.0,370.9 L162.8,374.5"/><path d="M172.0,370.9 L181.2,367.8"/><path d="M172.0,370.9 L147.0,336.7"/><path d="M181.2,367.8 L189.0,365.0"/><path d="M181.2,367.8 L162.1,333.6"/><path d="M189.0,365.0 L228.4,350.6"/><path d="M189.0,365.0 L182.2,347.1"/><path d="M300.4,358.0 L308.4,355.2"/><path d="M312.1,353.8 L313.6,353.3"/><path d="M312.1,353.8 L308.4,355.2"/><path d="M228.4,350.6 L244.9,344.6"/><path d="M228.4,350.6 L213.8,309.2"/><path d="M182.2,347.1 L179.1,338.2"/><path d="M182.2,347.1 L196.9,336.5"/><path d="M244.9,344.6 L259.3,339.8"/><path d="M244.9,344.6 L223.6,287.7"/><path d="M261.1,339.2 L257.4,311.7"/><path d="M261.1,339.2 L259.3,339.8"/><path d="M261.1,339.2 L267.9,336.8"/><path d="M179.1,338.2 L195.4,332.2"/><path d="M179.1,338.2 L162.4,314.8"/><path d="M147.0,336.7 L162.4,314.8"/><path d="M195.4,332.2 L193.9,327.9"/><path d="M195.4,332.2 L196.9,336.5"/><path d="M288.0,329.8 L310.8,321.2"/><path d="M288.0,329.8 L279.4,304.5"/><path d="M288.0,329.8 L267.9,336.8"/><path d="M162.4,314.8 L170.6,304.6"/><path d="M257.4,311.7 L256.9,307.6"/><path d="M257.4,311.7 L236.6,265.5"/><path d="M203.8,307.7 L199.8,298.0"/><path d="M256.9,307.6 L279.4,304.5"/><path d="M256.9,307.6 L250.0,262.1"/><path d="M279.4,304.5 L323.3,288.3"/><path d="M279.4,304.5 L276.0,285.6"/><path d="M188.3,302.6 L199.8,298.0"/><path d="M199.8,298.0 L210.1,291.0"/><path d="M199.8,298.0 L193.6,286.6"/><path d="M323.3,288.3 L355.2,277.4"/><path d="M323.3,288.3 L316.8,271.5"/><path d="M193.6,286.6 L198.9,283.5"/><path d="M193.6,286.6 L170.6,304.6"/><path d="M276.0,285.6 L316.8,271.5"/><path d="M276.0,285.6 L274.9,276.9"/><path d="M198.9,283.5 L203.1,281.2"/><path d="M203.1,281.2 L210.1,291.0"/><path d="M203.1,281.2 L213.6,275.3"/><path d="M316.8,271.5 L311.8,252.6"/><path d="M221.9,271.2 L199.1,253.1"/><path d="M221.9,271.2 L236.6,265.5"/><path d="M221.9,271.2 L213.6,275.3"/><path d="M236.6,265.5 L250.0,262.1"/><path d="M236.6,265.5 L209.2,225.0"/><path d="M250.0,262.1 L311.8,252.6"/><path d="M311.8,252.6 L351.4,251.9"/><path d="M182.8,243.8 L199.1,253.1"/><path d="M182.8,243.8 L200.7,228.5"/><path d="M25.0,384.8 L49.5,379.3"/><path d="M25.0,384.8 L29.3,366.8"/><path d="M63.8,376.3 L58.2,380.6"/><path d="M63.8,376.3 L73.4,372.1"/><path d="M63.8,376.3 L58.8,364.0"/><path d="M29.3,366.8 L12.8,362.1"/><path d="M29.3,366.8 L32.5,352.2"/><path d="M-0.5,358.3 L12.8,362.1"/><path d="M31.8,325.2 L26.1,286.9"/><path d="M31.8,325.2 L12.5,324.2"/><path d="M31.8,325.2 L40.0,326.4"/><path d="M3.1,323.0 L15.2,285.1"/><path d="M62.1,309.4 L46.5,295.0"/><path d="M62.1,309.4 L40.0,326.4"/><path d="M62.1,309.4 L74.3,300.2"/><path d="M42.7,300.0 L46.5,295.0"/><path d="M46.5,295.0 L55.1,283.8"/><path d="M26.1,286.9 L22.1,271.0"/><path d="M26.1,286.9 L15.2,285.1"/><path d="M15.2,285.1 L-4.0,283.1"/><path d="M55.1,283.8 L46.5,276.9"/><path d="M55.1,283.8 L62.2,276.0"/><path d="M46.5,276.9 L22.1,271.0"/><path d="M46.5,276.9 L52.0,268.7"/><path d="M62.2,276.0 L60.5,274.8"/><path d="M22.1,271.0 L16.5,259.5"/><path d="M52.0,268.7 L60.5,274.8"/><path d="M52.0,268.7 L45.5,261.2"/><path d="M31.0,263.3 L42.8,261.3"/><path d="M42.8,261.3 L45.5,261.2"/><path d="M42.8,261.3 L32.4,256.3"/><path d="M45.5,261.2 L40.8,251.2"/><path d="M94.4,261.2 L90.2,265.3"/><path d="M94.4,261.2 L72.0,209.2"/><path d="M32.4,256.3 L40.8,251.2"/><path d="M40.8,251.2 L30.7,226.5"/><path d="M112.3,239.1 L113.9,238.8"/><path d="M112.3,239.1 L86.1,203.4"/><path d="M30.7,226.5 L21.5,205.2"/><path d="M72.0,209.2 L86.1,203.4"/><path d="M72.0,209.2 L56.4,173.1"/><path d="M86.1,203.4 L73.9,175.2"/><path d="M56.4,173.1 L41.1,137.0"/><path d="M178.7,468.2 L155.4,455.0"/><path d="M178.7,468.2 L195.9,440.0"/><path d="M112.0,464.0 L123.7,441.0"/><path d="M354.3,461.0 L354.0,453.3"/><path d="M123.7,441.0 L111.4,433.4"/><path d="M353.0,441.9 L352.1,428.3"/><path d="M195.9,440.0 L172.9,427.0"/><path d="M124.9,437.7 L113.0,430.9"/><path d="M124.9,437.7 L143.3,448.1"/><path d="M124.9,437.7 L143.0,408.8"/><path d="M364.7,432.8 L364.5,427.9"/><path d="M339.1,428.7 L352.1,428.3"/><path d="M352.1,428.3 L364.5,427.9"/><path d="M143.0,408.8 L160.3,419.7"/><path d="M8.0,211.2 L21.5,205.2"/><path d="M41.1,137.0 L53.0,132.5"/><path d="M41.1,137.0 L20.6,147.0"/><path d="M41.1,137.0 L23.7,95.6"/><path d="M53.0,132.5 L37.4,91.4"/><path d="M7.6,58.0 L23.7,95.6"/><path d="M20.7,51.7 L37.4,91.4"/><path d="M333.5,62.5 L340.1,58.1"/><path d="M333.5,62.5 L329.6,57.6"/><path d="M333.5,62.5 L334.8,79.3"/><path d="M340.1,58.1 L341.7,56.8"/><path d="M312.3,68.7 L307.2,71.7"/><path d="M312.3,68.7 L315.0,72.0"/><path d="M315.0,72.0 L317.5,82.1"/><path d="M396.5,63.8 L358.5,65.5"/><path d="M259.7,62.4 L248.6,68.5"/><path d="M259.7,62.4 L239.8,40.4"/><path d="M226.0,82.1 L248.6,68.5"/><path d="M226.0,82.1 L208.9,95.0"/><path d="M-0.1,155.9 L20.6,147.0"/><path d="M20.6,147.0 L3.2,105.5"/><path d="M3.2,105.5 L23.7,95.6"/><path d="M37.4,91.4 L23.7,95.6"/><path d="M49.5,379.3 L57.2,378.9"/><path d="M49.5,379.3 L44.8,373.8"/><path d="M58.2,380.6 L57.2,378.9"/><path d="M58.2,380.6 L66.9,395.3"/><path d="M32.5,352.2 L48.6,365.9"/><path d="M48.6,365.9 L57.1,360.5"/><path d="M48.6,365.9 L57.2,378.9"/><path d="M58.8,364.0 L57.1,360.5"/><path d="M58.8,364.0 L72.9,355.6"/><path d="M223.6,287.7 L210.1,291.0"/><path d="M223.6,287.7 L213.6,275.3"/><path d="M170.6,304.6 L196.9,336.5"/><path d="M209.2,225.0 L191.5,212.1"/><path d="M209.2,225.0 L200.7,228.5"/><path d="M235.7,173.2 L207.2,198.3"/><path d="M240.4,111.7 L253.6,124.5"/><path d="M131.6,160.1 L117.8,128.6"/><path d="M191.5,212.1 L192.8,211.0"/><path d="M199.1,253.1 L200.7,228.5"/><path d="M155.4,455.0 L172.9,427.0"/><path d="M155.4,455.0 L143.3,448.1"/><path d="M143.3,448.1 L160.3,419.7"/><path d="M350.7,65.9 L358.5,65.5"/><path d="M350.7,65.9 L342.5,66.2"/><path d="M358.5,65.5 L359.5,62.8"/><path d="M153.0,131.5 L121.9,128.0"/><path d="M117.8,128.6 L121.9,128.0"/><path d="M121.9,128.0 L184.3,126.0"/><path d="M213.6,275.3 L217.4,278.2"/><path d="M212.8,56.0 L213.3,57.0"/><path d="M212.8,56.0 L239.8,40.4"/><path d="M212.8,56.0 L194.7,20.0"/><path d="M301.4,58.4 L305.6,60.0"/><path d="M301.4,58.4 L276.8,77.8"/><path d="M82.3,400.5 L82.1,392.7"/><path d="M82.3,400.5 L77.3,403.5"/><path d="M82.3,400.5 L82.6,406.4"/><path d="M82.3,400.5 L85.8,398.7"/><path d="M67.0,406.9 L77.1,384.4"/><path d="M67.0,406.9 L71.3,406.3"/><path d="M67.0,406.9 L64.2,405.4"/><path d="M72.0,412.0 L77.4,409.4"/><path d="M72.0,412.0 L71.3,406.3"/><path d="M72.0,412.0 L72.4,418.4"/><path d="M72.4,418.4 L72.7,422.0"/><path d="M72.4,418.4 L77.6,415.6"/><path d="M72.4,418.4 L63.6,423.0"/><path d="M71.8,429.5 L73.4,427.7"/><path d="M71.8,429.5 L70.4,431.5"/><path d="M71.8,429.5 L78.5,434.9"/><path d="M69.1,393.8 L66.9,395.3"/><path d="M364.8,301.3 L364.0,297.1"/><path d="M364.8,301.3 L365.3,307.4"/><path d="M358.6,298.8 L364.0,297.1"/><path d="M358.6,298.8 L351.9,300.0"/><path d="M352.0,305.8 L351.9,300.0"/><path d="M352.0,305.8 L352.2,309.4"/><path d="M352.4,312.0 L352.2,309.4"/><path d="M352.4,312.0 L352.7,317.5"/><path d="M352.7,317.5 L360.0,315.3"/><path d="M360.0,315.3 L365.7,315.3"/><path d="M365.7,315.3 L365.3,307.4"/><path d="M88.6,402.9 L86.8,404.0"/><path d="M88.6,402.9 L95.0,404.3"/><path d="M88.6,402.9 L85.8,398.7"/><path d="M83.0,427.3 L78.2,427.5"/><path d="M83.0,427.3 L83.1,420.0"/><path d="M83.0,427.3 L89.7,426.8"/><path d="M111.4,433.4 L113.0,430.9"/><path d="M111.4,433.4 L91.2,430.2"/><path d="M113.0,430.9 L95.5,406.1"/><path d="M95.5,406.1 L122.4,394.5"/><path d="M95.5,406.1 L82.7,412.7"/><path d="M95.5,406.1 L95.0,404.3"/><path d="M85.6,396.7 L82.1,392.7"/><path d="M85.6,396.7 L85.8,398.7"/><path d="M71.3,406.3 L77.3,403.5"/><path d="M73.4,427.7 L78.2,427.5"/><path d="M73.4,427.7 L72.7,422.0"/><path d="M246.3,356.1 L249.4,359.4"/><path d="M73.9,175.2 L77.6,174.6"/><path d="M267.9,336.8 L268.7,339.3"/><path d="M269.3,341.4 L268.7,339.3"/><path d="M162.8,374.5 L135.7,384.2"/><path d="M162.8,374.5 L163.5,376.7"/><path d="M164.5,380.0 L173.8,375.3"/><path d="M164.5,380.0 L163.5,376.7"/><path d="M351.9,300.0 L349.9,299.9"/><path d="M364.0,297.1 L365.3,294.9"/><path d="M163.5,376.7 L173.8,375.3"/><path d="M163.5,376.7 L122.4,394.5"/><path d="M268.7,339.3 L259.3,339.8"/><path d="M268.7,339.3 L310.8,321.2"/><path d="M352.2,309.4 L314.1,325.8"/><path d="M208.4,98.0 L208.9,95.0"/><path d="M208.9,95.0 L207.5,94.7"/><path d="M165.8,26.0 L207.5,94.7"/><path d="M207.5,94.7 L185.4,24.9"/><path d="M213.3,57.0 L238.4,42.7"/><path d="M213.3,57.0 L247.6,66.7"/><path d="M265.3,28.1 L264.2,62.7"/><path d="M167.5,25.0 L188.7,61.8"/><path d="M352.9,32.5 L341.7,56.8"/><path d="M305.6,60.0 L315.2,48.6"/><path d="M341.7,56.8 L344.5,63.3"/><path d="M344.5,63.3 L359.5,62.8"/><path d="M344.5,63.3 L342.5,66.2"/><path d="M359.5,62.8 L403.2,61.3"/><path d="M339.5,134.8 L342.5,66.2"/><path d="M71.0,267.8 L69.2,262.9"/><path d="M71.0,267.8 L60.5,274.8"/><path d="M90.2,265.3 L69.2,262.9"/><path d="M264.2,62.7 L271.6,71.7"/><path d="M264.2,62.7 L247.6,66.7"/><path d="M83.4,459.2 L86.1,459.3"/><path d="M83.4,459.2 L78.9,459.3"/><path d="M249.5,69.9 L248.6,68.5"/><path d="M248.6,68.5 L247.6,66.7"/><path d="M207.2,198.3 L192.8,211.0"/><path d="M207.2,198.3 L204.6,194.1"/><path d="M204.6,194.1 L214.3,185.9"/><path d="M204.6,194.1 L192.8,211.0"/><path d="M308.4,355.2 L304.2,344.7"/><path d="M313.6,353.3 L309.4,342.6"/><path d="M17.7,446.4 L8.8,450.9"/><path d="M-5.2,270.9 L16.5,259.5"/><path d="M12.8,362.1 L20.0,333.7"/><path d="M4.8,442.7 L13.6,438.7"/><path d="M13.6,438.7 L64.2,405.4"/><path d="M64.2,405.4 L66.9,395.3"/><path d="M70.4,431.5 L10.6,453.9"/><path d="M70.4,431.5 L76.1,459.4"/><path d="M76.1,459.4 L78.9,459.3"/><path d="M76.1,459.4 L76.1,464.6"/><path d="M86.1,459.3 L86.3,464.2"/><path d="M86.1,459.3 L91.2,430.2"/><path d="M89.7,426.8 L91.2,430.2"/><path d="M135.7,384.2 L105.6,394.6"/><path d="M135.7,384.2 L95.0,404.3"/><path d="M95.0,404.3 L86.8,404.0"/><path d="M77.1,384.4 L77.1,392.6"/><path d="M77.1,384.4 L74.3,300.2"/><path d="M77.3,403.5 L77.1,392.6"/><path d="M77.3,403.5 L77.4,409.4"/><path d="M78.5,434.9 L78.9,459.3"/><path d="M78.5,434.9 L78.2,427.5"/><path d="M78.2,427.5 L77.9,421.0"/><path d="M86.8,404.0 L82.6,406.4"/><path d="M78.9,459.3 L79.1,464.5"/><path d="M77.1,392.6 L82.1,392.7"/><path d="M83.1,420.0 L77.6,415.6"/><path d="M83.1,420.0 L82.7,412.7"/><path d="M83.1,420.0 L77.9,421.0"/><path d="M82.6,406.4 L77.4,409.4"/><path d="M82.6,406.4 L82.7,412.7"/><path d="M77.9,421.0 L72.7,422.0"/><path d="M77.9,421.0 L77.6,415.6"/><path d="M77.6,415.6 L77.4,409.4"/><path d="M77.6,415.6 L82.7,412.7"/><path d="M77.4,409.4 L82.7,412.7"/><path d="M72.7,422.0 L63.6,423.0"/></g></defs><g transform="translate(0,105)"><rect x="0" y="0" width="390" height="520" rx="14" fill="#fff" stroke="#d8dee9"/><text x="18" y="28" font-size="18" font-weight="700" fill="#111827">A 거리 기준</text><text x="372" y="28" text-anchor="end" font-size="12" fill="#64748b">유효 · D2 외부커버 100.0%</text><g clip-path="url(#map-clip)"><use href="#roads"/><polygon points="494.9,359.9 466.0,285.7 399.1,275.2 361.1,338.8 390.0,413.0 456.9,423.5" fill="rgb(49,130,189)" fill-opacity="0.261" stroke="none"/><polygon points="513.1,84.2 484.2,10.0 417.2,-0.6 379.2,63.1 408.2,137.3 475.1,147.8" fill="rgb(49,130,189)" fill-opacity="0.266" stroke="none"/><polygon points="24.7,-201.5 -4.3,-275.7 -71.2,-286.2 -109.2,-222.5 -80.3,-148.3 -13.3,-137.8" fill="rgb(49,130,189)" fill-opacity="0.269" stroke="none"/><polygon points="75.2,572.4 46.3,498.3 -20.7,487.7 -58.6,551.4 -29.7,625.6 37.2,636.1" fill="rgb(49,130,189)" fill-opacity="0.272" stroke="none"/><polygon points="-80.3,-148.3 -109.2,-222.5 -176.1,-233.0 -214.1,-169.3 -185.2,-95.2 -118.3,-84.7" fill="rgb(49,130,189)" fill-opacity="0.274" stroke="none"/><polygon points="504.0,222.0 475.1,147.8 408.2,137.3 370.1,201.0 399.1,275.2 466.0,285.7" fill="rgb(49,130,189)" fill-opacity="0.278" stroke="none"/><polygon points="225.5,-170.0 196.6,-244.1 129.6,-254.7 91.6,-191.0 120.5,-116.8 187.5,-106.3" fill="rgb(49,130,189)" fill-opacity="0.288" stroke="none"/><polygon points="-212.4,318.4 -241.3,244.2 -308.2,233.7 -346.2,297.3 -317.3,371.5 -250.3,382.0" fill="rgb(49,130,189)" fill-opacity="0.292" stroke="none"/><polygon points="390.0,413.0 361.1,338.8 294.1,328.3 256.1,392.0 285.0,466.2 352.0,476.7" fill="rgb(49,130,189)" fill-opacity="0.299" stroke="none"/><polygon points="-194.3,42.7 -223.2,-31.5 -290.1,-42.0 -328.1,21.7 -299.2,95.8 -232.2,106.3" fill="rgb(49,130,189)" fill-opacity="0.302" stroke="none"/><polygon points="417.2,-0.6 388.3,-74.7 321.4,-85.3 283.4,-21.6 312.3,52.6 379.2,63.1" fill="rgb(49,130,189)" fill-opacity="0.303" stroke="none"/><polygon points="180.1,519.3 151.2,445.1 84.3,434.6 46.3,498.3 75.2,572.4 142.1,583.0" fill="rgb(49,130,189)" fill-opacity="0.307" stroke="none"/><polygon points="-20.7,487.7 -49.6,413.6 -116.5,403.0 -154.5,466.7 -125.6,540.9 -58.6,551.4" fill="rgb(49,130,189)" fill-opacity="0.310" stroke="none"/><polygon points="321.4,-85.3 292.4,-159.5 225.5,-170.0 187.5,-106.3 216.4,-32.1 283.4,-21.6" fill="rgb(49,130,189)" fill-opacity="0.312" stroke="none"/><polygon points="-203.3,180.5 -232.2,106.3 -299.2,95.8 -337.2,159.5 -308.2,233.7 -241.3,244.2" fill="rgb(49,130,189)" fill-opacity="0.318" stroke="none"/><polygon points="285.0,466.2 256.1,392.0 189.2,381.4 151.2,445.1 180.1,519.3 247.0,529.8" fill="rgb(49,130,189)" fill-opacity="0.319" stroke="none"/><polygon points="-116.5,403.0 -145.4,328.9 -212.4,318.4 -250.3,382.0 -221.4,456.2 -154.5,466.7" fill="rgb(49,130,189)" fill-opacity="0.319" stroke="none"/><polygon points="120.5,-116.8 91.6,-191.0 24.7,-201.5 -13.3,-137.8 15.6,-63.6 82.5,-53.1" fill="rgb(49,130,189)" fill-opacity="0.339" stroke="none"/><polygon points="399.1,275.2 370.1,201.0 303.2,190.4 265.2,254.1 294.1,328.3 361.1,338.8" fill="rgb(49,130,189)" fill-opacity="0.348" stroke="none"/><polygon points="408.2,137.3 379.2,63.1 312.3,52.6 274.3,116.3 303.2,190.4 370.1,201.0" fill="rgb(49,130,189)" fill-opacity="0.349" stroke="none"/><polygon points="-89.3,-10.5 -118.3,-84.7 -185.2,-95.2 -223.2,-31.5 -194.3,42.7 -127.3,53.2" fill="rgb(49,130,189)" fill-opacity="0.350" stroke="none"/><polygon points="15.6,-63.6 -13.3,-137.8 -80.3,-148.3 -118.3,-84.7 -89.3,-10.5 -22.4,0.0" fill="rgb(49,130,189)" fill-opacity="0.366" stroke="none"/><polygon points="84.3,434.6 55.3,360.4 -11.6,349.9 -49.6,413.6 -20.7,487.7 46.3,498.3" fill="rgb(49,130,189)" fill-opacity="0.381" stroke="none"/><polygon points="-107.4,265.2 -136.4,191.0 -203.3,180.5 -241.3,244.2 -212.4,318.4 -145.4,328.9" fill="rgb(49,130,189)" fill-opacity="0.391" stroke="none"/><polygon points="216.4,-32.1 187.5,-106.3 120.5,-116.8 82.5,-53.1 111.5,21.0 178.4,31.6" fill="rgb(49,130,189)" fill-opacity="0.401" stroke="none"/><polygon points="312.3,52.6 283.4,-21.6 216.4,-32.1 178.4,31.6 207.3,105.7 274.3,116.3" fill="rgb(49,130,189)" fill-opacity="0.406" stroke="none"/><polygon points="-98.4,127.4 -127.3,53.2 -194.3,42.7 -232.2,106.3 -203.3,180.5 -136.4,191.0" fill="rgb(49,130,189)" fill-opacity="0.407" stroke="none"/><polygon points="294.1,328.3 265.2,254.1 198.3,243.6 160.3,307.3 189.2,381.4 256.1,392.0" fill="rgb(49,130,189)" fill-opacity="0.412" stroke="none"/><polygon points="-11.6,349.9 -40.5,275.7 -107.4,265.2 -145.4,328.9 -116.5,403.0 -49.6,413.6" fill="rgb(49,130,189)" fill-opacity="0.423" stroke="none"/><polygon points="189.2,381.4 160.3,307.3 93.3,296.7 55.3,360.4 84.3,434.6 151.2,445.1" fill="rgb(49,130,189)" fill-opacity="0.429" stroke="none"/><polygon points="303.2,190.4 274.3,116.3 207.3,105.7 169.3,169.4 198.3,243.6 265.2,254.1" fill="rgb(49,130,189)" fill-opacity="0.463" stroke="none"/><polygon points="111.5,21.0 82.5,-53.1 15.6,-63.6 -22.4,0.0 6.5,74.2 73.5,84.7" fill="rgb(49,130,189)" fill-opacity="0.485" stroke="none"/><polygon points="6.5,74.2 -22.4,0.0 -89.3,-10.5 -127.3,53.2 -98.4,127.4 -31.5,137.9" fill="rgb(49,130,189)" fill-opacity="0.489" stroke="none"/><polygon points="-2.5,212.1 -31.5,137.9 -98.4,127.4 -136.4,191.0 -107.4,265.2 -40.5,275.7" fill="rgb(49,130,189)" fill-opacity="0.533" stroke="none"/><polygon points="93.3,296.7 64.4,222.6 -2.5,212.1 -40.5,275.7 -11.6,349.9 55.3,360.4" fill="rgb(49,130,189)" fill-opacity="0.551" stroke="none"/><polygon points="207.3,105.7 178.4,31.6 111.5,21.0 73.5,84.7 102.4,158.9 169.3,169.4" fill="rgb(49,130,189)" fill-opacity="0.554" stroke="none"/><polygon points="198.3,243.6 169.3,169.4 102.4,158.9 64.4,222.6 93.3,296.7 160.3,307.3" fill="rgb(49,130,189)" fill-opacity="0.584" stroke="none"/><polygon points="102.4,158.9 73.5,84.7 6.5,74.2 -31.5,137.9 -2.5,212.1 64.4,222.6" fill="rgb(49,130,189)" fill-opacity="0.700" stroke="none"/><polygon points="312.3,52.6 283.4,-21.6 216.4,-32.1 178.4,31.6 207.3,105.7 274.3,116.3" fill="none" stroke="#111827" stroke-width="1.35" stroke-dasharray="4 3" stroke-linejoin="round"/><polygon points="-2.5,212.1 -31.5,137.9 -98.4,127.4 -136.4,191.0 -107.4,265.2 -40.5,275.7" fill="none" stroke="#111827" stroke-width="1.35" stroke-dasharray="4 3" stroke-linejoin="round"/><polygon points="15.6,-63.6 -13.3,-137.8 -80.3,-148.3 -118.3,-84.7 -89.3,-10.5 -22.4,0.0" fill="none" stroke="#111827" stroke-width="1.35" stroke-dasharray="4 3" stroke-linejoin="round"/><polygon points="93.3,296.7 64.4,222.6 -2.5,212.1 -40.5,275.7 -11.6,349.9 55.3,360.4" fill="none" stroke="#111827" stroke-width="1.35" stroke-dasharray="4 3" stroke-linejoin="round"/><polygon points="6.5,74.2 -22.4,0.0 -89.3,-10.5 -127.3,53.2 -98.4,127.4 -31.5,137.9" fill="none" stroke="#111827" stroke-width="1.35" stroke-dasharray="4 3" stroke-linejoin="round"/><polygon points="294.1,328.3 265.2,254.1 198.3,243.6 160.3,307.3 189.2,381.4 256.1,392.0" fill="none" stroke="#111827" stroke-width="1.35" stroke-dasharray="4 3" stroke-linejoin="round"/><polygon points="102.4,158.9 73.5,84.7 6.5,74.2 -31.5,137.9 -2.5,212.1 64.4,222.6" fill="none" stroke="#111827" stroke-width="1.35" stroke-dasharray="4 3" stroke-linejoin="round"/><polygon points="198.3,243.6 169.3,169.4 102.4,158.9 64.4,222.6 93.3,296.7 160.3,307.3" fill="none" stroke="#111827" stroke-width="1.35" stroke-dasharray="4 3" stroke-linejoin="round"/><polygon points="84.3,434.6 55.3,360.4 -11.6,349.9 -49.6,413.6 -20.7,487.7 46.3,498.3" fill="none" stroke="#111827" stroke-width="1.35" stroke-dasharray="4 3" stroke-linejoin="round"/><polygon points="189.2,381.4 160.3,307.3 93.3,296.7 55.3,360.4 84.3,434.6 151.2,445.1" fill="none" stroke="#111827" stroke-width="1.35" stroke-dasharray="4 3" stroke-linejoin="round"/><polygon points="207.3,105.7 178.4,31.6 111.5,21.0 73.5,84.7 102.4,158.9 169.3,169.4" fill="none" stroke="#111827" stroke-width="1.35" stroke-dasharray="4 3" stroke-linejoin="round"/><polygon points="-89.3,-10.5 -118.3,-84.7 -185.2,-95.2 -223.2,-31.5 -194.3,42.7 -127.3,53.2" fill="none" stroke="#111827" stroke-width="1.35" stroke-dasharray="4 3" stroke-linejoin="round"/><polygon points="120.5,-116.8 91.6,-191.0 24.7,-201.5 -13.3,-137.8 15.6,-63.6 82.5,-53.1" fill="none" stroke="#111827" stroke-width="1.35" stroke-dasharray="4 3" stroke-linejoin="round"/><polygon points="-107.4,265.2 -136.4,191.0 -203.3,180.5 -241.3,244.2 -212.4,318.4 -145.4,328.9" fill="none" stroke="#111827" stroke-width="1.35" stroke-dasharray="4 3" stroke-linejoin="round"/><polygon points="216.4,-32.1 187.5,-106.3 120.5,-116.8 82.5,-53.1 111.5,21.0 178.4,31.6" fill="none" stroke="#111827" stroke-width="1.35" stroke-dasharray="4 3" stroke-linejoin="round"/><polygon points="111.5,21.0 82.5,-53.1 15.6,-63.6 -22.4,0.0 6.5,74.2 73.5,84.7" fill="none" stroke="#111827" stroke-width="1.35" stroke-dasharray="4 3" stroke-linejoin="round"/><polygon points="-11.6,349.9 -40.5,275.7 -107.4,265.2 -145.4,328.9 -116.5,403.0 -49.6,413.6" fill="none" stroke="#111827" stroke-width="1.35" stroke-dasharray="4 3" stroke-linejoin="round"/><polygon points="303.2,190.4 274.3,116.3 207.3,105.7 169.3,169.4 198.3,243.6 265.2,254.1" fill="none" stroke="#111827" stroke-width="1.35" stroke-dasharray="4 3" stroke-linejoin="round"/><polygon points="-98.4,127.4 -127.3,53.2 -194.3,42.7 -232.2,106.3 -203.3,180.5 -136.4,191.0" fill="none" stroke="#111827" stroke-width="1.35" stroke-dasharray="4 3" stroke-linejoin="round"/><polygon points="-203.3,180.5 -232.2,106.3 -299.2,95.8 -337.2,159.5 -308.2,233.7 -241.3,244.2" fill="none" stroke="#111827" stroke-width="2.15" stroke-linejoin="round"/><polygon points="-80.3,-148.3 -109.2,-222.5 -176.1,-233.0 -214.1,-169.3 -185.2,-95.2 -118.3,-84.7" fill="none" stroke="#111827" stroke-width="2.15" stroke-linejoin="round"/><polygon points="513.1,84.2 484.2,10.0 417.2,-0.6 379.2,63.1 408.2,137.3 475.1,147.8" fill="none" stroke="#111827" stroke-width="2.15" stroke-linejoin="round"/><polygon points="321.4,-85.3 292.4,-159.5 225.5,-170.0 187.5,-106.3 216.4,-32.1 283.4,-21.6" fill="none" stroke="#111827" stroke-width="2.15" stroke-linejoin="round"/><polygon points="417.2,-0.6 388.3,-74.7 321.4,-85.3 283.4,-21.6 312.3,52.6 379.2,63.1" fill="none" stroke="#111827" stroke-width="2.15" stroke-linejoin="round"/><polygon points="24.7,-201.5 -4.3,-275.7 -71.2,-286.2 -109.2,-222.5 -80.3,-148.3 -13.3,-137.8" fill="none" stroke="#111827" stroke-width="2.15" stroke-linejoin="round"/><polygon points="-194.3,42.7 -223.2,-31.5 -290.1,-42.0 -328.1,21.7 -299.2,95.8 -232.2,106.3" fill="none" stroke="#111827" stroke-width="2.15" stroke-linejoin="round"/><polygon points="504.0,222.0 475.1,147.8 408.2,137.3 370.1,201.0 399.1,275.2 466.0,285.7" fill="none" stroke="#111827" stroke-width="2.15" stroke-linejoin="round"/><polygon points="-212.4,318.4 -241.3,244.2 -308.2,233.7 -346.2,297.3 -317.3,371.5 -250.3,382.0" fill="none" stroke="#111827" stroke-width="2.15" stroke-linejoin="round"/><polygon points="390.0,413.0 361.1,338.8 294.1,328.3 256.1,392.0 285.0,466.2 352.0,476.7" fill="none" stroke="#111827" stroke-width="2.15" stroke-linejoin="round"/><polygon points="285.0,466.2 256.1,392.0 189.2,381.4 151.2,445.1 180.1,519.3 247.0,529.8" fill="none" stroke="#111827" stroke-width="2.15" stroke-linejoin="round"/><polygon points="225.5,-170.0 196.6,-244.1 129.6,-254.7 91.6,-191.0 120.5,-116.8 187.5,-106.3" fill="none" stroke="#111827" stroke-width="2.15" stroke-linejoin="round"/><polygon points="75.2,572.4 46.3,498.3 -20.7,487.7 -58.6,551.4 -29.7,625.6 37.2,636.1" fill="none" stroke="#111827" stroke-width="2.15" stroke-linejoin="round"/><polygon points="-20.7,487.7 -49.6,413.6 -116.5,403.0 -154.5,466.7 -125.6,540.9 -58.6,551.4" fill="none" stroke="#111827" stroke-width="2.15" stroke-linejoin="round"/><polygon points="399.1,275.2 370.1,201.0 303.2,190.4 265.2,254.1 294.1,328.3 361.1,338.8" fill="none" stroke="#111827" stroke-width="2.15" stroke-linejoin="round"/><polygon points="494.9,359.9 466.0,285.7 399.1,275.2 361.1,338.8 390.0,413.0 456.9,423.5" fill="none" stroke="#111827" stroke-width="2.15" stroke-linejoin="round"/><polygon points="408.2,137.3 379.2,63.1 312.3,52.6 274.3,116.3 303.2,190.4 370.1,201.0" fill="none" stroke="#111827" stroke-width="2.15" stroke-linejoin="round"/><polygon points="-116.5,403.0 -145.4,328.9 -212.4,318.4 -250.3,382.0 -221.4,456.2 -154.5,466.7" fill="none" stroke="#111827" stroke-width="2.15" stroke-linejoin="round"/><polygon points="180.1,519.3 151.2,445.1 84.3,434.6 46.3,498.3 75.2,572.4 142.1,583.0" fill="none" stroke="#111827" stroke-width="2.15" stroke-linejoin="round"/><polyline points="56.4,173.1 105.7,202.5 113.6,210.9 121.5,219.3 129.4,227.8 140.0,231.7 151.6,234.0 163.1,236.5 174.1,240.6 184.9,245.0 195.2,250.9 204.8,257.6 213.9,264.9 223.3,270.7 234.3,266.4 240.2,273.4 244.6,283.3 249.1,293.3 253.6,303.2 257.6,313.3 259.2,325.1 260.8,336.8 268.6,338.9 277.9,338.3 289.1,334.4 300.3,330.6 311.4,326.7 322.5,322.7 333.6,318.6" fill="none" stroke="#dc2626" stroke-width="3" stroke-linecap="round" stroke-linejoin="round"/><circle cx="105.7" cy="202.5" r="2.1" fill="#dc2626"/><circle cx="113.6" cy="210.9" r="2.1" fill="#dc2626"/><circle cx="121.5" cy="219.3" r="2.1" fill="#dc2626"/><circle cx="129.4" cy="227.8" r="2.1" fill="#dc2626"/><circle cx="140.0" cy="231.7" r="2.1" fill="#dc2626"/><circle cx="151.6" cy="234.0" r="2.1" fill="#dc2626"/><circle cx="163.1" cy="236.5" r="2.1" fill="#dc2626"/><circle cx="174.1" cy="240.6" r="2.1" fill="#dc2626"/><circle cx="184.9" cy="245.0" r="2.1" fill="#dc2626"/><circle cx="195.2" cy="250.9" r="2.1" fill="#dc2626"/><circle cx="204.8" cy="257.6" r="2.1" fill="#dc2626"/><circle cx="213.9" cy="264.9" r="2.1" fill="#dc2626"/><circle cx="223.3" cy="270.7" r="2.1" fill="#dc2626"/><circle cx="234.3" cy="266.4" r="2.1" fill="#dc2626"/><circle cx="240.2" cy="273.4" r="2.1" fill="#dc2626"/><circle cx="244.6" cy="283.3" r="2.1" fill="#dc2626"/><circle cx="249.1" cy="293.3" r="2.1" fill="#dc2626"/><circle cx="253.6" cy="303.2" r="2.1" fill="#dc2626"/><circle cx="257.6" cy="313.3" r="2.1" fill="#dc2626"/><circle cx="259.2" cy="325.1" r="2.1" fill="#dc2626"/><circle cx="260.8" cy="336.8" r="2.1" fill="#dc2626"/><circle cx="268.6" cy="338.9" r="2.1" fill="#dc2626"/><circle cx="277.9" cy="338.3" r="2.1" fill="#dc2626"/><circle cx="289.1" cy="334.4" r="2.1" fill="#dc2626"/><circle cx="300.3" cy="330.6" r="2.1" fill="#dc2626"/><circle cx="311.4" cy="326.7" r="2.1" fill="#dc2626"/><circle cx="322.5" cy="322.7" r="2.1" fill="#dc2626"/><circle cx="333.6" cy="318.6" r="2.1" fill="#dc2626"/><circle cx="56.4" cy="173.1" r="6" fill="#2563eb" stroke="white" stroke-width="2"/><path d="M333.6,311.6 L340.6,318.6 L333.6,325.6 L326.6,318.6 Z" fill="#dc2626" stroke="white" stroke-width="2"/></g><text x="18" y="484" font-size="10.5" fill="#475569">● 시작 · ━ 정답 이동 · ◆ 현재 실제 위치</text><text x="18" y="503" font-size="10.5" fill="#475569">검정 점선 D1 · 검정 실선 알림 후보 셀</text></g><g transform="translate(408,105)"><rect x="0" y="0" width="390" height="520" rx="14" fill="#fff" stroke="#d8dee9"/><text x="18" y="28" font-size="18" font-weight="700" fill="#111827">B EXAONE 비개인화</text><text x="372" y="28" text-anchor="end" font-size="12" fill="#64748b">유효 · D2 외부커버 100.0%</text><g clip-path="url(#map-clip)"><use href="#roads"/><polygon points="-577.7,-296.0 -606.6,-370.2 -673.6,-380.6 -711.5,-317.0 -682.6,-242.8 -615.7,-232.3" fill="rgb(230,85,13)" fill-opacity="0.125" stroke="none"/><polygon points="-317.3,371.5 -346.2,297.3 -413.1,286.8 -451.1,350.5 -422.2,424.7 -355.2,435.2" fill="rgb(230,85,13)" fill-opacity="0.125" stroke="none"/><polygon points="786.8,-987.3 757.8,-1061.5 690.9,-1072.0 652.8,-1008.3 681.8,-934.1 748.7,-923.6" fill="rgb(230,85,13)" fill-opacity="0.125" stroke="none"/><polygon points="1010.7,232.0 981.8,157.8 914.8,147.3 876.8,211.0 905.7,285.2 972.7,295.7" fill="rgb(230,85,13)" fill-opacity="0.125" stroke="none"/><polygon points="645.4,-382.6 616.4,-456.8 549.5,-467.3 511.4,-403.6 540.4,-329.4 607.3,-318.9" fill="rgb(230,85,13)" fill-opacity="0.125" stroke="none"/><polygon points="-458.3,976.0 -487.3,901.8 -554.2,891.3 -592.1,954.9 -563.2,1029.1 -496.3,1039.6" fill="rgb(230,85,13)" fill-opacity="0.125" stroke="none"/><polygon points="-586.7,-158.2 -615.7,-232.3 -682.6,-242.8 -720.6,-179.2 -691.6,-105.0 -624.7,-94.5" fill="rgb(230,85,13)" fill-opacity="0.125" stroke="none"/><polygon points="590.8,444.6 561.9,370.4 494.9,359.9 456.9,423.5 485.9,497.7 552.8,508.3" fill="rgb(230,85,13)" fill-opacity="0.125" stroke="none"/><polygon points="609.0,168.9 580.1,94.7 513.1,84.2 475.1,147.8 504.0,222.0 571.0,232.5" fill="rgb(230,85,13)" fill-opacity="0.125" stroke="none"/><polygon points="800.7,338.3 771.8,264.1 704.9,253.6 666.8,317.3 695.8,391.5 762.7,402.0" fill="rgb(230,85,13)" fill-opacity="0.125" stroke="none"/><polygon points="-263.0,-455.5 -291.9,-529.7 -358.8,-540.2 -396.8,-476.5 -367.9,-402.3 -301.0,-391.9" fill="rgb(230,85,13)" fill-opacity="0.125" stroke="none"/><polygon points="-413.1,286.8 -442.1,212.7 -509.0,202.2 -546.9,265.8 -518.0,340.0 -451.1,350.5" fill="rgb(230,85,13)" fill-opacity="0.125" stroke="none"/><polygon points="371.8,688.7 342.9,614.5 276.0,604.0 238.0,667.7 266.9,741.9 333.8,752.4" fill="rgb(230,85,13)" fill-opacity="0.125" stroke="none"/><polygon points="905.7,285.2 876.8,211.0 809.8,200.5 771.8,264.1 800.7,338.3 867.7,348.9" fill="rgb(230,85,13)" fill-opacity="0.125" stroke="none"/><polygon points="654.5,-520.5 625.5,-594.7 558.6,-605.2 520.5,-541.5 549.5,-467.3 616.4,-456.8" fill="rgb(230,85,13)" fill-opacity="0.125" stroke="none"/><polygon points="-536.1,615.6 -565.0,541.5 -631.9,531.0 -669.9,594.6 -641.0,668.8 -574.1,679.3" fill="rgb(230,85,13)" fill-opacity="0.125" stroke="none"/><polygon points="887.5,560.9 858.6,486.7 791.6,476.2 753.6,539.9 782.5,614.1 849.5,624.6" fill="rgb(230,85,13)" fill-opacity="0.143" stroke="none"/><polygon points="-431.2,562.5 -460.1,488.3 -527.0,477.8 -565.0,541.5 -536.1,615.6 -469.2,626.2" fill="rgb(230,85,13)" fill-opacity="0.143" stroke="none"/><polygon points="-176.1,-233.0 -205.1,-307.2 -272.0,-317.7 -310.0,-254.0 -281.1,-179.8 -214.1,-169.3" fill="rgb(230,85,13)" fill-opacity="0.143" stroke="none"/><polygon points="-158.0,-508.7 -187.0,-582.9 -253.9,-593.4 -291.9,-529.7 -263.0,-455.5 -196.0,-445.0" fill="rgb(230,85,13)" fill-opacity="0.143" stroke="none"/><polygon points="714.0,115.7 685.0,41.5 618.1,31.0 580.1,94.7 609.0,168.9 675.9,179.4" fill="rgb(230,85,13)" fill-opacity="0.143" stroke="none"/><polygon points="156.8,-668.2 127.9,-742.4 60.9,-752.9 22.9,-689.2 51.9,-615.1 118.8,-604.6" fill="rgb(230,85,13)" fill-opacity="0.143" stroke="none"/><polygon points="686.7,529.3 657.7,455.1 590.8,444.6 552.8,508.3 581.7,582.5 648.7,593.0" fill="rgb(230,85,13)" fill-opacity="0.148" stroke="none"/><polygon points="-745.8,721.9 -774.7,647.8 -841.6,637.3 -879.6,700.9 -850.7,775.1 -783.8,785.6" fill="rgb(230,85,13)" fill-opacity="0.148" stroke="none"/><polygon points="-185.2,-95.2 -214.1,-169.3 -281.1,-179.8 -319.1,-116.2 -290.1,-42.0 -223.2,-31.5" fill="rgb(230,85,13)" fill-opacity="0.148" stroke="none"/><polygon points="-499.9,64.3 -528.9,-9.8 -595.8,-20.3 -633.8,43.3 -604.8,117.5 -537.9,128.0" fill="rgb(230,85,13)" fill-opacity="0.148" stroke="none"/><polygon points="57.1,848.1 28.1,773.9 -38.8,763.4 -76.8,827.1 -47.8,901.3 19.1,911.8" fill="rgb(230,85,13)" fill-opacity="0.148" stroke="none"/><polygon points="-472.8,-349.2 -501.7,-423.3 -568.7,-433.8 -606.6,-370.2 -577.7,-296.0 -510.8,-285.5" fill="rgb(230,85,13)" fill-opacity="0.148" stroke="none"/><polygon points="-38.8,763.4 -67.7,689.2 -134.6,678.7 -172.6,742.4 -143.7,816.6 -76.8,827.1" fill="rgb(230,85,13)" fill-opacity="0.148" stroke="none"/><polygon points="467.7,773.4 438.8,699.2 371.8,688.7 333.8,752.4 362.7,826.6 429.7,837.1" fill="rgb(230,85,13)" fill-opacity="0.148" stroke="none"/><polygon points="60.9,-752.9 32.0,-827.1 -35.0,-837.6 -73.0,-773.9 -44.0,-699.7 22.9,-689.2" fill="rgb(230,85,13)" fill-opacity="0.148" stroke="none"/><polygon points="531.3,-191.6 502.4,-265.8 435.4,-276.3 397.4,-212.6 426.3,-138.4 493.3,-127.9" fill="rgb(230,85,13)" fill-opacity="0.148" stroke="none"/><polygon points="165.9,-806.1 137.0,-880.3 70.0,-890.8 32.0,-827.1 60.9,-752.9 127.9,-742.4" fill="rgb(230,85,13)" fill-opacity="0.148" stroke="none"/><polygon points="695.8,391.5 666.8,317.3 599.9,306.7 561.9,370.4 590.8,444.6 657.7,455.1" fill="rgb(230,85,13)" fill-opacity="0.148" stroke="none"/><polygon points="-422.2,424.7 -451.1,350.5 -518.0,340.0 -556.0,403.7 -527.0,477.8 -460.1,488.3" fill="rgb(230,85,13)" fill-opacity="0.148" stroke="none"/><polygon points="435.4,-276.3 406.5,-350.5 339.5,-361.0 301.5,-297.3 330.4,-223.1 397.4,-212.6" fill="rgb(230,85,13)" fill-opacity="0.148" stroke="none"/><polygon points="-167.1,-370.9 -196.0,-445.0 -263.0,-455.5 -301.0,-391.9 -272.0,-317.7 -205.1,-307.2" fill="rgb(230,85,13)" fill-opacity="0.148" stroke="none"/><polygon points="380.9,550.9 352.0,476.7 285.0,466.2 247.0,529.8 276.0,604.0 342.9,614.5" fill="rgb(230,85,13)" fill-opacity="0.161" stroke="none"/><polygon points="70.0,-890.8 41.1,-964.9 -25.9,-975.4 -63.9,-911.8 -35.0,-837.6 32.0,-827.1" fill="rgb(230,85,13)" fill-opacity="0.161" stroke="none"/><polygon points="-149.0,-646.6 -177.9,-720.7 -244.9,-731.2 -282.8,-667.5 -253.9,-593.4 -187.0,-582.9" fill="rgb(230,85,13)" fill-opacity="0.161" stroke="none"/><polygon points="-404.1,149.0 -433.0,74.8 -499.9,64.3 -537.9,128.0 -509.0,202.2 -442.1,212.7" fill="rgb(230,85,13)" fill-opacity="0.161" stroke="none"/><polygon points="627.2,-106.9 598.2,-181.1 531.3,-191.6 493.3,-127.9 522.2,-53.7 589.2,-43.2" fill="rgb(230,85,13)" fill-opacity="0.161" stroke="none"/><polygon points="266.9,741.9 238.0,667.7 171.0,657.1 133.1,720.8 162.0,795.0 228.9,805.5" fill="rgb(230,85,13)" fill-opacity="0.161" stroke="none"/><polygon points="-299.2,95.8 -328.1,21.7 -395.0,11.2 -433.0,74.8 -404.1,149.0 -337.2,159.5" fill="rgb(230,85,13)" fill-opacity="0.161" stroke="none"/><polygon points="-440.2,700.3 -469.2,626.2 -536.1,615.6 -574.1,679.3 -545.1,753.5 -478.2,764.0" fill="rgb(230,85,13)" fill-opacity="0.161" stroke="none"/><polygon points="243.6,-445.7 214.7,-519.9 147.8,-530.4 109.7,-466.7 138.7,-392.5 205.6,-382.0" fill="rgb(230,85,13)" fill-opacity="0.161" stroke="none"/><polygon points="-395.0,11.2 -424.0,-63.0 -490.9,-73.5 -528.9,-9.8 -499.9,64.3 -433.0,74.8" fill="rgb(230,85,13)" fill-opacity="0.161" stroke="none"/><polygon points="-239.5,731.9 -268.4,657.7 -335.4,647.2 -373.3,710.8 -344.4,785.0 -277.5,795.5" fill="rgb(230,85,13)" fill-opacity="0.161" stroke="none"/><polygon points="-62.1,-424.0 -91.1,-498.2 -158.0,-508.7 -196.0,-445.0 -167.1,-370.9 -100.1,-360.4" fill="rgb(230,85,13)" fill-opacity="0.169" stroke="none"/><polygon points="-281.1,-179.8 -310.0,-254.0 -376.9,-264.5 -414.9,-200.8 -386.0,-126.7 -319.1,-116.2" fill="rgb(230,85,13)" fill-opacity="0.173" stroke="none"/><polygon points="330.4,-223.1 301.5,-297.3 234.6,-307.8 196.6,-244.1 225.5,-170.0 292.4,-159.5" fill="rgb(230,85,13)" fill-opacity="0.173" stroke="none"/><polygon points="-98.4,127.4 -127.3,53.2 -194.3,42.7 -232.2,106.3 -203.3,180.5 -136.4,191.0" fill="rgb(230,85,13)" fill-opacity="0.173" stroke="none"/><polygon points="741.3,-297.9 712.3,-372.1 645.4,-382.6 607.3,-318.9 636.3,-244.7 703.2,-234.2" fill="rgb(230,85,13)" fill-opacity="0.176" stroke="none"/><polygon points="171.0,657.1 142.1,583.0 75.2,572.4 37.2,636.1 66.1,710.3 133.1,720.8" fill="rgb(230,85,13)" fill-opacity="0.176" stroke="none"/><polygon points="-769.4,-465.3 -798.4,-539.5 -865.3,-549.9 -903.3,-486.3 -874.3,-412.1 -807.4,-401.6" fill="rgb(230,85,13)" fill-opacity="0.176" stroke="none"/><polygon points="-376.9,-264.5 -405.9,-338.7 -472.8,-349.2 -510.8,-285.5 -481.8,-211.3 -414.9,-200.8" fill="rgb(230,85,13)" fill-opacity="0.183" stroke="none"/><polygon points="485.9,497.7 456.9,423.5 390.0,413.0 352.0,476.7 380.9,550.9 447.8,561.4" fill="rgb(230,85,13)" fill-opacity="0.186" stroke="none"/><polygon points="-221.4,456.2 -250.3,382.0 -317.3,371.5 -355.2,435.2 -326.3,509.3 -259.4,519.9" fill="rgb(230,85,13)" fill-opacity="0.186" stroke="none"/><polygon points="75.2,572.4 46.3,498.3 -20.7,487.7 -58.6,551.4 -29.7,625.6 37.2,636.1" fill="rgb(230,85,13)" fill-opacity="0.186" stroke="none"/><polygon points="-386.0,-126.7 -414.9,-200.8 -481.8,-211.3 -519.8,-147.7 -490.9,-73.5 -424.0,-63.0" fill="rgb(230,85,13)" fill-opacity="0.186" stroke="none"/><polygon points="-308.2,233.7 -337.2,159.5 -404.1,149.0 -442.1,212.7 -413.1,286.8 -346.2,297.3" fill="rgb(230,85,13)" fill-opacity="0.186" stroke="none"/><polygon points="276.0,604.0 247.0,529.8 180.1,519.3 142.1,583.0 171.0,657.1 238.0,667.7" fill="rgb(230,85,13)" fill-opacity="0.186" stroke="none"/><polygon points="234.6,-307.8 205.6,-382.0 138.7,-392.5 100.7,-328.8 129.6,-254.7 196.6,-244.1" fill="rgb(230,85,13)" fill-opacity="0.186" stroke="none"/><polygon points="-335.4,647.2 -364.3,573.0 -431.2,562.5 -469.2,626.2 -440.2,700.3 -373.3,710.8" fill="rgb(230,85,13)" fill-opacity="0.192" stroke="none"/><polygon points="599.9,306.7 571.0,232.5 504.0,222.0 466.0,285.7 494.9,359.9 561.9,370.4" fill="rgb(230,85,13)" fill-opacity="0.195" stroke="none"/><polygon points="285.0,466.2 256.1,392.0 189.2,381.4 151.2,445.1 180.1,519.3 247.0,529.8" fill="rgb(230,85,13)" fill-opacity="0.195" stroke="none"/><polygon points="-230.5,594.0 -259.4,519.9 -326.3,509.3 -364.3,573.0 -335.4,647.2 -268.4,657.7" fill="rgb(230,85,13)" fill-opacity="0.203" stroke="none"/><polygon points="42.8,-477.2 13.9,-551.4 -53.1,-561.9 -91.1,-498.2 -62.1,-424.0 4.8,-413.5" fill="rgb(230,85,13)" fill-opacity="0.203" stroke="none"/><polygon points="390.0,413.0 361.1,338.8 294.1,328.3 256.1,392.0 285.0,466.2 352.0,476.7" fill="rgb(230,85,13)" fill-opacity="0.206" stroke="none"/><polygon points="-481.8,-211.3 -510.8,-285.5 -577.7,-296.0 -615.7,-232.3 -586.7,-158.2 -519.8,-147.7" fill="rgb(230,85,13)" fill-opacity="0.206" stroke="none"/><polygon points="-290.1,-42.0 -319.1,-116.2 -386.0,-126.7 -424.0,-63.0 -395.0,11.2 -328.1,21.7" fill="rgb(230,85,13)" fill-opacity="0.206" stroke="none"/><polygon points="225.5,-170.0 196.6,-244.1 129.6,-254.7 91.6,-191.0 120.5,-116.8 187.5,-106.3" fill="rgb(230,85,13)" fill-opacity="0.211" stroke="none"/><polygon points="-134.6,678.7 -163.6,604.5 -230.5,594.0 -268.4,657.7 -239.5,731.9 -172.6,742.4" fill="rgb(230,85,13)" fill-opacity="0.214" stroke="none"/><polygon points="129.6,-254.7 100.7,-328.8 33.7,-339.3 -4.3,-275.7 24.7,-201.5 91.6,-191.0" fill="rgb(230,85,13)" fill-opacity="0.219" stroke="none"/><polygon points="-212.4,318.4 -241.3,244.2 -308.2,233.7 -346.2,297.3 -317.3,371.5 -250.3,382.0" fill="rgb(230,85,13)" fill-opacity="0.221" stroke="none"/><polygon points="-326.3,509.3 -355.2,435.2 -422.2,424.7 -460.1,488.3 -431.2,562.5 -364.3,573.0" fill="rgb(230,85,13)" fill-opacity="0.223" stroke="none"/><polygon points="-107.4,265.2 -136.4,191.0 -203.3,180.5 -241.3,244.2 -212.4,318.4 -145.4,328.9" fill="rgb(230,85,13)" fill-opacity="0.228" stroke="none"/><polygon points="216.4,-32.1 187.5,-106.3 120.5,-116.8 82.5,-53.1 111.5,21.0 178.4,31.6" fill="rgb(230,85,13)" fill-opacity="0.230" stroke="none"/><polygon points="522.2,-53.7 493.3,-127.9 426.3,-138.4 388.3,-74.7 417.2,-0.6 484.2,10.0" fill="rgb(230,85,13)" fill-opacity="0.232" stroke="none"/><polygon points="494.9,359.9 466.0,285.7 399.1,275.2 361.1,338.8 390.0,413.0 456.9,423.5" fill="rgb(230,85,13)" fill-opacity="0.232" stroke="none"/><polygon points="513.1,84.2 484.2,10.0 417.2,-0.6 379.2,63.1 408.2,137.3 475.1,147.8" fill="rgb(230,85,13)" fill-opacity="0.236" stroke="none"/><polygon points="33.7,-339.3 4.8,-413.5 -62.1,-424.0 -100.1,-360.4 -71.2,-286.2 -4.3,-275.7" fill="rgb(230,85,13)" fill-opacity="0.243" stroke="none"/><polygon points="-272.0,-317.7 -301.0,-391.9 -367.9,-402.3 -405.9,-338.7 -376.9,-264.5 -310.0,-254.0" fill="rgb(230,85,13)" fill-opacity="0.247" stroke="none"/><polygon points="408.2,137.3 379.2,63.1 312.3,52.6 274.3,116.3 303.2,190.4 370.1,201.0" fill="rgb(230,85,13)" fill-opacity="0.249" stroke="none"/><polygon points="-29.7,625.6 -58.6,551.4 -125.6,540.9 -163.6,604.5 -134.6,678.7 -67.7,689.2" fill="rgb(230,85,13)" fill-opacity="0.254" stroke="none"/><polygon points="-116.5,403.0 -145.4,328.9 -212.4,318.4 -250.3,382.0 -221.4,456.2 -154.5,466.7" fill="rgb(230,85,13)" fill-opacity="0.254" stroke="none"/><polygon points="-80.3,-148.3 -109.2,-222.5 -176.1,-233.0 -214.1,-169.3 -185.2,-95.2 -118.3,-84.7" fill="rgb(230,85,13)" fill-opacity="0.260" stroke="none"/><polygon points="426.3,-138.4 397.4,-212.6 330.4,-223.1 292.4,-159.5 321.4,-85.3 388.3,-74.7" fill="rgb(230,85,13)" fill-opacity="0.262" stroke="none"/><polygon points="312.3,52.6 283.4,-21.6 216.4,-32.1 178.4,31.6 207.3,105.7 274.3,116.3" fill="rgb(230,85,13)" fill-opacity="0.264" stroke="none"/><polygon points="207.3,105.7 178.4,31.6 111.5,21.0 73.5,84.7 102.4,158.9 169.3,169.4" fill="rgb(230,85,13)" fill-opacity="0.265" stroke="none"/><polygon points="417.2,-0.6 388.3,-74.7 321.4,-85.3 283.4,-21.6 312.3,52.6 379.2,63.1" fill="rgb(230,85,13)" fill-opacity="0.272" stroke="none"/><polygon points="-71.2,-286.2 -100.1,-360.4 -167.1,-370.9 -205.1,-307.2 -176.1,-233.0 -109.2,-222.5" fill="rgb(230,85,13)" fill-opacity="0.281" stroke="none"/><polygon points="303.2,190.4 274.3,116.3 207.3,105.7 169.3,169.4 198.3,243.6 265.2,254.1" fill="rgb(230,85,13)" fill-opacity="0.301" stroke="none"/><polygon points="180.1,519.3 151.2,445.1 84.3,434.6 46.3,498.3 75.2,572.4 142.1,583.0" fill="rgb(230,85,13)" fill-opacity="0.303" stroke="none"/><polygon points="-125.6,540.9 -154.5,466.7 -221.4,456.2 -259.4,519.9 -230.5,594.0 -163.6,604.5" fill="rgb(230,85,13)" fill-opacity="0.310" stroke="none"/><polygon points="24.7,-201.5 -4.3,-275.7 -71.2,-286.2 -109.2,-222.5 -80.3,-148.3 -13.3,-137.8" fill="rgb(230,85,13)" fill-opacity="0.316" stroke="none"/><polygon points="84.3,434.6 55.3,360.4 -11.6,349.9 -49.6,413.6 -20.7,487.7 46.3,498.3" fill="rgb(230,85,13)" fill-opacity="0.323" stroke="none"/><polygon points="-20.7,487.7 -49.6,413.6 -116.5,403.0 -154.5,466.7 -125.6,540.9 -58.6,551.4" fill="rgb(230,85,13)" fill-opacity="0.337" stroke="none"/><polygon points="-11.6,349.9 -40.5,275.7 -107.4,265.2 -145.4,328.9 -116.5,403.0 -49.6,413.6" fill="rgb(230,85,13)" fill-opacity="0.339" stroke="none"/><polygon points="321.4,-85.3 292.4,-159.5 225.5,-170.0 187.5,-106.3 216.4,-32.1 283.4,-21.6" fill="rgb(230,85,13)" fill-opacity="0.373" stroke="none"/><polygon points="399.1,275.2 370.1,201.0 303.2,190.4 265.2,254.1 294.1,328.3 361.1,338.8" fill="rgb(230,85,13)" fill-opacity="0.381" stroke="none"/><polygon points="93.3,296.7 64.4,222.6 -2.5,212.1 -40.5,275.7 -11.6,349.9 55.3,360.4" fill="rgb(230,85,13)" fill-opacity="0.381" stroke="none"/><polygon points="-89.3,-10.5 -118.3,-84.7 -185.2,-95.2 -223.2,-31.5 -194.3,42.7 -127.3,53.2" fill="rgb(230,85,13)" fill-opacity="0.388" stroke="none"/><polygon points="189.2,381.4 160.3,307.3 93.3,296.7 55.3,360.4 84.3,434.6 151.2,445.1" fill="rgb(230,85,13)" fill-opacity="0.410" stroke="none"/><polygon points="-2.5,212.1 -31.5,137.9 -98.4,127.4 -136.4,191.0 -107.4,265.2 -40.5,275.7" fill="rgb(230,85,13)" fill-opacity="0.423" stroke="none"/><polygon points="120.5,-116.8 91.6,-191.0 24.7,-201.5 -13.3,-137.8 15.6,-63.6 82.5,-53.1" fill="rgb(230,85,13)" fill-opacity="0.441" stroke="none"/><polygon points="6.5,74.2 -22.4,0.0 -89.3,-10.5 -127.3,53.2 -98.4,127.4 -31.5,137.9" fill="rgb(230,85,13)" fill-opacity="0.442" stroke="none"/><polygon points="15.6,-63.6 -13.3,-137.8 -80.3,-148.3 -118.3,-84.7 -89.3,-10.5 -22.4,0.0" fill="rgb(230,85,13)" fill-opacity="0.478" stroke="none"/><polygon points="294.1,328.3 265.2,254.1 198.3,243.6 160.3,307.3 189.2,381.4 256.1,392.0" fill="rgb(230,85,13)" fill-opacity="0.480" stroke="none"/><polygon points="198.3,243.6 169.3,169.4 102.4,158.9 64.4,222.6 93.3,296.7 160.3,307.3" fill="rgb(230,85,13)" fill-opacity="0.483" stroke="none"/><polygon points="111.5,21.0 82.5,-53.1 15.6,-63.6 -22.4,0.0 6.5,74.2 73.5,84.7" fill="rgb(230,85,13)" fill-opacity="0.485" stroke="none"/><polygon points="102.4,158.9 73.5,84.7 6.5,74.2 -31.5,137.9 -2.5,212.1 64.4,222.6" fill="rgb(230,85,13)" fill-opacity="0.700" stroke="none"/><polygon points="312.3,52.6 283.4,-21.6 216.4,-32.1 178.4,31.6 207.3,105.7 274.3,116.3" fill="none" stroke="#111827" stroke-width="1.35" stroke-dasharray="4 3" stroke-linejoin="round"/><polygon points="-2.5,212.1 -31.5,137.9 -98.4,127.4 -136.4,191.0 -107.4,265.2 -40.5,275.7" fill="none" stroke="#111827" stroke-width="1.35" stroke-dasharray="4 3" stroke-linejoin="round"/><polygon points="15.6,-63.6 -13.3,-137.8 -80.3,-148.3 -118.3,-84.7 -89.3,-10.5 -22.4,0.0" fill="none" stroke="#111827" stroke-width="1.35" stroke-dasharray="4 3" stroke-linejoin="round"/><polygon points="93.3,296.7 64.4,222.6 -2.5,212.1 -40.5,275.7 -11.6,349.9 55.3,360.4" fill="none" stroke="#111827" stroke-width="1.35" stroke-dasharray="4 3" stroke-linejoin="round"/><polygon points="6.5,74.2 -22.4,0.0 -89.3,-10.5 -127.3,53.2 -98.4,127.4 -31.5,137.9" fill="none" stroke="#111827" stroke-width="1.35" stroke-dasharray="4 3" stroke-linejoin="round"/><polygon points="294.1,328.3 265.2,254.1 198.3,243.6 160.3,307.3 189.2,381.4 256.1,392.0" fill="none" stroke="#111827" stroke-width="1.35" stroke-dasharray="4 3" stroke-linejoin="round"/><polygon points="102.4,158.9 73.5,84.7 6.5,74.2 -31.5,137.9 -2.5,212.1 64.4,222.6" fill="none" stroke="#111827" stroke-width="1.35" stroke-dasharray="4 3" stroke-linejoin="round"/><polygon points="198.3,243.6 169.3,169.4 102.4,158.9 64.4,222.6 93.3,296.7 160.3,307.3" fill="none" stroke="#111827" stroke-width="1.35" stroke-dasharray="4 3" stroke-linejoin="round"/><polygon points="84.3,434.6 55.3,360.4 -11.6,349.9 -49.6,413.6 -20.7,487.7 46.3,498.3" fill="none" stroke="#111827" stroke-width="1.35" stroke-dasharray="4 3" stroke-linejoin="round"/><polygon points="189.2,381.4 160.3,307.3 93.3,296.7 55.3,360.4 84.3,434.6 151.2,445.1" fill="none" stroke="#111827" stroke-width="1.35" stroke-dasharray="4 3" stroke-linejoin="round"/><polygon points="207.3,105.7 178.4,31.6 111.5,21.0 73.5,84.7 102.4,158.9 169.3,169.4" fill="none" stroke="#111827" stroke-width="1.35" stroke-dasharray="4 3" stroke-linejoin="round"/><polygon points="-89.3,-10.5 -118.3,-84.7 -185.2,-95.2 -223.2,-31.5 -194.3,42.7 -127.3,53.2" fill="none" stroke="#111827" stroke-width="1.35" stroke-dasharray="4 3" stroke-linejoin="round"/><polygon points="120.5,-116.8 91.6,-191.0 24.7,-201.5 -13.3,-137.8 15.6,-63.6 82.5,-53.1" fill="none" stroke="#111827" stroke-width="1.35" stroke-dasharray="4 3" stroke-linejoin="round"/><polygon points="-107.4,265.2 -136.4,191.0 -203.3,180.5 -241.3,244.2 -212.4,318.4 -145.4,328.9" fill="none" stroke="#111827" stroke-width="1.35" stroke-dasharray="4 3" stroke-linejoin="round"/><polygon points="216.4,-32.1 187.5,-106.3 120.5,-116.8 82.5,-53.1 111.5,21.0 178.4,31.6" fill="none" stroke="#111827" stroke-width="1.35" stroke-dasharray="4 3" stroke-linejoin="round"/><polygon points="111.5,21.0 82.5,-53.1 15.6,-63.6 -22.4,0.0 6.5,74.2 73.5,84.7" fill="none" stroke="#111827" stroke-width="1.35" stroke-dasharray="4 3" stroke-linejoin="round"/><polygon points="-11.6,349.9 -40.5,275.7 -107.4,265.2 -145.4,328.9 -116.5,403.0 -49.6,413.6" fill="none" stroke="#111827" stroke-width="1.35" stroke-dasharray="4 3" stroke-linejoin="round"/><polygon points="303.2,190.4 274.3,116.3 207.3,105.7 169.3,169.4 198.3,243.6 265.2,254.1" fill="none" stroke="#111827" stroke-width="1.35" stroke-dasharray="4 3" stroke-linejoin="round"/><polygon points="-98.4,127.4 -127.3,53.2 -194.3,42.7 -232.2,106.3 -203.3,180.5 -136.4,191.0" fill="none" stroke="#111827" stroke-width="1.35" stroke-dasharray="4 3" stroke-linejoin="round"/><polygon points="-80.3,-148.3 -109.2,-222.5 -176.1,-233.0 -214.1,-169.3 -185.2,-95.2 -118.3,-84.7" fill="none" stroke="#111827" stroke-width="2.15" stroke-linejoin="round"/><polygon points="513.1,84.2 484.2,10.0 417.2,-0.6 379.2,63.1 408.2,137.3 475.1,147.8" fill="none" stroke="#111827" stroke-width="2.15" stroke-linejoin="round"/><polygon points="321.4,-85.3 292.4,-159.5 225.5,-170.0 187.5,-106.3 216.4,-32.1 283.4,-21.6" fill="none" stroke="#111827" stroke-width="2.15" stroke-linejoin="round"/><polygon points="417.2,-0.6 388.3,-74.7 321.4,-85.3 283.4,-21.6 312.3,52.6 379.2,63.1" fill="none" stroke="#111827" stroke-width="2.15" stroke-linejoin="round"/><polygon points="24.7,-201.5 -4.3,-275.7 -71.2,-286.2 -109.2,-222.5 -80.3,-148.3 -13.3,-137.8" fill="none" stroke="#111827" stroke-width="2.15" stroke-linejoin="round"/><polygon points="33.7,-339.3 4.8,-413.5 -62.1,-424.0 -100.1,-360.4 -71.2,-286.2 -4.3,-275.7" fill="none" stroke="#111827" stroke-width="2.15" stroke-linejoin="round"/><polygon points="-326.3,509.3 -355.2,435.2 -422.2,424.7 -460.1,488.3 -431.2,562.5 -364.3,573.0" fill="none" stroke="#111827" stroke-width="2.15" stroke-linejoin="round"/><polygon points="-125.6,540.9 -154.5,466.7 -221.4,456.2 -259.4,519.9 -230.5,594.0 -163.6,604.5" fill="none" stroke="#111827" stroke-width="2.15" stroke-linejoin="round"/><polygon points="-29.7,625.6 -58.6,551.4 -125.6,540.9 -163.6,604.5 -134.6,678.7 -67.7,689.2" fill="none" stroke="#111827" stroke-width="2.15" stroke-linejoin="round"/><polygon points="-20.7,487.7 -49.6,413.6 -116.5,403.0 -154.5,466.7 -125.6,540.9 -58.6,551.4" fill="none" stroke="#111827" stroke-width="2.15" stroke-linejoin="round"/><polygon points="-272.0,-317.7 -301.0,-391.9 -367.9,-402.3 -405.9,-338.7 -376.9,-264.5 -310.0,-254.0" fill="none" stroke="#111827" stroke-width="2.15" stroke-linejoin="round"/><polygon points="399.1,275.2 370.1,201.0 303.2,190.4 265.2,254.1 294.1,328.3 361.1,338.8" fill="none" stroke="#111827" stroke-width="2.15" stroke-linejoin="round"/><polygon points="494.9,359.9 466.0,285.7 399.1,275.2 361.1,338.8 390.0,413.0 456.9,423.5" fill="none" stroke="#111827" stroke-width="2.15" stroke-linejoin="round"/><polygon points="408.2,137.3 379.2,63.1 312.3,52.6 274.3,116.3 303.2,190.4 370.1,201.0" fill="none" stroke="#111827" stroke-width="2.15" stroke-linejoin="round"/><polygon points="-116.5,403.0 -145.4,328.9 -212.4,318.4 -250.3,382.0 -221.4,456.2 -154.5,466.7" fill="none" stroke="#111827" stroke-width="2.15" stroke-linejoin="round"/><polygon points="522.2,-53.7 493.3,-127.9 426.3,-138.4 388.3,-74.7 417.2,-0.6 484.2,10.0" fill="none" stroke="#111827" stroke-width="2.15" stroke-linejoin="round"/><polygon points="180.1,519.3 151.2,445.1 84.3,434.6 46.3,498.3 75.2,572.4 142.1,583.0" fill="none" stroke="#111827" stroke-width="2.15" stroke-linejoin="round"/><polygon points="-71.2,-286.2 -100.1,-360.4 -167.1,-370.9 -205.1,-307.2 -176.1,-233.0 -109.2,-222.5" fill="none" stroke="#111827" stroke-width="2.15" stroke-linejoin="round"/><polygon points="426.3,-138.4 397.4,-212.6 330.4,-223.1 292.4,-159.5 321.4,-85.3 388.3,-74.7" fill="none" stroke="#111827" stroke-width="2.15" stroke-linejoin="round"/><polyline points="56.4,173.1 105.7,202.5 113.6,210.9 121.5,219.3 129.4,227.8 140.0,231.7 151.6,234.0 163.1,236.5 174.1,240.6 184.9,245.0 195.2,250.9 204.8,257.6 213.9,264.9 223.3,270.7 234.3,266.4 240.2,273.4 244.6,283.3 249.1,293.3 253.6,303.2 257.6,313.3 259.2,325.1 260.8,336.8 268.6,338.9 277.9,338.3 289.1,334.4 300.3,330.6 311.4,326.7 322.5,322.7 333.6,318.6" fill="none" stroke="#dc2626" stroke-width="3" stroke-linecap="round" stroke-linejoin="round"/><circle cx="105.7" cy="202.5" r="2.1" fill="#dc2626"/><circle cx="113.6" cy="210.9" r="2.1" fill="#dc2626"/><circle cx="121.5" cy="219.3" r="2.1" fill="#dc2626"/><circle cx="129.4" cy="227.8" r="2.1" fill="#dc2626"/><circle cx="140.0" cy="231.7" r="2.1" fill="#dc2626"/><circle cx="151.6" cy="234.0" r="2.1" fill="#dc2626"/><circle cx="163.1" cy="236.5" r="2.1" fill="#dc2626"/><circle cx="174.1" cy="240.6" r="2.1" fill="#dc2626"/><circle cx="184.9" cy="245.0" r="2.1" fill="#dc2626"/><circle cx="195.2" cy="250.9" r="2.1" fill="#dc2626"/><circle cx="204.8" cy="257.6" r="2.1" fill="#dc2626"/><circle cx="213.9" cy="264.9" r="2.1" fill="#dc2626"/><circle cx="223.3" cy="270.7" r="2.1" fill="#dc2626"/><circle cx="234.3" cy="266.4" r="2.1" fill="#dc2626"/><circle cx="240.2" cy="273.4" r="2.1" fill="#dc2626"/><circle cx="244.6" cy="283.3" r="2.1" fill="#dc2626"/><circle cx="249.1" cy="293.3" r="2.1" fill="#dc2626"/><circle cx="253.6" cy="303.2" r="2.1" fill="#dc2626"/><circle cx="257.6" cy="313.3" r="2.1" fill="#dc2626"/><circle cx="259.2" cy="325.1" r="2.1" fill="#dc2626"/><circle cx="260.8" cy="336.8" r="2.1" fill="#dc2626"/><circle cx="268.6" cy="338.9" r="2.1" fill="#dc2626"/><circle cx="277.9" cy="338.3" r="2.1" fill="#dc2626"/><circle cx="289.1" cy="334.4" r="2.1" fill="#dc2626"/><circle cx="300.3" cy="330.6" r="2.1" fill="#dc2626"/><circle cx="311.4" cy="326.7" r="2.1" fill="#dc2626"/><circle cx="322.5" cy="322.7" r="2.1" fill="#dc2626"/><circle cx="333.6" cy="318.6" r="2.1" fill="#dc2626"/><circle cx="56.4" cy="173.1" r="6" fill="#2563eb" stroke="white" stroke-width="2"/><path d="M333.6,311.6 L340.6,318.6 L333.6,325.6 L326.6,318.6 Z" fill="#dc2626" stroke="white" stroke-width="2"/></g><text x="18" y="484" font-size="10.5" fill="#475569">● 시작 · ━ 정답 이동 · ◆ 현재 실제 위치</text><text x="18" y="503" font-size="10.5" fill="#475569">검정 점선 D1 · 검정 실선 알림 후보 셀</text></g><g transform="translate(816,105)"><rect x="0" y="0" width="390" height="520" rx="14" fill="#fff" stroke="#d8dee9"/><text x="18" y="28" font-size="18" font-weight="700" fill="#111827">C EXAONE 개인화</text><text x="372" y="28" text-anchor="end" font-size="12" fill="#64748b">유효 · D2 외부커버 0.0%</text><g clip-path="url(#map-clip)"><use href="#roads"/><polygon points="276.0,604.0 247.0,529.8 180.1,519.3 142.1,583.0 171.0,657.1 238.0,667.7" fill="rgb(35,139,69)" fill-opacity="0.101" stroke="none"/><polygon points="590.8,444.6 561.9,370.4 494.9,359.9 456.9,423.5 485.9,497.7 552.8,508.3" fill="rgb(35,139,69)" fill-opacity="0.101" stroke="none"/><polygon points="818.9,62.6 790.0,-11.6 723.1,-22.1 685.0,41.5 714.0,115.7 780.9,126.3" fill="rgb(35,139,69)" fill-opacity="0.101" stroke="none"/><polygon points="-29.7,625.6 -58.6,551.4 -125.6,540.9 -163.6,604.5 -134.6,678.7 -67.7,689.2" fill="rgb(35,139,69)" fill-opacity="0.101" stroke="none"/><polygon points="860.2,974.5 831.3,900.3 764.3,889.8 726.3,953.4 755.2,1027.6 822.2,1038.2" fill="rgb(35,139,69)" fill-opacity="0.101" stroke="none"/><polygon points="531.3,-191.6 502.4,-265.8 435.4,-276.3 397.4,-212.6 426.3,-138.4 493.3,-127.9" fill="rgb(35,139,69)" fill-opacity="0.101" stroke="none"/><polygon points="522.2,-53.7 493.3,-127.9 426.3,-138.4 388.3,-74.7 417.2,-0.6 484.2,10.0" fill="rgb(35,139,69)" fill-opacity="0.101" stroke="none"/><polygon points="330.4,-223.1 301.5,-297.3 234.6,-307.8 196.6,-244.1 225.5,-170.0 292.4,-159.5" fill="rgb(35,139,69)" fill-opacity="0.101" stroke="none"/><polygon points="467.7,773.4 438.8,699.2 371.8,688.7 333.8,752.4 362.7,826.6 429.7,837.1" fill="rgb(35,139,69)" fill-opacity="0.101" stroke="none"/><polygon points="180.1,519.3 151.2,445.1 84.3,434.6 46.3,498.3 75.2,572.4 142.1,583.0" fill="rgb(35,139,69)" fill-opacity="0.101" stroke="none"/><polygon points="-358.8,-540.2 -387.8,-614.4 -454.7,-624.9 -492.7,-561.2 -463.8,-487.0 -396.8,-476.5" fill="rgb(35,139,69)" fill-opacity="0.101" stroke="none"/><polygon points="645.4,-382.6 616.4,-456.8 549.5,-467.3 511.4,-403.6 540.4,-329.4 607.3,-318.9" fill="rgb(35,139,69)" fill-opacity="0.101" stroke="none"/><polygon points="-263.0,-455.5 -291.9,-529.7 -358.8,-540.2 -396.8,-476.5 -367.9,-402.3 -301.0,-391.9" fill="rgb(35,139,69)" fill-opacity="0.101" stroke="none"/><polygon points="426.3,-138.4 397.4,-212.6 330.4,-223.1 292.4,-159.5 321.4,-85.3 388.3,-74.7" fill="rgb(35,139,69)" fill-opacity="0.101" stroke="none"/><polygon points="-185.2,-95.2 -214.1,-169.3 -281.1,-179.8 -319.1,-116.2 -290.1,-42.0 -223.2,-31.5" fill="rgb(35,139,69)" fill-opacity="0.101" stroke="none"/><polygon points="171.0,657.1 142.1,583.0 75.2,572.4 37.2,636.1 66.1,710.3 133.1,720.8" fill="rgb(35,139,69)" fill-opacity="0.101" stroke="none"/><polygon points="485.9,497.7 456.9,423.5 390.0,413.0 352.0,476.7 380.9,550.9 447.8,561.4" fill="rgb(35,139,69)" fill-opacity="0.110" stroke="none"/><polygon points="243.6,-445.7 214.7,-519.9 147.8,-530.4 109.7,-466.7 138.7,-392.5 205.6,-382.0" fill="rgb(35,139,69)" fill-opacity="0.110" stroke="none"/><polygon points="-62.1,-424.0 -91.1,-498.2 -158.0,-508.7 -196.0,-445.0 -167.1,-370.9 -100.1,-360.4" fill="rgb(35,139,69)" fill-opacity="0.110" stroke="none"/><polygon points="599.9,306.7 571.0,232.5 504.0,222.0 466.0,285.7 494.9,359.9 561.9,370.4" fill="rgb(35,139,69)" fill-opacity="0.110" stroke="none"/><polygon points="-203.3,180.5 -232.2,106.3 -299.2,95.8 -337.2,159.5 -308.2,233.7 -241.3,244.2" fill="rgb(35,139,69)" fill-opacity="0.112" stroke="none"/><polygon points="-376.9,-264.5 -405.9,-338.7 -472.8,-349.2 -510.8,-285.5 -481.8,-211.3 -414.9,-200.8" fill="rgb(35,139,69)" fill-opacity="0.112" stroke="none"/><polygon points="-281.1,-179.8 -310.0,-254.0 -376.9,-264.5 -414.9,-200.8 -386.0,-126.7 -319.1,-116.2" fill="rgb(35,139,69)" fill-opacity="0.112" stroke="none"/><polygon points="234.6,-307.8 205.6,-382.0 138.7,-392.5 100.7,-328.8 129.6,-254.7 196.6,-244.1" fill="rgb(35,139,69)" fill-opacity="0.112" stroke="none"/><polygon points="-272.0,-317.7 -301.0,-391.9 -367.9,-402.3 -405.9,-338.7 -376.9,-264.5 -310.0,-254.0" fill="rgb(35,139,69)" fill-opacity="0.112" stroke="none"/><polygon points="312.3,52.6 283.4,-21.6 216.4,-32.1 178.4,31.6 207.3,105.7 274.3,116.3" fill="rgb(35,139,69)" fill-opacity="0.117" stroke="none"/><polygon points="-221.4,456.2 -250.3,382.0 -317.3,371.5 -355.2,435.2 -326.3,509.3 -259.4,519.9" fill="rgb(35,139,69)" fill-opacity="0.119" stroke="none"/><polygon points="380.9,550.9 352.0,476.7 285.0,466.2 247.0,529.8 276.0,604.0 342.9,614.5" fill="rgb(35,139,69)" fill-opacity="0.119" stroke="none"/><polygon points="494.9,359.9 466.0,285.7 399.1,275.2 361.1,338.8 390.0,413.0 456.9,423.5" fill="rgb(35,139,69)" fill-opacity="0.119" stroke="none"/><polygon points="-125.6,540.9 -154.5,466.7 -221.4,456.2 -259.4,519.9 -230.5,594.0 -163.6,604.5" fill="rgb(35,139,69)" fill-opacity="0.119" stroke="none"/><polygon points="-11.6,349.9 -40.5,275.7 -107.4,265.2 -145.4,328.9 -116.5,403.0 -49.6,413.6" fill="rgb(35,139,69)" fill-opacity="0.119" stroke="none"/><polygon points="321.4,-85.3 292.4,-159.5 225.5,-170.0 187.5,-106.3 216.4,-32.1 283.4,-21.6" fill="rgb(35,139,69)" fill-opacity="0.119" stroke="none"/><polygon points="-71.2,-286.2 -100.1,-360.4 -167.1,-370.9 -205.1,-307.2 -176.1,-233.0 -109.2,-222.5" fill="rgb(35,139,69)" fill-opacity="0.126" stroke="none"/><polygon points="-290.1,-42.0 -319.1,-116.2 -386.0,-126.7 -424.0,-63.0 -395.0,11.2 -328.1,21.7" fill="rgb(35,139,69)" fill-opacity="0.126" stroke="none"/><polygon points="-116.5,403.0 -145.4,328.9 -212.4,318.4 -250.3,382.0 -221.4,456.2 -154.5,466.7" fill="rgb(35,139,69)" fill-opacity="0.129" stroke="none"/><polygon points="24.7,-201.5 -4.3,-275.7 -71.2,-286.2 -109.2,-222.5 -80.3,-148.3 -13.3,-137.8" fill="rgb(35,139,69)" fill-opacity="0.129" stroke="none"/><polygon points="417.2,-0.6 388.3,-74.7 321.4,-85.3 283.4,-21.6 312.3,52.6 379.2,63.1" fill="rgb(35,139,69)" fill-opacity="0.131" stroke="none"/><polygon points="-212.4,318.4 -241.3,244.2 -308.2,233.7 -346.2,297.3 -317.3,371.5 -250.3,382.0" fill="rgb(35,139,69)" fill-opacity="0.131" stroke="none"/><polygon points="216.4,-32.1 187.5,-106.3 120.5,-116.8 82.5,-53.1 111.5,21.0 178.4,31.6" fill="rgb(35,139,69)" fill-opacity="0.131" stroke="none"/><polygon points="129.6,-254.7 100.7,-328.8 33.7,-339.3 -4.3,-275.7 24.7,-201.5 91.6,-191.0" fill="rgb(35,139,69)" fill-opacity="0.135" stroke="none"/><polygon points="-194.3,42.7 -223.2,-31.5 -290.1,-42.0 -328.1,21.7 -299.2,95.8 -232.2,106.3" fill="rgb(35,139,69)" fill-opacity="0.136" stroke="none"/><polygon points="408.2,137.3 379.2,63.1 312.3,52.6 274.3,116.3 303.2,190.4 370.1,201.0" fill="rgb(35,139,69)" fill-opacity="0.139" stroke="none"/><polygon points="84.3,434.6 55.3,360.4 -11.6,349.9 -49.6,413.6 -20.7,487.7 46.3,498.3" fill="rgb(35,139,69)" fill-opacity="0.139" stroke="none"/><polygon points="-20.7,487.7 -49.6,413.6 -116.5,403.0 -154.5,466.7 -125.6,540.9 -58.6,551.4" fill="rgb(35,139,69)" fill-opacity="0.140" stroke="none"/><polygon points="189.2,381.4 160.3,307.3 93.3,296.7 55.3,360.4 84.3,434.6 151.2,445.1" fill="rgb(35,139,69)" fill-opacity="0.141" stroke="none"/><polygon points="-80.3,-148.3 -109.2,-222.5 -176.1,-233.0 -214.1,-169.3 -185.2,-95.2 -118.3,-84.7" fill="rgb(35,139,69)" fill-opacity="0.147" stroke="none"/><polygon points="120.5,-116.8 91.6,-191.0 24.7,-201.5 -13.3,-137.8 15.6,-63.6 82.5,-53.1" fill="rgb(35,139,69)" fill-opacity="0.152" stroke="none"/><polygon points="303.2,190.4 274.3,116.3 207.3,105.7 169.3,169.4 198.3,243.6 265.2,254.1" fill="rgb(35,139,69)" fill-opacity="0.167" stroke="none"/><polygon points="93.3,296.7 64.4,222.6 -2.5,212.1 -40.5,275.7 -11.6,349.9 55.3,360.4" fill="rgb(35,139,69)" fill-opacity="0.167" stroke="none"/><polygon points="294.1,328.3 265.2,254.1 198.3,243.6 160.3,307.3 189.2,381.4 256.1,392.0" fill="rgb(35,139,69)" fill-opacity="0.168" stroke="none"/><polygon points="15.6,-63.6 -13.3,-137.8 -80.3,-148.3 -118.3,-84.7 -89.3,-10.5 -22.4,0.0" fill="rgb(35,139,69)" fill-opacity="0.196" stroke="none"/><polygon points="198.3,243.6 169.3,169.4 102.4,158.9 64.4,222.6 93.3,296.7 160.3,307.3" fill="rgb(35,139,69)" fill-opacity="0.210" stroke="none"/><polygon points="-2.5,212.1 -31.5,137.9 -98.4,127.4 -136.4,191.0 -107.4,265.2 -40.5,275.7" fill="rgb(35,139,69)" fill-opacity="0.224" stroke="none"/><polygon points="111.5,21.0 82.5,-53.1 15.6,-63.6 -22.4,0.0 6.5,74.2 73.5,84.7" fill="rgb(35,139,69)" fill-opacity="0.258" stroke="none"/><polygon points="6.5,74.2 -22.4,0.0 -89.3,-10.5 -127.3,53.2 -98.4,127.4 -31.5,137.9" fill="rgb(35,139,69)" fill-opacity="0.363" stroke="none"/><polygon points="102.4,158.9 73.5,84.7 6.5,74.2 -31.5,137.9 -2.5,212.1 64.4,222.6" fill="rgb(35,139,69)" fill-opacity="0.408" stroke="none"/><polygon points="-89.3,-10.5 -118.3,-84.7 -185.2,-95.2 -223.2,-31.5 -194.3,42.7 -127.3,53.2" fill="rgb(35,139,69)" fill-opacity="0.700" stroke="none"/><polygon points="312.3,52.6 283.4,-21.6 216.4,-32.1 178.4,31.6 207.3,105.7 274.3,116.3" fill="none" stroke="#111827" stroke-width="1.35" stroke-dasharray="4 3" stroke-linejoin="round"/><polygon points="-2.5,212.1 -31.5,137.9 -98.4,127.4 -136.4,191.0 -107.4,265.2 -40.5,275.7" fill="none" stroke="#111827" stroke-width="1.35" stroke-dasharray="4 3" stroke-linejoin="round"/><polygon points="15.6,-63.6 -13.3,-137.8 -80.3,-148.3 -118.3,-84.7 -89.3,-10.5 -22.4,0.0" fill="none" stroke="#111827" stroke-width="1.35" stroke-dasharray="4 3" stroke-linejoin="round"/><polygon points="93.3,296.7 64.4,222.6 -2.5,212.1 -40.5,275.7 -11.6,349.9 55.3,360.4" fill="none" stroke="#111827" stroke-width="1.35" stroke-dasharray="4 3" stroke-linejoin="round"/><polygon points="6.5,74.2 -22.4,0.0 -89.3,-10.5 -127.3,53.2 -98.4,127.4 -31.5,137.9" fill="none" stroke="#111827" stroke-width="1.35" stroke-dasharray="4 3" stroke-linejoin="round"/><polygon points="294.1,328.3 265.2,254.1 198.3,243.6 160.3,307.3 189.2,381.4 256.1,392.0" fill="none" stroke="#111827" stroke-width="1.35" stroke-dasharray="4 3" stroke-linejoin="round"/><polygon points="102.4,158.9 73.5,84.7 6.5,74.2 -31.5,137.9 -2.5,212.1 64.4,222.6" fill="none" stroke="#111827" stroke-width="1.35" stroke-dasharray="4 3" stroke-linejoin="round"/><polygon points="198.3,243.6 169.3,169.4 102.4,158.9 64.4,222.6 93.3,296.7 160.3,307.3" fill="none" stroke="#111827" stroke-width="1.35" stroke-dasharray="4 3" stroke-linejoin="round"/><polygon points="84.3,434.6 55.3,360.4 -11.6,349.9 -49.6,413.6 -20.7,487.7 46.3,498.3" fill="none" stroke="#111827" stroke-width="1.35" stroke-dasharray="4 3" stroke-linejoin="round"/><polygon points="189.2,381.4 160.3,307.3 93.3,296.7 55.3,360.4 84.3,434.6 151.2,445.1" fill="none" stroke="#111827" stroke-width="1.35" stroke-dasharray="4 3" stroke-linejoin="round"/><polygon points="207.3,105.7 178.4,31.6 111.5,21.0 73.5,84.7 102.4,158.9 169.3,169.4" fill="none" stroke="#111827" stroke-width="1.35" stroke-dasharray="4 3" stroke-linejoin="round"/><polygon points="-89.3,-10.5 -118.3,-84.7 -185.2,-95.2 -223.2,-31.5 -194.3,42.7 -127.3,53.2" fill="none" stroke="#111827" stroke-width="1.35" stroke-dasharray="4 3" stroke-linejoin="round"/><polygon points="120.5,-116.8 91.6,-191.0 24.7,-201.5 -13.3,-137.8 15.6,-63.6 82.5,-53.1" fill="none" stroke="#111827" stroke-width="1.35" stroke-dasharray="4 3" stroke-linejoin="round"/><polygon points="-107.4,265.2 -136.4,191.0 -203.3,180.5 -241.3,244.2 -212.4,318.4 -145.4,328.9" fill="none" stroke="#111827" stroke-width="1.35" stroke-dasharray="4 3" stroke-linejoin="round"/><polygon points="216.4,-32.1 187.5,-106.3 120.5,-116.8 82.5,-53.1 111.5,21.0 178.4,31.6" fill="none" stroke="#111827" stroke-width="1.35" stroke-dasharray="4 3" stroke-linejoin="round"/><polygon points="111.5,21.0 82.5,-53.1 15.6,-63.6 -22.4,0.0 6.5,74.2 73.5,84.7" fill="none" stroke="#111827" stroke-width="1.35" stroke-dasharray="4 3" stroke-linejoin="round"/><polygon points="-11.6,349.9 -40.5,275.7 -107.4,265.2 -145.4,328.9 -116.5,403.0 -49.6,413.6" fill="none" stroke="#111827" stroke-width="1.35" stroke-dasharray="4 3" stroke-linejoin="round"/><polygon points="303.2,190.4 274.3,116.3 207.3,105.7 169.3,169.4 198.3,243.6 265.2,254.1" fill="none" stroke="#111827" stroke-width="1.35" stroke-dasharray="4 3" stroke-linejoin="round"/><polygon points="-98.4,127.4 -127.3,53.2 -194.3,42.7 -232.2,106.3 -203.3,180.5 -136.4,191.0" fill="none" stroke="#111827" stroke-width="1.35" stroke-dasharray="4 3" stroke-linejoin="round"/><polygon points="-203.3,180.5 -232.2,106.3 -299.2,95.8 -337.2,159.5 -308.2,233.7 -241.3,244.2" fill="none" stroke="#111827" stroke-width="2.15" stroke-linejoin="round"/><polygon points="-80.3,-148.3 -109.2,-222.5 -176.1,-233.0 -214.1,-169.3 -185.2,-95.2 -118.3,-84.7" fill="none" stroke="#111827" stroke-width="2.15" stroke-linejoin="round"/><polygon points="-290.1,-42.0 -319.1,-116.2 -386.0,-126.7 -424.0,-63.0 -395.0,11.2 -328.1,21.7" fill="none" stroke="#111827" stroke-width="2.15" stroke-linejoin="round"/><polygon points="-221.4,456.2 -250.3,382.0 -317.3,371.5 -355.2,435.2 -326.3,509.3 -259.4,519.9" fill="none" stroke="#111827" stroke-width="2.15" stroke-linejoin="round"/><polygon points="321.4,-85.3 292.4,-159.5 225.5,-170.0 187.5,-106.3 216.4,-32.1 283.4,-21.6" fill="none" stroke="#111827" stroke-width="2.15" stroke-linejoin="round"/><polygon points="380.9,550.9 352.0,476.7 285.0,466.2 247.0,529.8 276.0,604.0 342.9,614.5" fill="none" stroke="#111827" stroke-width="2.15" stroke-linejoin="round"/><polygon points="417.2,-0.6 388.3,-74.7 321.4,-85.3 283.4,-21.6 312.3,52.6 379.2,63.1" fill="none" stroke="#111827" stroke-width="2.15" stroke-linejoin="round"/><polygon points="24.7,-201.5 -4.3,-275.7 -71.2,-286.2 -109.2,-222.5 -80.3,-148.3 -13.3,-137.8" fill="none" stroke="#111827" stroke-width="2.15" stroke-linejoin="round"/><polygon points="-194.3,42.7 -223.2,-31.5 -290.1,-42.0 -328.1,21.7 -299.2,95.8 -232.2,106.3" fill="none" stroke="#111827" stroke-width="2.15" stroke-linejoin="round"/><polygon points="-212.4,318.4 -241.3,244.2 -308.2,233.7 -346.2,297.3 -317.3,371.5 -250.3,382.0" fill="none" stroke="#111827" stroke-width="2.15" stroke-linejoin="round"/><polygon points="-125.6,540.9 -154.5,466.7 -221.4,456.2 -259.4,519.9 -230.5,594.0 -163.6,604.5" fill="none" stroke="#111827" stroke-width="2.15" stroke-linejoin="round"/><polygon points="-20.7,487.7 -49.6,413.6 -116.5,403.0 -154.5,466.7 -125.6,540.9 -58.6,551.4" fill="none" stroke="#111827" stroke-width="2.15" stroke-linejoin="round"/><polygon points="-281.1,-179.8 -310.0,-254.0 -376.9,-264.5 -414.9,-200.8 -386.0,-126.7 -319.1,-116.2" fill="none" stroke="#111827" stroke-width="2.15" stroke-linejoin="round"/><polygon points="129.6,-254.7 100.7,-328.8 33.7,-339.3 -4.3,-275.7 24.7,-201.5 91.6,-191.0" fill="none" stroke="#111827" stroke-width="2.15" stroke-linejoin="round"/><polygon points="494.9,359.9 466.0,285.7 399.1,275.2 361.1,338.8 390.0,413.0 456.9,423.5" fill="none" stroke="#111827" stroke-width="2.15" stroke-linejoin="round"/><polygon points="408.2,137.3 379.2,63.1 312.3,52.6 274.3,116.3 303.2,190.4 370.1,201.0" fill="none" stroke="#111827" stroke-width="2.15" stroke-linejoin="round"/><polygon points="-116.5,403.0 -145.4,328.9 -212.4,318.4 -250.3,382.0 -221.4,456.2 -154.5,466.7" fill="none" stroke="#111827" stroke-width="2.15" stroke-linejoin="round"/><polygon points="-71.2,-286.2 -100.1,-360.4 -167.1,-370.9 -205.1,-307.2 -176.1,-233.0 -109.2,-222.5" fill="none" stroke="#111827" stroke-width="2.15" stroke-linejoin="round"/><polygon points="-376.9,-264.5 -405.9,-338.7 -472.8,-349.2 -510.8,-285.5 -481.8,-211.3 -414.9,-200.8" fill="none" stroke="#111827" stroke-width="2.15" stroke-linejoin="round"/><polyline points="56.4,173.1 105.7,202.5 113.6,210.9 121.5,219.3 129.4,227.8 140.0,231.7 151.6,234.0 163.1,236.5 174.1,240.6 184.9,245.0 195.2,250.9 204.8,257.6 213.9,264.9 223.3,270.7 234.3,266.4 240.2,273.4 244.6,283.3 249.1,293.3 253.6,303.2 257.6,313.3 259.2,325.1 260.8,336.8 268.6,338.9 277.9,338.3 289.1,334.4 300.3,330.6 311.4,326.7 322.5,322.7 333.6,318.6" fill="none" stroke="#dc2626" stroke-width="3" stroke-linecap="round" stroke-linejoin="round"/><circle cx="105.7" cy="202.5" r="2.1" fill="#dc2626"/><circle cx="113.6" cy="210.9" r="2.1" fill="#dc2626"/><circle cx="121.5" cy="219.3" r="2.1" fill="#dc2626"/><circle cx="129.4" cy="227.8" r="2.1" fill="#dc2626"/><circle cx="140.0" cy="231.7" r="2.1" fill="#dc2626"/><circle cx="151.6" cy="234.0" r="2.1" fill="#dc2626"/><circle cx="163.1" cy="236.5" r="2.1" fill="#dc2626"/><circle cx="174.1" cy="240.6" r="2.1" fill="#dc2626"/><circle cx="184.9" cy="245.0" r="2.1" fill="#dc2626"/><circle cx="195.2" cy="250.9" r="2.1" fill="#dc2626"/><circle cx="204.8" cy="257.6" r="2.1" fill="#dc2626"/><circle cx="213.9" cy="264.9" r="2.1" fill="#dc2626"/><circle cx="223.3" cy="270.7" r="2.1" fill="#dc2626"/><circle cx="234.3" cy="266.4" r="2.1" fill="#dc2626"/><circle cx="240.2" cy="273.4" r="2.1" fill="#dc2626"/><circle cx="244.6" cy="283.3" r="2.1" fill="#dc2626"/><circle cx="249.1" cy="293.3" r="2.1" fill="#dc2626"/><circle cx="253.6" cy="303.2" r="2.1" fill="#dc2626"/><circle cx="257.6" cy="313.3" r="2.1" fill="#dc2626"/><circle cx="259.2" cy="325.1" r="2.1" fill="#dc2626"/><circle cx="260.8" cy="336.8" r="2.1" fill="#dc2626"/><circle cx="268.6" cy="338.9" r="2.1" fill="#dc2626"/><circle cx="277.9" cy="338.3" r="2.1" fill="#dc2626"/><circle cx="289.1" cy="334.4" r="2.1" fill="#dc2626"/><circle cx="300.3" cy="330.6" r="2.1" fill="#dc2626"/><circle cx="311.4" cy="326.7" r="2.1" fill="#dc2626"/><circle cx="322.5" cy="322.7" r="2.1" fill="#dc2626"/><circle cx="333.6" cy="318.6" r="2.1" fill="#dc2626"/><circle cx="56.4" cy="173.1" r="6" fill="#2563eb" stroke="white" stroke-width="2"/><path d="M333.6,311.6 L340.6,318.6 L333.6,325.6 L326.6,318.6 Z" fill="#dc2626" stroke="white" stroke-width="2"/></g><text x="18" y="484" font-size="10.5" fill="#475569">● 시작 · ━ 정답 이동 · ◆ 현재 실제 위치</text><text x="18" y="503" font-size="10.5" fill="#475569">검정 점선 D1 · 검정 실선 알림 후보 셀</text></g><text x="0" y="648" font-size="13" font-weight="600" fill="#334155">SP07-counter | counter | kakao | 보문동주민센터</text></svg>